G75*
%MOIN*%
%OFA0B0*%
%FSLAX24Y24*%
%IPPOS*%
%LPD*%
%AMOC8*
5,1,8,0,0,1.08239X$1,22.5*
%
%ADD10C,0.0050*%
%ADD11R,0.6500X0.1000*%
%ADD12C,0.0060*%
%ADD13C,0.0080*%
%ADD14C,0.0100*%
%ADD15C,0.0040*%
%ADD16C,0.0000*%
%ADD17R,0.0050X0.0010*%
%ADD18R,0.0070X0.0010*%
%ADD19R,0.0090X0.0010*%
%ADD20R,0.0110X0.0010*%
%ADD21R,0.0130X0.0010*%
%ADD22R,0.0150X0.0010*%
%ADD23R,0.0170X0.0010*%
%ADD24R,0.0190X0.0010*%
%ADD25R,0.0210X0.0010*%
%ADD26R,0.0230X0.0010*%
%ADD27R,0.0240X0.0010*%
%ADD28R,0.0260X0.0010*%
%ADD29R,0.0270X0.0010*%
%ADD30R,0.0280X0.0010*%
%ADD31R,0.0140X0.0010*%
%ADD32R,0.0250X0.0010*%
%ADD33R,0.0160X0.0010*%
%ADD34R,0.0180X0.0010*%
%ADD35R,0.0200X0.0010*%
%ADD36R,0.0220X0.0010*%
%ADD37R,0.0020X0.0010*%
%ADD38R,0.0290X0.0010*%
%ADD39R,0.0300X0.0010*%
%ADD40R,0.0310X0.0010*%
%ADD41R,0.0320X0.0010*%
%ADD42R,0.0330X0.0010*%
%ADD43R,0.0040X0.0010*%
%ADD44R,0.0060X0.0010*%
%ADD45R,0.0080X0.0010*%
%ADD46R,0.0100X0.0010*%
%ADD47R,0.0120X0.0010*%
%ADD48R,0.0030X0.0010*%
%ADD49R,0.0350X0.0010*%
%ADD50R,0.0380X0.0010*%
%ADD51R,0.0420X0.0010*%
%ADD52R,0.0450X0.0010*%
%ADD53R,0.0340X0.0010*%
%ADD54R,0.0480X0.0010*%
%ADD55R,0.0390X0.0010*%
%ADD56R,0.0410X0.0010*%
%ADD57R,0.0430X0.0010*%
%ADD58R,0.0460X0.0010*%
%ADD59R,0.0470X0.0010*%
%ADD60R,0.0400X0.0010*%
%ADD61R,0.0490X0.0010*%
%ADD62R,0.0510X0.0010*%
%ADD63R,0.0370X0.0010*%
%ADD64R,0.0590X0.0010*%
%ADD65R,0.0500X0.0010*%
%ADD66R,0.0580X0.0010*%
%ADD67R,0.0570X0.0010*%
%ADD68R,0.0530X0.0010*%
%ADD69R,0.0520X0.0010*%
%ADD70R,0.0360X0.0010*%
%ADD71R,0.0010X0.0010*%
%ADD72R,0.0013X0.0003*%
%ADD73R,0.0018X0.0003*%
%ADD74R,0.0022X0.0003*%
%ADD75R,0.0027X0.0003*%
%ADD76R,0.0032X0.0003*%
%ADD77R,0.0037X0.0003*%
%ADD78R,0.0043X0.0003*%
%ADD79R,0.0047X0.0003*%
%ADD80R,0.0053X0.0003*%
%ADD81R,0.0057X0.0003*%
%ADD82R,0.0060X0.0003*%
%ADD83R,0.0065X0.0003*%
%ADD84R,0.0067X0.0003*%
%ADD85R,0.0070X0.0003*%
%ADD86R,0.0035X0.0003*%
%ADD87R,0.0063X0.0003*%
%ADD88R,0.0040X0.0003*%
%ADD89R,0.0045X0.0003*%
%ADD90R,0.0050X0.0003*%
%ADD91R,0.0055X0.0003*%
%ADD92R,0.0005X0.0003*%
%ADD93R,0.0073X0.0003*%
%ADD94R,0.0075X0.0003*%
%ADD95R,0.0077X0.0003*%
%ADD96R,0.0080X0.0003*%
%ADD97R,0.0083X0.0003*%
%ADD98R,0.0010X0.0003*%
%ADD99R,0.0015X0.0003*%
%ADD100R,0.0020X0.0003*%
%ADD101R,0.0025X0.0003*%
%ADD102R,0.0030X0.0003*%
%ADD103R,0.0008X0.0003*%
%ADD104R,0.0088X0.0003*%
%ADD105R,0.0095X0.0003*%
%ADD106R,0.0105X0.0003*%
%ADD107R,0.0113X0.0003*%
%ADD108R,0.0085X0.0003*%
%ADD109R,0.0120X0.0003*%
%ADD110R,0.0098X0.0003*%
%ADD111R,0.0103X0.0003*%
%ADD112R,0.0107X0.0003*%
%ADD113R,0.0115X0.0003*%
%ADD114R,0.0118X0.0003*%
%ADD115R,0.0100X0.0003*%
%ADD116R,0.0123X0.0003*%
%ADD117R,0.0127X0.0003*%
%ADD118R,0.0092X0.0003*%
%ADD119R,0.0147X0.0003*%
%ADD120R,0.0125X0.0003*%
%ADD121R,0.0145X0.0003*%
%ADD122R,0.0143X0.0003*%
%ADD123R,0.0133X0.0003*%
%ADD124R,0.0130X0.0003*%
%ADD125R,0.0090X0.0003*%
%ADD126R,0.0003X0.0003*%
D10*
X004021Y000914D02*
X004021Y001004D01*
X004066Y001050D01*
X004157Y001050D01*
X004157Y000959D01*
X004247Y000869D02*
X004066Y000869D01*
X004021Y000914D01*
X004247Y000869D02*
X004292Y000914D01*
X004292Y001004D01*
X004247Y001050D01*
X004292Y001164D02*
X004021Y001164D01*
X004021Y001344D02*
X004292Y001344D01*
X004292Y001459D02*
X004021Y001459D01*
X004021Y001594D01*
X004066Y001639D01*
X004247Y001639D01*
X004292Y001594D01*
X004292Y001459D01*
X004021Y001344D02*
X004292Y001164D01*
X005021Y001254D02*
X005112Y001344D01*
X005292Y001344D01*
X005247Y001459D02*
X005066Y001459D01*
X005247Y001639D01*
X005066Y001639D01*
X005021Y001594D01*
X005021Y001504D01*
X005066Y001459D01*
X005247Y001459D02*
X005292Y001504D01*
X005292Y001594D01*
X005247Y001639D01*
X005021Y001254D02*
X005112Y001164D01*
X005292Y001164D01*
X005292Y001050D02*
X005292Y000869D01*
X005157Y000869D01*
X005202Y000959D01*
X005202Y001004D01*
X005157Y001050D01*
X005066Y001050D01*
X005021Y001004D01*
X005021Y000914D01*
X005066Y000869D01*
X006021Y000914D02*
X006066Y000869D01*
X006021Y000914D02*
X006021Y001004D01*
X006066Y001050D01*
X006112Y001050D01*
X006157Y001004D01*
X006157Y000914D01*
X006202Y000869D01*
X006247Y000869D01*
X006292Y000914D01*
X006292Y001004D01*
X006247Y001050D01*
X006292Y001164D02*
X006021Y001164D01*
X006021Y001299D01*
X006066Y001344D01*
X006247Y001344D01*
X006292Y001299D01*
X006292Y001164D01*
X006202Y001459D02*
X006021Y001459D01*
X006157Y001459D02*
X006157Y001639D01*
X006202Y001639D02*
X006021Y001639D01*
X006202Y001639D02*
X006292Y001549D01*
X006202Y001459D01*
X007021Y001459D02*
X007021Y001639D01*
X007021Y001459D02*
X007292Y001459D01*
X007247Y001344D02*
X007292Y001299D01*
X007292Y001209D01*
X007247Y001164D01*
X007066Y001164D01*
X007021Y001209D01*
X007021Y001299D01*
X007066Y001344D01*
X007066Y001050D02*
X007021Y001004D01*
X007021Y000914D01*
X007066Y000869D01*
X007157Y000914D02*
X007157Y001004D01*
X007112Y001050D01*
X007066Y001050D01*
X007157Y000914D02*
X007202Y000869D01*
X007247Y000869D01*
X007292Y000914D01*
X007292Y001004D01*
X007247Y001050D01*
X008021Y001050D02*
X008292Y001050D01*
X008247Y001164D02*
X008066Y001164D01*
X008021Y001209D01*
X008021Y001299D01*
X008066Y001344D01*
X008247Y001344D02*
X008292Y001299D01*
X008292Y001209D01*
X008247Y001164D01*
X008021Y001050D02*
X008292Y000869D01*
X008021Y000869D01*
X009021Y000869D02*
X009292Y000869D01*
X009021Y001050D01*
X009292Y001050D01*
X009247Y001164D02*
X009066Y001164D01*
X009021Y001209D01*
X009021Y001299D01*
X009066Y001344D01*
X009247Y001344D02*
X009292Y001299D01*
X009292Y001209D01*
X009247Y001164D01*
X010021Y001209D02*
X010021Y001299D01*
X010066Y001344D01*
X010021Y001209D02*
X010066Y001164D01*
X010247Y001164D01*
X010292Y001209D01*
X010292Y001299D01*
X010247Y001344D01*
X010292Y001050D02*
X010021Y001050D01*
X010292Y000869D01*
X010021Y000869D01*
X011021Y000869D02*
X011292Y000869D01*
X011021Y001050D01*
X011292Y001050D01*
X011247Y001164D02*
X011066Y001164D01*
X011021Y001209D01*
X011021Y001299D01*
X011066Y001344D01*
X011247Y001344D02*
X011292Y001299D01*
X011292Y001209D01*
X011247Y001164D01*
X012121Y001209D02*
X012121Y001299D01*
X012166Y001344D01*
X012121Y001209D02*
X012166Y001164D01*
X012347Y001164D01*
X012392Y001209D01*
X012392Y001299D01*
X012347Y001344D01*
X012392Y001050D02*
X012121Y001050D01*
X012392Y000869D01*
X012121Y000869D01*
X013021Y000969D02*
X013292Y000969D01*
X013021Y001150D01*
X013292Y001150D01*
X013247Y001264D02*
X013292Y001309D01*
X013292Y001399D01*
X013247Y001444D01*
X013066Y001444D02*
X013021Y001399D01*
X013021Y001309D01*
X013066Y001264D01*
X013247Y001264D01*
X014021Y001309D02*
X014066Y001264D01*
X014247Y001264D01*
X014292Y001309D01*
X014292Y001399D01*
X014247Y001444D01*
X014066Y001444D02*
X014021Y001399D01*
X014021Y001309D01*
X014021Y001150D02*
X014292Y001150D01*
X014292Y000969D02*
X014021Y001150D01*
X014021Y000969D02*
X014292Y000969D01*
X015021Y000969D02*
X015292Y000969D01*
X015021Y001150D01*
X015292Y001150D01*
X015247Y001264D02*
X015066Y001264D01*
X015021Y001309D01*
X015021Y001399D01*
X015066Y001444D01*
X015247Y001444D02*
X015292Y001399D01*
X015292Y001309D01*
X015247Y001264D01*
X015947Y003269D02*
X015902Y003314D01*
X015902Y003495D01*
X015947Y003540D01*
X016082Y003540D01*
X016082Y003269D01*
X015947Y003269D01*
X016197Y003269D02*
X016197Y003540D01*
X016377Y003540D02*
X016197Y003269D01*
X016377Y003269D02*
X016377Y003540D01*
X016491Y003495D02*
X016536Y003540D01*
X016626Y003540D01*
X016671Y003495D01*
X016671Y003314D01*
X016626Y003269D01*
X016536Y003269D01*
X016491Y003314D01*
X016491Y003404D01*
X016581Y003404D01*
X016581Y004069D02*
X016491Y004159D01*
X016491Y004340D01*
X016377Y004295D02*
X016377Y004114D01*
X016332Y004069D01*
X016242Y004069D01*
X016197Y004114D01*
X016082Y004114D02*
X016037Y004069D01*
X015947Y004069D01*
X015902Y004114D01*
X015788Y004069D02*
X015607Y004069D01*
X015697Y004069D02*
X015697Y004340D01*
X015788Y004250D01*
X015902Y004295D02*
X015947Y004340D01*
X016037Y004340D01*
X016082Y004295D01*
X016082Y004114D01*
X016197Y004295D02*
X016242Y004340D01*
X016332Y004340D01*
X016377Y004295D01*
X016671Y004340D02*
X016671Y004159D01*
X016581Y004069D01*
X016581Y004869D02*
X016671Y004869D01*
X016626Y004869D02*
X016626Y005140D01*
X016671Y005140D02*
X016581Y005140D01*
X016475Y005095D02*
X016475Y004914D01*
X016430Y004869D01*
X016340Y004869D01*
X016295Y004914D01*
X016295Y005095D01*
X016340Y005140D01*
X016430Y005140D01*
X016475Y005095D01*
X016180Y005050D02*
X016090Y005140D01*
X016090Y004869D01*
X016180Y004869D02*
X016000Y004869D01*
X016045Y005669D02*
X016135Y005669D01*
X016180Y005714D01*
X016000Y005895D01*
X016000Y005714D01*
X016045Y005669D01*
X016180Y005714D02*
X016180Y005895D01*
X016135Y005940D01*
X016045Y005940D01*
X016000Y005895D01*
X016295Y005895D02*
X016295Y005714D01*
X016340Y005669D01*
X016430Y005669D01*
X016475Y005714D01*
X016475Y005895D01*
X016430Y005940D01*
X016340Y005940D01*
X016295Y005895D01*
X016581Y005940D02*
X016671Y005940D01*
X016626Y005940D02*
X016626Y005669D01*
X016671Y005669D02*
X016581Y005669D01*
X016536Y007469D02*
X016491Y007514D01*
X016491Y007604D01*
X016581Y007604D01*
X016671Y007514D02*
X016626Y007469D01*
X016536Y007469D01*
X016671Y007514D02*
X016671Y007695D01*
X016626Y007740D01*
X016536Y007740D01*
X016491Y007695D01*
X016377Y007740D02*
X016197Y007469D01*
X016197Y007740D01*
X016082Y007740D02*
X015947Y007740D01*
X015902Y007695D01*
X015902Y007514D01*
X015947Y007469D01*
X016082Y007469D01*
X016082Y007740D01*
X016377Y007740D02*
X016377Y007469D01*
X016332Y008369D02*
X016242Y008369D01*
X016197Y008414D01*
X016082Y008414D02*
X016037Y008369D01*
X015947Y008369D01*
X015902Y008414D01*
X015788Y008369D02*
X015607Y008550D01*
X015607Y008595D01*
X015652Y008640D01*
X015742Y008640D01*
X015788Y008595D01*
X015902Y008595D02*
X015947Y008640D01*
X016037Y008640D01*
X016082Y008595D01*
X016082Y008414D01*
X016197Y008595D02*
X016242Y008640D01*
X016332Y008640D01*
X016377Y008595D01*
X016377Y008414D01*
X016332Y008369D01*
X016491Y008459D02*
X016491Y008640D01*
X016671Y008640D02*
X016671Y008459D01*
X016581Y008369D01*
X016491Y008459D01*
X016430Y009069D02*
X016340Y009069D01*
X016295Y009114D01*
X016295Y009295D01*
X016340Y009340D01*
X016430Y009340D01*
X016475Y009295D01*
X016475Y009114D01*
X016430Y009069D01*
X016581Y009069D02*
X016671Y009069D01*
X016626Y009069D02*
X016626Y009340D01*
X016671Y009340D02*
X016581Y009340D01*
X016180Y009340D02*
X016180Y009204D01*
X016090Y009250D01*
X016045Y009250D01*
X016000Y009204D01*
X016000Y009114D01*
X016045Y009069D01*
X016135Y009069D01*
X016180Y009114D01*
X016180Y009340D02*
X016000Y009340D01*
X016045Y009869D02*
X016045Y010140D01*
X016180Y010004D01*
X016000Y010004D01*
X016295Y009914D02*
X016295Y010095D01*
X016340Y010140D01*
X016430Y010140D01*
X016475Y010095D01*
X016475Y009914D01*
X016430Y009869D01*
X016340Y009869D01*
X016295Y009914D01*
X016581Y009869D02*
X016671Y009869D01*
X016626Y009869D02*
X016626Y010140D01*
X016671Y010140D02*
X016581Y010140D01*
X015788Y008369D02*
X015607Y008369D01*
X011871Y007195D02*
X011871Y007150D01*
X011826Y007104D01*
X011736Y007104D01*
X011691Y007059D01*
X011691Y007014D01*
X011736Y006969D01*
X011826Y006969D01*
X011871Y007014D01*
X011871Y007195D02*
X011826Y007240D01*
X011736Y007240D01*
X011691Y007195D01*
X011577Y007104D02*
X011532Y007150D01*
X011442Y007150D01*
X011397Y007104D01*
X011397Y007059D01*
X011577Y007059D01*
X011577Y007014D02*
X011577Y007104D01*
X011577Y007014D02*
X011532Y006969D01*
X011442Y006969D01*
X011282Y006969D02*
X011282Y007150D01*
X011192Y007150D02*
X011282Y007059D01*
X011192Y007150D02*
X011147Y007150D01*
X011037Y007150D02*
X010992Y007150D01*
X010992Y006969D01*
X011037Y006969D02*
X010947Y006969D01*
X010840Y007014D02*
X010795Y007059D01*
X010660Y007059D01*
X010660Y007104D02*
X010660Y006969D01*
X010795Y006969D01*
X010840Y007014D01*
X010795Y007150D02*
X010705Y007150D01*
X010660Y007104D01*
X010546Y006969D02*
X010455Y006969D01*
X010500Y006969D02*
X010500Y007240D01*
X010546Y007240D01*
X010992Y007240D02*
X010992Y007285D01*
X010054Y007240D02*
X010054Y006969D01*
X009874Y006969D02*
X009874Y007240D01*
X009760Y007150D02*
X009760Y007014D01*
X009715Y006969D01*
X009580Y006969D01*
X009580Y007150D01*
X009465Y007150D02*
X009420Y007150D01*
X009375Y007104D01*
X009330Y007150D01*
X009285Y007104D01*
X009285Y006969D01*
X009375Y006969D02*
X009375Y007104D01*
X009465Y007150D02*
X009465Y006969D01*
X009170Y006969D02*
X009035Y006969D01*
X008990Y007014D01*
X008990Y007104D01*
X009035Y007150D01*
X009170Y007150D01*
X009170Y007240D02*
X009170Y006969D01*
X008876Y007014D02*
X008831Y006969D01*
X008741Y006969D01*
X008696Y007059D02*
X008876Y007059D01*
X008876Y007014D02*
X008876Y007104D01*
X008831Y007150D01*
X008741Y007150D01*
X008696Y007104D01*
X008696Y007059D01*
X008581Y007059D02*
X008491Y007150D01*
X008446Y007150D01*
X008336Y007150D02*
X008336Y007104D01*
X008291Y007104D01*
X008291Y007150D01*
X008336Y007150D01*
X008336Y007014D02*
X008336Y006969D01*
X008291Y006969D01*
X008291Y007014D01*
X008336Y007014D01*
X008581Y006969D02*
X008581Y007150D01*
X007571Y007240D02*
X007571Y006969D01*
X007571Y007059D02*
X007436Y007059D01*
X007391Y007104D01*
X007391Y007195D01*
X007436Y007240D01*
X007571Y007240D01*
X007481Y007059D02*
X007391Y006969D01*
X007277Y007014D02*
X007277Y007104D01*
X007232Y007150D01*
X007142Y007150D01*
X007097Y007104D01*
X007097Y007059D01*
X007277Y007059D01*
X007277Y007014D02*
X007232Y006969D01*
X007142Y006969D01*
X006982Y007150D02*
X006892Y006969D01*
X006802Y007150D01*
X006688Y007014D02*
X006642Y007014D01*
X006642Y006969D01*
X006688Y006969D01*
X006688Y007014D01*
X006246Y006969D02*
X006065Y006969D01*
X006155Y006969D02*
X006155Y007240D01*
X006246Y007150D01*
X005951Y007014D02*
X005951Y006969D01*
X005906Y006969D01*
X005906Y007014D01*
X005951Y007014D01*
X005804Y006969D02*
X005623Y006969D01*
X005713Y006969D02*
X005713Y007240D01*
X005804Y007150D01*
X002971Y007469D02*
X002881Y007469D01*
X002926Y007469D02*
X002926Y007740D01*
X002971Y007740D02*
X002881Y007740D01*
X002775Y007695D02*
X002775Y007514D01*
X002730Y007469D01*
X002640Y007469D01*
X002595Y007514D01*
X002595Y007695D01*
X002640Y007740D01*
X002730Y007740D01*
X002775Y007695D01*
X002480Y007695D02*
X002480Y007650D01*
X002435Y007604D01*
X002345Y007604D01*
X002300Y007559D01*
X002300Y007514D01*
X002345Y007469D01*
X002435Y007469D01*
X002480Y007514D01*
X002480Y007559D01*
X002435Y007604D01*
X002345Y007604D02*
X002300Y007650D01*
X002300Y007695D01*
X002345Y007740D01*
X002435Y007740D01*
X002480Y007695D01*
X002435Y008369D02*
X002345Y008369D01*
X002300Y008414D01*
X002300Y008595D01*
X002345Y008640D01*
X002435Y008640D01*
X002480Y008595D01*
X002480Y008550D01*
X002435Y008504D01*
X002300Y008504D01*
X002435Y008369D02*
X002480Y008414D01*
X002595Y008414D02*
X002595Y008595D01*
X002640Y008640D01*
X002730Y008640D01*
X002775Y008595D01*
X002775Y008414D01*
X002730Y008369D01*
X002640Y008369D01*
X002595Y008414D01*
X002881Y008369D02*
X002971Y008369D01*
X002926Y008369D02*
X002926Y008640D01*
X002971Y008640D02*
X002881Y008640D01*
X002881Y009069D02*
X002791Y009159D01*
X002791Y009340D01*
X002677Y009295D02*
X002677Y009114D01*
X002632Y009069D01*
X002542Y009069D01*
X002497Y009114D01*
X002382Y009114D02*
X002337Y009069D01*
X002247Y009069D01*
X002202Y009114D01*
X002088Y009114D02*
X002042Y009069D01*
X001952Y009069D01*
X001907Y009114D01*
X001907Y009159D01*
X001952Y009204D01*
X001997Y009204D01*
X001952Y009204D02*
X001907Y009250D01*
X001907Y009295D01*
X001952Y009340D01*
X002042Y009340D01*
X002088Y009295D01*
X002202Y009295D02*
X002247Y009340D01*
X002337Y009340D01*
X002382Y009295D01*
X002382Y009114D01*
X002497Y009295D02*
X002542Y009340D01*
X002632Y009340D01*
X002677Y009295D01*
X002971Y009340D02*
X002971Y009159D01*
X002881Y009069D01*
X002836Y009869D02*
X002791Y009914D01*
X002791Y010004D01*
X002881Y010004D01*
X002971Y010095D02*
X002971Y009914D01*
X002926Y009869D01*
X002836Y009869D01*
X002677Y009869D02*
X002677Y010140D01*
X002497Y009869D01*
X002497Y010140D01*
X002382Y010140D02*
X002247Y010140D01*
X002202Y010095D01*
X002202Y009914D01*
X002247Y009869D01*
X002382Y009869D01*
X002382Y010140D01*
X002791Y010095D02*
X002836Y010140D01*
X002926Y010140D01*
X002971Y010095D01*
X004046Y011785D02*
X004001Y011830D01*
X004001Y011921D01*
X004046Y011966D01*
X004137Y011966D01*
X004137Y011875D01*
X004227Y011785D02*
X004272Y011830D01*
X004272Y011921D01*
X004227Y011966D01*
X004272Y012080D02*
X004001Y012260D01*
X004272Y012260D01*
X004272Y012375D02*
X004272Y012510D01*
X004227Y012555D01*
X004046Y012555D01*
X004001Y012510D01*
X004001Y012375D01*
X004272Y012375D01*
X004272Y012080D02*
X004001Y012080D01*
X004046Y011785D02*
X004227Y011785D01*
X005001Y011830D02*
X005046Y011785D01*
X005001Y011830D02*
X005001Y011921D01*
X005046Y011966D01*
X005092Y011966D01*
X005137Y011921D01*
X005137Y011875D01*
X005137Y011921D02*
X005182Y011966D01*
X005227Y011966D01*
X005272Y011921D01*
X005272Y011830D01*
X005227Y011785D01*
X005272Y012080D02*
X005092Y012080D01*
X005001Y012170D01*
X005092Y012260D01*
X005272Y012260D01*
X005227Y012375D02*
X005272Y012420D01*
X005272Y012510D01*
X005227Y012555D01*
X005182Y012555D01*
X005137Y012510D01*
X005092Y012555D01*
X005046Y012555D01*
X005001Y012510D01*
X005001Y012420D01*
X005046Y012375D01*
X005137Y012465D02*
X005137Y012510D01*
X006001Y012510D02*
X006046Y012555D01*
X006001Y012510D02*
X006001Y012420D01*
X006046Y012375D01*
X006227Y012375D01*
X006272Y012420D01*
X006272Y012510D01*
X006227Y012555D01*
X006272Y012260D02*
X006001Y012260D01*
X006272Y012080D01*
X006001Y012080D01*
X007001Y012080D02*
X007272Y012080D01*
X007001Y012260D01*
X007272Y012260D01*
X007227Y012375D02*
X007046Y012375D01*
X007001Y012420D01*
X007001Y012510D01*
X007046Y012555D01*
X007227Y012555D02*
X007272Y012510D01*
X007272Y012420D01*
X007227Y012375D01*
X008001Y012420D02*
X008001Y012510D01*
X008046Y012555D01*
X008001Y012420D02*
X008046Y012375D01*
X008227Y012375D01*
X008272Y012420D01*
X008272Y012510D01*
X008227Y012555D01*
X008272Y012260D02*
X008001Y012260D01*
X008272Y012080D01*
X008001Y012080D01*
X009001Y012080D02*
X009272Y012080D01*
X009001Y012260D01*
X009272Y012260D01*
X009227Y012375D02*
X009046Y012375D01*
X009001Y012420D01*
X009001Y012510D01*
X009046Y012555D01*
X009227Y012555D02*
X009272Y012510D01*
X009272Y012420D01*
X009227Y012375D01*
X010001Y012465D02*
X010272Y012465D01*
X010272Y012375D02*
X010272Y012555D01*
X010371Y012644D02*
X010371Y011760D01*
X010272Y011785D02*
X010272Y011921D01*
X010227Y011966D01*
X010137Y011966D01*
X010092Y011921D01*
X010092Y011785D01*
X010092Y011875D02*
X010001Y011966D01*
X010046Y012080D02*
X010001Y012125D01*
X010001Y012215D01*
X010046Y012260D01*
X010092Y012260D01*
X010137Y012215D01*
X010137Y012125D01*
X010182Y012080D01*
X010227Y012080D01*
X010272Y012125D01*
X010272Y012215D01*
X010227Y012260D01*
X010272Y011785D02*
X010001Y011785D01*
X011001Y011884D02*
X011001Y011974D01*
X011001Y011929D02*
X011272Y011929D01*
X011272Y011884D02*
X011272Y011974D01*
X011272Y012080D02*
X011272Y012215D01*
X011227Y012260D01*
X011137Y012260D01*
X011092Y012215D01*
X011092Y012080D01*
X011092Y012170D02*
X011001Y012260D01*
X011046Y012375D02*
X011001Y012420D01*
X011001Y012510D01*
X011046Y012555D01*
X011227Y012555D01*
X011272Y012510D01*
X011272Y012420D01*
X011227Y012375D01*
X011046Y012375D01*
X011092Y012465D02*
X011001Y012555D01*
X011371Y012644D02*
X011371Y011859D01*
X011272Y012080D02*
X011001Y012080D01*
X012001Y012080D02*
X012272Y012080D01*
X012001Y012260D01*
X012272Y012260D01*
X012227Y012375D02*
X012046Y012375D01*
X012001Y012420D01*
X012001Y012510D01*
X012046Y012555D01*
X012227Y012555D02*
X012272Y012510D01*
X012272Y012420D01*
X012227Y012375D01*
X013001Y012420D02*
X013046Y012375D01*
X013227Y012375D01*
X013272Y012420D01*
X013272Y012510D01*
X013227Y012555D01*
X013046Y012555D02*
X013001Y012510D01*
X013001Y012420D01*
X013001Y012260D02*
X013272Y012260D01*
X013272Y012080D02*
X013001Y012080D01*
X013001Y012260D02*
X013272Y012080D01*
X014001Y012080D02*
X014272Y012080D01*
X014001Y012260D01*
X014272Y012260D01*
X014227Y012375D02*
X014046Y012375D01*
X014001Y012420D01*
X014001Y012510D01*
X014046Y012555D01*
X014227Y012555D02*
X014272Y012510D01*
X014272Y012420D01*
X014227Y012375D01*
X015001Y012420D02*
X015046Y012375D01*
X015227Y012375D01*
X015272Y012420D01*
X015272Y012510D01*
X015227Y012555D01*
X015046Y012555D02*
X015001Y012510D01*
X015001Y012420D01*
X015001Y012260D02*
X015272Y012260D01*
X015272Y012080D02*
X015001Y012260D01*
X015001Y012080D02*
X015272Y012080D01*
X010054Y007240D02*
X009874Y006969D01*
X002971Y005895D02*
X002971Y005714D01*
X002926Y005669D01*
X002836Y005669D01*
X002791Y005714D01*
X002791Y005804D01*
X002881Y005804D01*
X002791Y005895D02*
X002836Y005940D01*
X002926Y005940D01*
X002971Y005895D01*
X002677Y005940D02*
X002497Y005669D01*
X002497Y005940D01*
X002382Y005940D02*
X002247Y005940D01*
X002202Y005895D01*
X002202Y005714D01*
X002247Y005669D01*
X002382Y005669D01*
X002382Y005940D01*
X002677Y005940D02*
X002677Y005669D01*
X002632Y005140D02*
X002542Y005140D01*
X002497Y005095D01*
X002382Y005095D02*
X002382Y004914D01*
X002337Y004869D01*
X002247Y004869D01*
X002202Y004914D01*
X002088Y005004D02*
X001907Y005004D01*
X001952Y004869D02*
X001952Y005140D01*
X002088Y005004D01*
X002202Y005095D02*
X002247Y005140D01*
X002337Y005140D01*
X002382Y005095D01*
X002497Y004914D02*
X002542Y004869D01*
X002632Y004869D01*
X002677Y004914D01*
X002677Y005095D01*
X002632Y005140D01*
X002791Y005140D02*
X002791Y004959D01*
X002881Y004869D01*
X002971Y004959D01*
X002971Y005140D01*
X002971Y004340D02*
X002881Y004340D01*
X002926Y004340D02*
X002926Y004069D01*
X002971Y004069D02*
X002881Y004069D01*
X002775Y004114D02*
X002730Y004069D01*
X002640Y004069D01*
X002595Y004114D01*
X002595Y004295D01*
X002640Y004340D01*
X002730Y004340D01*
X002775Y004295D01*
X002775Y004114D01*
X002480Y004069D02*
X002300Y004069D01*
X002390Y004069D02*
X002390Y004340D01*
X002480Y004250D01*
X002186Y004295D02*
X002141Y004340D01*
X002051Y004340D01*
X002006Y004295D01*
X002006Y004250D01*
X002051Y004204D01*
X002006Y004159D01*
X002006Y004114D01*
X002051Y004069D01*
X002141Y004069D01*
X002186Y004114D01*
X002096Y004204D02*
X002051Y004204D01*
X002051Y003640D02*
X002141Y003640D01*
X002186Y003595D01*
X002051Y003640D02*
X002006Y003595D01*
X002006Y003550D01*
X002186Y003369D01*
X002006Y003369D01*
X002300Y003369D02*
X002480Y003369D01*
X002390Y003369D02*
X002390Y003640D01*
X002480Y003550D01*
X002595Y003595D02*
X002595Y003414D01*
X002640Y003369D01*
X002730Y003369D01*
X002775Y003414D01*
X002775Y003595D01*
X002730Y003640D01*
X002640Y003640D01*
X002595Y003595D01*
X002881Y003640D02*
X002971Y003640D01*
X002926Y003640D02*
X002926Y003369D01*
X002971Y003369D02*
X002881Y003369D01*
D11*
X008746Y006344D03*
D12*
X000596Y000744D02*
X017396Y000744D01*
X017446Y000746D01*
X017496Y000751D01*
X017545Y000760D01*
X017593Y000772D01*
X017641Y000788D01*
X017687Y000807D01*
X017731Y000830D01*
X017774Y000855D01*
X017815Y000884D01*
X017854Y000915D01*
X017891Y000949D01*
X017925Y000986D01*
X017956Y001025D01*
X017985Y001066D01*
X018010Y001109D01*
X018033Y001153D01*
X018052Y001199D01*
X018068Y001247D01*
X018080Y001295D01*
X018089Y001344D01*
X018094Y001394D01*
X018096Y001444D01*
X018096Y012044D01*
X018094Y012094D01*
X018089Y012144D01*
X018080Y012193D01*
X018068Y012241D01*
X018052Y012289D01*
X018033Y012335D01*
X018010Y012379D01*
X017985Y012422D01*
X017956Y012463D01*
X017925Y012502D01*
X017891Y012539D01*
X017854Y012573D01*
X017815Y012604D01*
X017774Y012633D01*
X017731Y012658D01*
X017687Y012681D01*
X017641Y012700D01*
X017593Y012716D01*
X017545Y012728D01*
X017496Y012737D01*
X017446Y012742D01*
X017396Y012744D01*
X001296Y012744D01*
X001246Y012742D01*
X001196Y012737D01*
X001147Y012728D01*
X001099Y012716D01*
X001051Y012700D01*
X001005Y012681D01*
X000961Y012658D01*
X000918Y012633D01*
X000877Y012604D01*
X000838Y012573D01*
X000801Y012539D01*
X000767Y012502D01*
X000736Y012463D01*
X000707Y012422D01*
X000682Y012379D01*
X000659Y012335D01*
X000640Y012289D01*
X000624Y012241D01*
X000612Y012193D01*
X000603Y012144D01*
X000598Y012094D01*
X000596Y012044D01*
X000596Y000744D01*
X006294Y008774D02*
X006238Y008831D01*
X006238Y009058D01*
X006294Y009115D01*
X006408Y009115D01*
X006465Y009058D01*
X006465Y008831D01*
X006408Y008774D01*
X006294Y008774D01*
X006597Y008774D02*
X006710Y008774D01*
X006653Y008774D02*
X006653Y009115D01*
X006597Y009115D02*
X006710Y009115D01*
X006852Y009058D02*
X006852Y008944D01*
X006908Y008888D01*
X007078Y008888D01*
X007078Y008774D02*
X007078Y009115D01*
X006908Y009115D01*
X006852Y009058D01*
X007220Y009058D02*
X007277Y009115D01*
X007390Y009115D01*
X007447Y009058D01*
X007447Y008831D01*
X007390Y008774D01*
X007277Y008774D01*
X007220Y008831D01*
X007220Y008944D01*
X007333Y008944D01*
X007588Y008718D02*
X007815Y008718D01*
X008070Y008774D02*
X008070Y008944D01*
X007956Y009058D01*
X007956Y009115D01*
X008070Y008944D02*
X008183Y009058D01*
X008183Y009115D01*
X008325Y009115D02*
X008552Y009115D01*
X008552Y008774D01*
X008325Y008774D01*
X008438Y008944D02*
X008552Y008944D01*
X008693Y008888D02*
X008693Y009115D01*
X008920Y009115D02*
X008920Y008888D01*
X008807Y008774D01*
X008693Y008888D01*
X009061Y008831D02*
X009118Y008774D01*
X009232Y008774D01*
X009288Y008831D01*
X009288Y009058D01*
X009232Y009115D01*
X009118Y009115D01*
X009061Y009058D01*
X009061Y008831D01*
X009430Y008774D02*
X009543Y008888D01*
X009486Y008888D02*
X009657Y008888D01*
X009657Y008774D02*
X009657Y009115D01*
X009486Y009115D01*
X009430Y009058D01*
X009430Y008944D01*
X009486Y008888D01*
X009798Y008944D02*
X009911Y008944D01*
X009798Y008944D02*
X009798Y008831D01*
X009855Y008774D01*
X009968Y008774D01*
X010025Y008831D01*
X010025Y009058D01*
X009968Y009115D01*
X009855Y009115D01*
X009798Y009058D01*
X010166Y008718D02*
X010393Y008718D01*
X010535Y008831D02*
X010591Y008774D01*
X010705Y008774D01*
X010762Y008831D01*
X010762Y009058D01*
X010705Y009115D01*
X010591Y009115D01*
X010535Y009058D01*
X010903Y009058D02*
X010903Y008831D01*
X010960Y008774D01*
X011073Y008774D01*
X011130Y008831D01*
X011130Y009058D01*
X011073Y009115D01*
X010960Y009115D01*
X010903Y009058D01*
X011271Y009058D02*
X011328Y009115D01*
X011441Y009115D01*
X011498Y009058D01*
X011498Y009001D01*
X011441Y008944D01*
X011328Y008944D01*
X011271Y008888D01*
X011271Y008831D01*
X011328Y008774D01*
X011441Y008774D01*
X011498Y008831D01*
X011753Y008774D02*
X011753Y009115D01*
X011866Y009115D02*
X011640Y009115D01*
D13*
X011856Y009484D02*
X011856Y009965D01*
X011616Y009965D01*
X011536Y009885D01*
X011536Y009725D01*
X011616Y009644D01*
X011856Y009644D01*
X011341Y009564D02*
X011261Y009484D01*
X011021Y009484D01*
X011021Y009725D01*
X011101Y009805D01*
X011261Y009805D01*
X011261Y009644D02*
X011021Y009644D01*
X010825Y009805D02*
X010665Y009805D01*
X010745Y009885D02*
X010745Y009564D01*
X010665Y009484D01*
X010401Y009564D02*
X010321Y009484D01*
X010401Y009564D02*
X010401Y009885D01*
X010481Y009805D02*
X010321Y009805D01*
X010138Y009725D02*
X010138Y009564D01*
X010058Y009484D01*
X009897Y009484D01*
X009817Y009644D02*
X010138Y009644D01*
X010138Y009725D02*
X010058Y009805D01*
X009897Y009805D01*
X009817Y009725D01*
X009817Y009644D01*
X009622Y009644D02*
X009462Y009805D01*
X009382Y009805D01*
X009192Y009805D02*
X008952Y009805D01*
X008872Y009725D01*
X008872Y009484D01*
X008677Y009484D02*
X008677Y009805D01*
X008517Y009965D01*
X008356Y009805D01*
X008356Y009484D01*
X008161Y009564D02*
X008081Y009484D01*
X007841Y009484D01*
X007841Y009404D02*
X007841Y009805D01*
X008081Y009805D01*
X008161Y009725D01*
X008161Y009564D01*
X008356Y009725D02*
X008677Y009725D01*
X009192Y009805D02*
X009192Y009484D01*
X009622Y009484D02*
X009622Y009805D01*
X011261Y009644D02*
X011341Y009564D01*
X008001Y009324D02*
X007921Y009324D01*
X007841Y009404D01*
X007645Y009564D02*
X007645Y009725D01*
X007565Y009805D01*
X007405Y009805D01*
X007325Y009725D01*
X007325Y009644D01*
X007645Y009644D01*
X007645Y009564D02*
X007565Y009484D01*
X007405Y009484D01*
X007130Y009484D02*
X007130Y009805D01*
X006890Y009805D01*
X006809Y009725D01*
X006809Y009484D01*
X006534Y009564D02*
X006454Y009484D01*
X006534Y009564D02*
X006534Y009885D01*
X006614Y009805D02*
X006454Y009805D01*
X006270Y009725D02*
X006190Y009644D01*
X006030Y009644D01*
X005950Y009564D01*
X006030Y009484D01*
X006270Y009484D01*
X006270Y009725D02*
X006190Y009805D01*
X005950Y009805D01*
D14*
X001247Y008055D02*
X001247Y007921D01*
X001180Y007855D01*
X001047Y007988D02*
X001047Y008055D01*
X000980Y008122D01*
X000913Y008122D01*
X000846Y008055D01*
X000846Y007921D01*
X000913Y007855D01*
X001047Y008055D02*
X001113Y008122D01*
X001180Y008122D01*
X001247Y008055D01*
X001247Y007661D02*
X001247Y007528D01*
X001247Y007595D02*
X000913Y007595D01*
X000846Y007528D01*
X000846Y007461D01*
X000913Y007394D01*
X001047Y003922D02*
X001047Y003655D01*
X001247Y003855D01*
X000846Y003855D01*
X001247Y003461D02*
X001247Y003328D01*
X001247Y003395D02*
X000913Y003395D01*
X000846Y003328D01*
X000846Y003261D01*
X000913Y003194D01*
X017446Y003661D02*
X017446Y003728D01*
X017513Y003795D01*
X017847Y003795D01*
X017847Y003861D02*
X017847Y003728D01*
X017713Y004055D02*
X017847Y004188D01*
X017446Y004188D01*
X017446Y004055D02*
X017446Y004322D01*
X017446Y003661D02*
X017513Y003594D01*
X017513Y007794D02*
X017446Y007861D01*
X017446Y007928D01*
X017513Y007995D01*
X017847Y007995D01*
X017847Y008061D02*
X017847Y007928D01*
X017780Y008255D02*
X017847Y008321D01*
X017847Y008455D01*
X017780Y008522D01*
X017713Y008522D01*
X017446Y008255D01*
X017446Y008522D01*
D15*
X011310Y005565D02*
X011243Y005565D01*
X011276Y005565D02*
X011276Y005398D01*
X011310Y005364D01*
X011343Y005364D01*
X011376Y005398D01*
X011155Y005364D02*
X011155Y005498D01*
X011089Y005565D01*
X011022Y005498D01*
X011022Y005364D01*
X010934Y005398D02*
X010901Y005364D01*
X010834Y005364D01*
X010801Y005398D01*
X010713Y005431D02*
X010580Y005565D01*
X010713Y005565D02*
X010713Y005364D01*
X010680Y005464D02*
X010580Y005364D01*
X010801Y005531D02*
X010834Y005565D01*
X010901Y005565D01*
X010934Y005531D01*
X010934Y005398D01*
X011022Y005464D02*
X011155Y005464D01*
X011155Y005104D02*
X011022Y005104D01*
X010934Y005104D02*
X010801Y005104D01*
X010713Y005104D02*
X010580Y005104D01*
X010493Y005104D02*
X010359Y005104D01*
X010272Y005104D02*
X010138Y005104D01*
X010051Y005104D02*
X009917Y005104D01*
X009830Y005104D02*
X009696Y005104D01*
X009609Y005104D02*
X009475Y005104D01*
X009388Y005104D02*
X009254Y005104D01*
X009167Y005104D02*
X009033Y005104D01*
X008946Y005104D02*
X008812Y005104D01*
X008725Y005104D02*
X008591Y005104D01*
X008504Y005104D02*
X008370Y005104D01*
X008283Y005104D02*
X008149Y005104D01*
X008062Y005104D02*
X007928Y005104D01*
X007841Y005104D02*
X007707Y005104D01*
X007620Y005104D02*
X007486Y005104D01*
X007399Y005104D02*
X007265Y005104D01*
X007178Y005104D02*
X007044Y005104D01*
X006957Y005104D02*
X006823Y005104D01*
X006736Y005104D02*
X006602Y005104D01*
X006515Y005104D02*
X006381Y005104D01*
X006294Y005104D02*
X006160Y005104D01*
X006073Y005104D02*
X005939Y005104D01*
X006120Y004845D02*
X006087Y004811D01*
X006220Y004678D01*
X006187Y004644D01*
X006120Y004644D01*
X006087Y004678D01*
X006087Y004811D01*
X006120Y004845D02*
X006187Y004845D01*
X006220Y004811D01*
X006220Y004678D01*
X006308Y004678D02*
X006308Y004811D01*
X006341Y004845D01*
X006408Y004845D01*
X006441Y004811D01*
X006441Y004678D01*
X006408Y004644D01*
X006341Y004644D01*
X006308Y004678D01*
X006341Y004485D02*
X006308Y004451D01*
X006308Y004318D01*
X006341Y004284D01*
X006408Y004284D01*
X006441Y004318D01*
X006441Y004451D01*
X006408Y004485D01*
X006341Y004485D01*
X006220Y004418D02*
X006153Y004485D01*
X006153Y004284D01*
X006087Y004284D02*
X006220Y004284D01*
X006522Y004284D02*
X006588Y004284D01*
X006555Y004284D02*
X006555Y004485D01*
X006588Y004485D02*
X006522Y004485D01*
X006522Y004644D02*
X006588Y004644D01*
X006555Y004644D02*
X006555Y004845D01*
X006588Y004845D02*
X006522Y004845D01*
X006481Y005364D02*
X006448Y005364D01*
X006415Y005398D01*
X006415Y005565D01*
X006448Y005565D02*
X006381Y005565D01*
X006294Y005498D02*
X006227Y005565D01*
X006227Y005364D01*
X006294Y005364D02*
X006160Y005364D01*
X006481Y005364D02*
X006515Y005398D01*
X007265Y005364D02*
X007399Y005364D01*
X007265Y005498D01*
X007265Y005531D01*
X007299Y005565D01*
X007365Y005565D01*
X007399Y005531D01*
X007486Y005565D02*
X007553Y005565D01*
X007520Y005565D02*
X007520Y005398D01*
X007553Y005364D01*
X007586Y005364D01*
X007620Y005398D01*
X007620Y004845D02*
X007553Y004845D01*
X007586Y004845D02*
X007586Y004644D01*
X007553Y004644D02*
X007620Y004644D01*
X007472Y004678D02*
X007472Y004811D01*
X007439Y004845D01*
X007372Y004845D01*
X007339Y004811D01*
X007339Y004678D01*
X007372Y004644D01*
X007439Y004644D01*
X007472Y004678D01*
X007439Y004485D02*
X007472Y004451D01*
X007472Y004318D01*
X007439Y004284D01*
X007372Y004284D01*
X007339Y004318D01*
X007339Y004451D01*
X007372Y004485D01*
X007439Y004485D01*
X007553Y004485D02*
X007620Y004485D01*
X007586Y004485D02*
X007586Y004284D01*
X007553Y004284D02*
X007620Y004284D01*
X007546Y004125D02*
X007479Y004125D01*
X007513Y004125D02*
X007513Y003924D01*
X007546Y003924D02*
X007479Y003924D01*
X007399Y003958D02*
X007399Y004091D01*
X007365Y004125D01*
X007299Y004125D01*
X007265Y004091D01*
X007265Y003958D01*
X007299Y003924D01*
X007365Y003924D01*
X007399Y003958D01*
X007365Y003765D02*
X007399Y003731D01*
X007399Y003598D01*
X007365Y003564D01*
X007299Y003564D01*
X007265Y003598D01*
X007265Y003731D01*
X007299Y003765D01*
X007365Y003765D01*
X007479Y003765D02*
X007546Y003765D01*
X007513Y003765D02*
X007513Y003564D01*
X007546Y003564D02*
X007479Y003564D01*
X007178Y003564D02*
X007178Y003598D01*
X007044Y003731D01*
X007044Y003765D01*
X007178Y003765D01*
X007144Y003924D02*
X007078Y003924D01*
X007044Y003958D01*
X007044Y003991D01*
X007078Y004024D01*
X007178Y004024D01*
X007178Y003958D01*
X007144Y003924D01*
X007178Y004024D02*
X007111Y004091D01*
X007044Y004125D01*
X007151Y004284D02*
X007218Y004284D01*
X007251Y004318D01*
X007251Y004384D02*
X007185Y004418D01*
X007151Y004418D01*
X007118Y004384D01*
X007118Y004318D01*
X007151Y004284D01*
X007251Y004384D02*
X007251Y004485D01*
X007118Y004485D01*
X007151Y004644D02*
X007151Y004845D01*
X007251Y004744D01*
X007118Y004744D01*
X006515Y004125D02*
X006448Y004125D01*
X006481Y004125D02*
X006481Y003924D01*
X006448Y003924D02*
X006515Y003924D01*
X006367Y003958D02*
X006334Y003924D01*
X006267Y003924D01*
X006234Y003958D01*
X006234Y004091D01*
X006267Y004125D01*
X006334Y004125D01*
X006367Y004091D01*
X006367Y003958D01*
X006334Y003765D02*
X006367Y003731D01*
X006367Y003598D01*
X006334Y003564D01*
X006267Y003564D01*
X006234Y003598D01*
X006234Y003731D01*
X006267Y003765D01*
X006334Y003765D01*
X006448Y003765D02*
X006515Y003765D01*
X006481Y003765D02*
X006481Y003564D01*
X006448Y003564D02*
X006515Y003564D01*
X006146Y003598D02*
X006113Y003564D01*
X006046Y003564D01*
X006013Y003598D01*
X006013Y003631D01*
X006046Y003664D01*
X006080Y003664D01*
X006046Y003664D02*
X006013Y003698D01*
X006013Y003731D01*
X006046Y003765D01*
X006113Y003765D01*
X006146Y003731D01*
X006146Y003924D02*
X006013Y004058D01*
X006013Y004091D01*
X006046Y004125D01*
X006113Y004125D01*
X006146Y004091D01*
X006146Y003924D02*
X006013Y003924D01*
X008076Y003958D02*
X008109Y003924D01*
X008176Y003924D01*
X008209Y003958D01*
X008076Y004091D01*
X008076Y003958D01*
X008209Y003958D02*
X008209Y004091D01*
X008176Y004125D01*
X008109Y004125D01*
X008076Y004091D01*
X008297Y003924D02*
X008430Y003924D01*
X008363Y003924D02*
X008363Y004125D01*
X008430Y004058D01*
X008517Y004091D02*
X008551Y004125D01*
X008618Y004125D01*
X008651Y004091D01*
X008651Y003958D01*
X008618Y003924D01*
X008551Y003924D01*
X008517Y003958D01*
X008517Y004091D01*
X008732Y004125D02*
X008798Y004125D01*
X008765Y004125D02*
X008765Y003924D01*
X008798Y003924D02*
X008732Y003924D01*
X008732Y003765D02*
X008798Y003765D01*
X008765Y003765D02*
X008765Y003564D01*
X008798Y003564D02*
X008732Y003564D01*
X008651Y003598D02*
X008618Y003564D01*
X008551Y003564D01*
X008517Y003598D01*
X008517Y003731D01*
X008551Y003765D01*
X008618Y003765D01*
X008651Y003731D01*
X008651Y003598D01*
X008430Y003564D02*
X008297Y003564D01*
X008363Y003564D02*
X008363Y003765D01*
X008430Y003698D01*
X008209Y003698D02*
X008142Y003765D01*
X008142Y003564D01*
X008076Y003564D02*
X008209Y003564D01*
X008404Y004284D02*
X008370Y004318D01*
X008370Y004451D01*
X008404Y004485D01*
X008470Y004485D01*
X008504Y004451D01*
X008504Y004418D01*
X008470Y004384D01*
X008370Y004384D01*
X008404Y004284D02*
X008470Y004284D01*
X008504Y004318D01*
X008591Y004318D02*
X008591Y004451D01*
X008625Y004485D01*
X008691Y004485D01*
X008725Y004451D01*
X008725Y004318D01*
X008691Y004284D01*
X008625Y004284D01*
X008591Y004318D01*
X008805Y004284D02*
X008872Y004284D01*
X008839Y004284D02*
X008839Y004485D01*
X008872Y004485D02*
X008805Y004485D01*
X008805Y004644D02*
X008872Y004644D01*
X008839Y004644D02*
X008839Y004845D01*
X008872Y004845D02*
X008805Y004845D01*
X008725Y004811D02*
X008725Y004678D01*
X008691Y004644D01*
X008625Y004644D01*
X008591Y004678D01*
X008591Y004811D01*
X008625Y004845D01*
X008691Y004845D01*
X008725Y004811D01*
X008504Y004811D02*
X008470Y004845D01*
X008404Y004845D01*
X008370Y004811D01*
X008370Y004778D01*
X008404Y004744D01*
X008470Y004744D01*
X008504Y004778D01*
X008504Y004811D01*
X008470Y004744D02*
X008504Y004711D01*
X008504Y004678D01*
X008470Y004644D01*
X008404Y004644D01*
X008370Y004678D01*
X008370Y004711D01*
X008404Y004744D01*
X008625Y005364D02*
X008591Y005398D01*
X008591Y005431D01*
X008625Y005464D01*
X008658Y005464D01*
X008625Y005464D02*
X008591Y005498D01*
X008591Y005531D01*
X008625Y005565D01*
X008691Y005565D01*
X008725Y005531D01*
X008812Y005565D02*
X008879Y005565D01*
X008846Y005565D02*
X008846Y005398D01*
X008879Y005364D01*
X008912Y005364D01*
X008946Y005398D01*
X008725Y005398D02*
X008691Y005364D01*
X008625Y005364D01*
X009401Y004811D02*
X009435Y004845D01*
X009502Y004845D01*
X009535Y004811D01*
X009401Y004811D02*
X009401Y004778D01*
X009535Y004644D01*
X009401Y004644D01*
X009435Y004485D02*
X009401Y004451D01*
X009401Y004418D01*
X009435Y004384D01*
X009401Y004351D01*
X009401Y004318D01*
X009435Y004284D01*
X009502Y004284D01*
X009535Y004318D01*
X009622Y004284D02*
X009756Y004284D01*
X009689Y004284D02*
X009689Y004485D01*
X009756Y004418D01*
X009843Y004451D02*
X009877Y004485D01*
X009944Y004485D01*
X009977Y004451D01*
X009977Y004318D01*
X009944Y004284D01*
X009877Y004284D01*
X009843Y004318D01*
X009843Y004451D01*
X009877Y004644D02*
X009843Y004678D01*
X009843Y004811D01*
X009877Y004845D01*
X009944Y004845D01*
X009977Y004811D01*
X009977Y004678D01*
X009944Y004644D01*
X009877Y004644D01*
X009756Y004644D02*
X009622Y004644D01*
X009689Y004644D02*
X009689Y004845D01*
X009756Y004778D01*
X010057Y004845D02*
X010124Y004845D01*
X010091Y004845D02*
X010091Y004644D01*
X010124Y004644D02*
X010057Y004644D01*
X010057Y004485D02*
X010124Y004485D01*
X010091Y004485D02*
X010091Y004284D01*
X010124Y004284D02*
X010057Y004284D01*
X010051Y004125D02*
X009984Y004125D01*
X010017Y004125D02*
X010017Y003924D01*
X009984Y003924D02*
X010051Y003924D01*
X009903Y003958D02*
X009903Y004091D01*
X009870Y004125D01*
X009803Y004125D01*
X009770Y004091D01*
X009770Y003958D01*
X009803Y003924D01*
X009870Y003924D01*
X009903Y003958D01*
X009870Y003765D02*
X009903Y003731D01*
X009903Y003598D01*
X009870Y003564D01*
X009803Y003564D01*
X009770Y003598D01*
X009770Y003731D01*
X009803Y003765D01*
X009870Y003765D01*
X009984Y003765D02*
X010051Y003765D01*
X010017Y003765D02*
X010017Y003564D01*
X009984Y003564D02*
X010051Y003564D01*
X009682Y003564D02*
X009549Y003564D01*
X009615Y003564D02*
X009615Y003765D01*
X009682Y003698D01*
X009461Y003664D02*
X009461Y003765D01*
X009328Y003765D01*
X009361Y003698D02*
X009328Y003664D01*
X009328Y003598D01*
X009361Y003564D01*
X009428Y003564D01*
X009461Y003598D01*
X009461Y003664D02*
X009395Y003698D01*
X009361Y003698D01*
X009361Y003924D02*
X009361Y004125D01*
X009461Y004024D01*
X009328Y004024D01*
X009549Y003924D02*
X009682Y003924D01*
X009615Y003924D02*
X009615Y004125D01*
X009682Y004058D01*
X009468Y004384D02*
X009435Y004384D01*
X009435Y004485D02*
X009502Y004485D01*
X009535Y004451D01*
X010580Y004125D02*
X010713Y003924D01*
X010801Y003924D02*
X010868Y003991D01*
X010834Y003991D02*
X010934Y003991D01*
X010934Y003924D02*
X010934Y004125D01*
X010834Y004125D01*
X010801Y004091D01*
X010801Y004024D01*
X010834Y003991D01*
X010713Y004125D02*
X010580Y003924D01*
X010580Y003765D02*
X010713Y003564D01*
X010801Y003598D02*
X010801Y003731D01*
X010834Y003765D01*
X010934Y003765D01*
X010934Y003564D01*
X010834Y003564D01*
X010801Y003598D01*
X010713Y003765D02*
X010580Y003564D01*
X011022Y003564D02*
X011155Y003564D01*
X011155Y003765D01*
X011022Y003765D01*
X011089Y003664D02*
X011155Y003664D01*
X011243Y003564D02*
X011376Y003564D01*
X011376Y003765D01*
X011376Y003924D02*
X011376Y004125D01*
X011276Y004125D01*
X011243Y004091D01*
X011243Y004024D01*
X011276Y003991D01*
X011376Y003991D01*
X011155Y003924D02*
X011089Y003991D01*
X011022Y003924D01*
X011022Y004125D01*
X011155Y004125D02*
X011155Y003924D01*
X011155Y004284D02*
X011089Y004284D01*
X011122Y004284D02*
X011122Y004485D01*
X011155Y004485D02*
X011089Y004485D01*
X011008Y004451D02*
X011008Y004318D01*
X010975Y004284D01*
X010908Y004284D01*
X010875Y004318D01*
X010875Y004384D01*
X010941Y004384D01*
X010875Y004451D02*
X010908Y004485D01*
X010975Y004485D01*
X011008Y004451D01*
X010975Y004644D02*
X010908Y004644D01*
X010875Y004678D01*
X010875Y004744D01*
X010941Y004744D01*
X011008Y004811D02*
X011008Y004678D01*
X010975Y004644D01*
X011089Y004644D02*
X011155Y004644D01*
X011122Y004644D02*
X011122Y004845D01*
X011155Y004845D02*
X011089Y004845D01*
X011008Y004811D02*
X010975Y004845D01*
X010908Y004845D01*
X010875Y004811D01*
X010787Y004845D02*
X010654Y004644D01*
X010787Y004644D02*
X010654Y004845D01*
X010654Y004485D02*
X010654Y004451D01*
X010720Y004384D01*
X010720Y004284D01*
X010720Y004384D02*
X010787Y004451D01*
X010787Y004485D01*
X011243Y004451D02*
X011276Y004485D01*
X011343Y004485D01*
X011376Y004451D01*
X011376Y004418D01*
X011343Y004384D01*
X011276Y004384D01*
X011243Y004351D01*
X011243Y004318D01*
X011276Y004284D01*
X011343Y004284D01*
X011376Y004318D01*
X011343Y004644D02*
X011376Y004678D01*
X011343Y004644D02*
X011276Y004644D01*
X011243Y004678D01*
X011243Y004711D01*
X011276Y004744D01*
X011343Y004744D01*
X011376Y004778D01*
X011376Y004811D01*
X011343Y004845D01*
X011276Y004845D01*
X011243Y004811D01*
X011243Y005104D02*
X011376Y005104D01*
X010051Y005398D02*
X010017Y005364D01*
X009984Y005364D01*
X009950Y005398D01*
X009950Y005565D01*
X009917Y005565D02*
X009984Y005565D01*
X009830Y005464D02*
X009696Y005464D01*
X009729Y005364D02*
X009729Y005565D01*
X009830Y005464D01*
D16*
X016952Y001494D02*
X016954Y001533D01*
X016960Y001572D01*
X016970Y001610D01*
X016983Y001647D01*
X017000Y001682D01*
X017020Y001716D01*
X017044Y001747D01*
X017071Y001776D01*
X017100Y001802D01*
X017132Y001825D01*
X017166Y001845D01*
X017202Y001861D01*
X017239Y001873D01*
X017278Y001882D01*
X017317Y001887D01*
X017356Y001888D01*
X017395Y001885D01*
X017434Y001878D01*
X017471Y001867D01*
X017508Y001853D01*
X017543Y001835D01*
X017576Y001814D01*
X017607Y001789D01*
X017635Y001762D01*
X017660Y001732D01*
X017682Y001699D01*
X017701Y001665D01*
X017716Y001629D01*
X017728Y001591D01*
X017736Y001553D01*
X017740Y001514D01*
X017740Y001474D01*
X017736Y001435D01*
X017728Y001397D01*
X017716Y001359D01*
X017701Y001323D01*
X017682Y001289D01*
X017660Y001256D01*
X017635Y001226D01*
X017607Y001199D01*
X017576Y001174D01*
X017543Y001153D01*
X017508Y001135D01*
X017471Y001121D01*
X017434Y001110D01*
X017395Y001103D01*
X017356Y001100D01*
X017317Y001101D01*
X017278Y001106D01*
X017239Y001115D01*
X017202Y001127D01*
X017166Y001143D01*
X017132Y001163D01*
X017100Y001186D01*
X017071Y001212D01*
X017044Y001241D01*
X017020Y001272D01*
X017000Y001306D01*
X016983Y001341D01*
X016970Y001378D01*
X016960Y001416D01*
X016954Y001455D01*
X016952Y001494D01*
X016952Y011994D02*
X016954Y012033D01*
X016960Y012072D01*
X016970Y012110D01*
X016983Y012147D01*
X017000Y012182D01*
X017020Y012216D01*
X017044Y012247D01*
X017071Y012276D01*
X017100Y012302D01*
X017132Y012325D01*
X017166Y012345D01*
X017202Y012361D01*
X017239Y012373D01*
X017278Y012382D01*
X017317Y012387D01*
X017356Y012388D01*
X017395Y012385D01*
X017434Y012378D01*
X017471Y012367D01*
X017508Y012353D01*
X017543Y012335D01*
X017576Y012314D01*
X017607Y012289D01*
X017635Y012262D01*
X017660Y012232D01*
X017682Y012199D01*
X017701Y012165D01*
X017716Y012129D01*
X017728Y012091D01*
X017736Y012053D01*
X017740Y012014D01*
X017740Y011974D01*
X017736Y011935D01*
X017728Y011897D01*
X017716Y011859D01*
X017701Y011823D01*
X017682Y011789D01*
X017660Y011756D01*
X017635Y011726D01*
X017607Y011699D01*
X017576Y011674D01*
X017543Y011653D01*
X017508Y011635D01*
X017471Y011621D01*
X017434Y011610D01*
X017395Y011603D01*
X017356Y011600D01*
X017317Y011601D01*
X017278Y011606D01*
X017239Y011615D01*
X017202Y011627D01*
X017166Y011643D01*
X017132Y011663D01*
X017100Y011686D01*
X017071Y011712D01*
X017044Y011741D01*
X017020Y011772D01*
X017000Y011806D01*
X016983Y011841D01*
X016970Y011878D01*
X016960Y011916D01*
X016954Y011955D01*
X016952Y011994D01*
X000952Y011994D02*
X000954Y012033D01*
X000960Y012072D01*
X000970Y012110D01*
X000983Y012147D01*
X001000Y012182D01*
X001020Y012216D01*
X001044Y012247D01*
X001071Y012276D01*
X001100Y012302D01*
X001132Y012325D01*
X001166Y012345D01*
X001202Y012361D01*
X001239Y012373D01*
X001278Y012382D01*
X001317Y012387D01*
X001356Y012388D01*
X001395Y012385D01*
X001434Y012378D01*
X001471Y012367D01*
X001508Y012353D01*
X001543Y012335D01*
X001576Y012314D01*
X001607Y012289D01*
X001635Y012262D01*
X001660Y012232D01*
X001682Y012199D01*
X001701Y012165D01*
X001716Y012129D01*
X001728Y012091D01*
X001736Y012053D01*
X001740Y012014D01*
X001740Y011974D01*
X001736Y011935D01*
X001728Y011897D01*
X001716Y011859D01*
X001701Y011823D01*
X001682Y011789D01*
X001660Y011756D01*
X001635Y011726D01*
X001607Y011699D01*
X001576Y011674D01*
X001543Y011653D01*
X001508Y011635D01*
X001471Y011621D01*
X001434Y011610D01*
X001395Y011603D01*
X001356Y011600D01*
X001317Y011601D01*
X001278Y011606D01*
X001239Y011615D01*
X001202Y011627D01*
X001166Y011643D01*
X001132Y011663D01*
X001100Y011686D01*
X001071Y011712D01*
X001044Y011741D01*
X001020Y011772D01*
X001000Y011806D01*
X000983Y011841D01*
X000970Y011878D01*
X000960Y011916D01*
X000954Y011955D01*
X000952Y011994D01*
X000952Y001494D02*
X000954Y001533D01*
X000960Y001572D01*
X000970Y001610D01*
X000983Y001647D01*
X001000Y001682D01*
X001020Y001716D01*
X001044Y001747D01*
X001071Y001776D01*
X001100Y001802D01*
X001132Y001825D01*
X001166Y001845D01*
X001202Y001861D01*
X001239Y001873D01*
X001278Y001882D01*
X001317Y001887D01*
X001356Y001888D01*
X001395Y001885D01*
X001434Y001878D01*
X001471Y001867D01*
X001508Y001853D01*
X001543Y001835D01*
X001576Y001814D01*
X001607Y001789D01*
X001635Y001762D01*
X001660Y001732D01*
X001682Y001699D01*
X001701Y001665D01*
X001716Y001629D01*
X001728Y001591D01*
X001736Y001553D01*
X001740Y001514D01*
X001740Y001474D01*
X001736Y001435D01*
X001728Y001397D01*
X001716Y001359D01*
X001701Y001323D01*
X001682Y001289D01*
X001660Y001256D01*
X001635Y001226D01*
X001607Y001199D01*
X001576Y001174D01*
X001543Y001153D01*
X001508Y001135D01*
X001471Y001121D01*
X001434Y001110D01*
X001395Y001103D01*
X001356Y001100D01*
X001317Y001101D01*
X001278Y001106D01*
X001239Y001115D01*
X001202Y001127D01*
X001166Y001143D01*
X001132Y001163D01*
X001100Y001186D01*
X001071Y001212D01*
X001044Y001241D01*
X001020Y001272D01*
X001000Y001306D01*
X000983Y001341D01*
X000970Y001378D01*
X000960Y001416D01*
X000954Y001455D01*
X000952Y001494D01*
D17*
X012496Y005964D03*
X012746Y006214D03*
X012996Y006464D03*
X013336Y007324D03*
X012746Y007474D03*
X013086Y008334D03*
X013026Y008664D03*
X013576Y008824D03*
X013026Y009424D03*
D18*
X013026Y009414D03*
X013576Y008814D03*
X013026Y008674D03*
X013086Y008324D03*
X012746Y007464D03*
X013336Y007334D03*
X012996Y006474D03*
X012746Y006224D03*
X012496Y005974D03*
X009626Y007844D03*
X010386Y008254D03*
X011516Y008554D03*
D19*
X011276Y008254D03*
X011976Y008344D03*
X011976Y008354D03*
X012696Y007794D03*
X012746Y007454D03*
X013336Y007344D03*
X013376Y006994D03*
X013376Y006694D03*
X012996Y006484D03*
X012746Y006234D03*
X012496Y005984D03*
X010146Y008254D03*
X009636Y007824D03*
X009646Y007804D03*
X007086Y007844D03*
X007086Y007854D03*
X007086Y007864D03*
X007086Y007874D03*
X007086Y007884D03*
X007086Y008244D03*
X007086Y008254D03*
X007086Y008264D03*
X007086Y008274D03*
X013026Y008684D03*
X013086Y008314D03*
X013576Y008804D03*
X013416Y009194D03*
X013026Y009404D03*
D20*
X013026Y009394D03*
X013026Y008694D03*
X013086Y008304D03*
X013576Y008794D03*
X013086Y007604D03*
X013336Y007354D03*
X012996Y007194D03*
X012746Y007444D03*
X011936Y007634D03*
X011986Y008304D03*
X011986Y008314D03*
X010786Y008234D03*
X009646Y007784D03*
X009066Y007784D03*
X009066Y007774D03*
X009066Y007764D03*
X009066Y007754D03*
X009066Y007794D03*
X009066Y007804D03*
X009066Y007814D03*
X009066Y007824D03*
X008636Y008314D03*
X008636Y008324D03*
X008636Y008334D03*
X008636Y008344D03*
X008636Y008354D03*
X008636Y008364D03*
X007096Y008364D03*
X007096Y008354D03*
X007096Y008344D03*
X007096Y008374D03*
X007096Y007784D03*
X007096Y007774D03*
X007096Y007764D03*
X007096Y007754D03*
X007096Y007744D03*
X012496Y005994D03*
X012746Y006244D03*
X012996Y006494D03*
D21*
X012996Y006504D03*
X012746Y006254D03*
X012496Y006004D03*
X013376Y006704D03*
X013376Y006984D03*
X013336Y007364D03*
X013086Y007614D03*
X012746Y007434D03*
X012996Y007184D03*
X011996Y008264D03*
X011996Y008274D03*
X011546Y008534D03*
X010416Y008234D03*
X009706Y007644D03*
X009696Y007654D03*
X009356Y007474D03*
X008646Y008384D03*
X008126Y008254D03*
X008136Y007634D03*
X007106Y007724D03*
X013576Y008784D03*
D22*
X013576Y008774D03*
X013086Y007624D03*
X012006Y007784D03*
X012006Y007794D03*
X012006Y007804D03*
X012006Y007814D03*
X012006Y007824D03*
X012006Y007834D03*
X012006Y007844D03*
X012006Y007854D03*
X012006Y007864D03*
X012006Y007874D03*
X012006Y007884D03*
X012006Y007894D03*
X012006Y007904D03*
X012006Y007914D03*
X012006Y007924D03*
X012006Y007934D03*
X012006Y007944D03*
X012006Y007954D03*
X012006Y007964D03*
X012006Y007974D03*
X012006Y007984D03*
X012006Y007994D03*
X012006Y008004D03*
X012006Y008014D03*
X012006Y008024D03*
X012006Y008034D03*
X012006Y008044D03*
X012006Y008054D03*
X012006Y008064D03*
X012006Y008074D03*
X012006Y008084D03*
X012006Y008094D03*
X012006Y008104D03*
X012006Y008114D03*
X012006Y008124D03*
X012006Y008134D03*
X012006Y008144D03*
X011556Y008124D03*
X011556Y008114D03*
X011556Y008104D03*
X011556Y008094D03*
X011556Y008084D03*
X011556Y008074D03*
X011556Y008064D03*
X011556Y008054D03*
X011556Y008044D03*
X011556Y008034D03*
X011556Y008024D03*
X011556Y008014D03*
X011556Y008004D03*
X011556Y007994D03*
X011556Y007984D03*
X011556Y007974D03*
X011556Y007964D03*
X011556Y007954D03*
X011556Y007944D03*
X011556Y007934D03*
X011556Y007924D03*
X011556Y007914D03*
X011556Y007904D03*
X011556Y007894D03*
X011556Y007884D03*
X011556Y007874D03*
X011556Y007864D03*
X011556Y007854D03*
X011556Y007844D03*
X011556Y007834D03*
X011556Y007824D03*
X011556Y007814D03*
X011556Y007804D03*
X011556Y007794D03*
X011556Y007784D03*
X011556Y007774D03*
X011556Y007764D03*
X011556Y007754D03*
X011556Y007744D03*
X011556Y007734D03*
X011556Y007724D03*
X011556Y007714D03*
X011186Y007714D03*
X011186Y007724D03*
X011186Y007734D03*
X011186Y007744D03*
X011186Y007754D03*
X011186Y007764D03*
X011186Y007774D03*
X011186Y007784D03*
X011186Y007794D03*
X011186Y007804D03*
X011186Y007814D03*
X011186Y007824D03*
X011186Y007834D03*
X011186Y007844D03*
X011186Y007854D03*
X011186Y007864D03*
X011186Y007874D03*
X011186Y007884D03*
X011186Y007894D03*
X011186Y007904D03*
X011186Y007914D03*
X011186Y007924D03*
X011186Y007934D03*
X011186Y007944D03*
X011186Y007954D03*
X011186Y007964D03*
X011186Y007974D03*
X011186Y007984D03*
X011186Y007994D03*
X011186Y008004D03*
X011186Y008014D03*
X011186Y008024D03*
X011186Y008034D03*
X011186Y008044D03*
X011186Y008054D03*
X011186Y008064D03*
X011276Y008244D03*
X011556Y008244D03*
X011556Y008234D03*
X011556Y008224D03*
X011556Y008214D03*
X011556Y008204D03*
X011556Y008194D03*
X011556Y008254D03*
X011556Y008264D03*
X011556Y008274D03*
X011556Y008284D03*
X011556Y008294D03*
X011556Y008304D03*
X011556Y008314D03*
X011556Y008324D03*
X011556Y008334D03*
X011556Y008344D03*
X011556Y008354D03*
X011556Y008364D03*
X011556Y008374D03*
X011556Y008384D03*
X011556Y008394D03*
X011556Y008404D03*
X011556Y008414D03*
X011556Y008424D03*
X011556Y008434D03*
X011556Y008444D03*
X010806Y008144D03*
X010806Y008134D03*
X010806Y008124D03*
X010806Y008114D03*
X010806Y008104D03*
X010806Y008094D03*
X010806Y008084D03*
X010806Y008074D03*
X010806Y008064D03*
X010806Y008054D03*
X010806Y008044D03*
X010806Y008034D03*
X010806Y008024D03*
X010806Y008014D03*
X010806Y008004D03*
X010806Y007994D03*
X010806Y007984D03*
X010806Y007974D03*
X010806Y007964D03*
X010806Y007954D03*
X010806Y007944D03*
X010806Y007934D03*
X010806Y007924D03*
X010806Y007914D03*
X010806Y007904D03*
X010806Y007894D03*
X010806Y007884D03*
X010806Y007874D03*
X010806Y007864D03*
X010806Y007854D03*
X010806Y007844D03*
X010806Y007834D03*
X010806Y007824D03*
X010806Y007814D03*
X010806Y007804D03*
X010806Y007794D03*
X010806Y007784D03*
X010806Y007774D03*
X010806Y007764D03*
X010806Y007754D03*
X010806Y007744D03*
X010806Y007734D03*
X010806Y007724D03*
X010806Y007714D03*
X010426Y007714D03*
X010426Y007724D03*
X010426Y007734D03*
X010426Y007744D03*
X010426Y007754D03*
X010426Y007764D03*
X010426Y007774D03*
X010426Y007784D03*
X010426Y007794D03*
X010426Y007804D03*
X010426Y007814D03*
X010426Y007824D03*
X010426Y007834D03*
X010426Y007844D03*
X010426Y007854D03*
X010426Y007864D03*
X010426Y007874D03*
X010426Y007884D03*
X010426Y007894D03*
X010426Y007904D03*
X010426Y007914D03*
X010426Y007924D03*
X010426Y007934D03*
X010426Y007944D03*
X010426Y007954D03*
X010426Y007964D03*
X010426Y007974D03*
X010426Y007984D03*
X010426Y007994D03*
X010426Y008004D03*
X010426Y008014D03*
X010426Y008024D03*
X010426Y008034D03*
X010426Y008044D03*
X010426Y008054D03*
X010426Y008064D03*
X010426Y008074D03*
X010426Y008084D03*
X010426Y008094D03*
X010426Y008104D03*
X010426Y008114D03*
X010426Y008124D03*
X010146Y008244D03*
X010056Y008064D03*
X010056Y008054D03*
X010056Y008044D03*
X010056Y008034D03*
X010056Y008024D03*
X010056Y008014D03*
X010056Y008004D03*
X010056Y007994D03*
X010056Y007984D03*
X010056Y007974D03*
X010056Y007964D03*
X010056Y007954D03*
X010056Y007944D03*
X010056Y007934D03*
X010056Y007924D03*
X010056Y007914D03*
X010056Y007904D03*
X010056Y007894D03*
X010056Y007884D03*
X010056Y007874D03*
X010056Y007864D03*
X010056Y007854D03*
X010056Y007844D03*
X010056Y007834D03*
X010056Y007824D03*
X010056Y007814D03*
X010056Y007804D03*
X010056Y007794D03*
X010056Y007784D03*
X010056Y007774D03*
X010056Y007764D03*
X010056Y007754D03*
X010056Y007744D03*
X010056Y007734D03*
X010056Y007724D03*
X010056Y007714D03*
X009736Y007604D03*
X009736Y007594D03*
X009746Y007574D03*
X009746Y007564D03*
X009746Y007554D03*
X009746Y007544D03*
X009746Y007534D03*
X009636Y007764D03*
X009426Y007924D03*
X009416Y007934D03*
X009406Y007944D03*
X009396Y007964D03*
X009386Y007984D03*
X009386Y007994D03*
X009386Y008004D03*
X009376Y008014D03*
X009376Y008024D03*
X009376Y008034D03*
X009376Y008044D03*
X009376Y008054D03*
X009376Y008064D03*
X009376Y008074D03*
X009376Y008084D03*
X009376Y008094D03*
X009386Y008114D03*
X009386Y008124D03*
X009396Y008144D03*
X009686Y008164D03*
X009696Y008154D03*
X009706Y008134D03*
X009706Y008124D03*
X009716Y008104D03*
X009716Y008094D03*
X009316Y007574D03*
X009316Y007564D03*
X009316Y007554D03*
X008886Y007634D03*
X008666Y007774D03*
X008306Y008134D03*
X008996Y008354D03*
X009006Y008344D03*
X009006Y008334D03*
X009016Y008314D03*
X009016Y008304D03*
X009016Y008294D03*
X007286Y008484D03*
X007286Y007634D03*
X012496Y006014D03*
D23*
X012496Y006024D03*
X013376Y006714D03*
X013376Y006974D03*
X013086Y007634D03*
X012696Y007814D03*
X011996Y007754D03*
X011996Y007744D03*
X011556Y007704D03*
X011186Y007704D03*
X010806Y007704D03*
X010426Y007704D03*
X010056Y007704D03*
X009726Y007484D03*
X009326Y007604D03*
X009676Y007924D03*
X009716Y008004D03*
X009656Y008194D03*
X010066Y008114D03*
X010066Y008104D03*
X010076Y008124D03*
X010416Y008134D03*
X010816Y008214D03*
X011196Y008104D03*
X011206Y008124D03*
X011546Y008134D03*
X012786Y008484D03*
X013326Y008514D03*
X013576Y008764D03*
X013416Y009174D03*
X009016Y008244D03*
X009016Y008234D03*
X008956Y008394D03*
X008666Y008404D03*
X008336Y008074D03*
X008346Y008044D03*
X008346Y008034D03*
X008346Y008024D03*
X008356Y008004D03*
X008356Y007994D03*
X008356Y007984D03*
X008356Y007974D03*
X008356Y007964D03*
X008356Y007954D03*
X008356Y007944D03*
X008356Y007934D03*
X008356Y007924D03*
X008356Y007914D03*
X008356Y007904D03*
X008356Y007894D03*
X008356Y007884D03*
X008346Y007864D03*
X008346Y007854D03*
X008346Y007844D03*
X008336Y007814D03*
X008326Y007784D03*
X008276Y007714D03*
X007926Y007814D03*
X007916Y007844D03*
X007916Y007854D03*
X007916Y007864D03*
X007906Y007884D03*
X007906Y007894D03*
X007906Y007904D03*
X007906Y007914D03*
X007906Y007924D03*
X007906Y007934D03*
X007906Y007944D03*
X007906Y007954D03*
X007906Y007964D03*
X007906Y007974D03*
X007906Y007984D03*
X007906Y007994D03*
X007906Y008004D03*
X007916Y008024D03*
X007916Y008034D03*
X007916Y008044D03*
X007926Y008074D03*
X007626Y008134D03*
X007616Y008184D03*
X007606Y008214D03*
X007596Y008244D03*
X007586Y008264D03*
X007576Y008284D03*
X007626Y007984D03*
X007616Y007934D03*
X007606Y007904D03*
X007596Y007874D03*
X007586Y007854D03*
X008646Y007854D03*
X008646Y007844D03*
X008646Y007834D03*
X008686Y007744D03*
X008696Y007734D03*
D24*
X008656Y007894D03*
X008996Y008194D03*
X009006Y008204D03*
X009006Y008214D03*
X009336Y007614D03*
X010086Y008134D03*
X010446Y008214D03*
X011216Y008134D03*
X011576Y008514D03*
X011926Y007644D03*
X012786Y008494D03*
X013076Y008254D03*
X013326Y008504D03*
X013576Y008754D03*
X012786Y009594D03*
X012496Y006034D03*
X007546Y007794D03*
X007526Y007774D03*
X007516Y007764D03*
X007506Y007754D03*
X007506Y008364D03*
X007496Y008374D03*
D25*
X007466Y008394D03*
X007476Y007734D03*
X008136Y007644D03*
X008666Y007914D03*
X008676Y007924D03*
X008736Y007714D03*
X008986Y008184D03*
X009546Y008244D03*
X009556Y007864D03*
X009346Y007624D03*
X010096Y008144D03*
X010396Y008144D03*
X010456Y008204D03*
X011226Y008144D03*
X011976Y007724D03*
X012696Y007824D03*
X013076Y007664D03*
X013146Y007844D03*
X013146Y007854D03*
X013146Y007864D03*
X013156Y007884D03*
X013156Y007894D03*
X013156Y007904D03*
X013156Y007914D03*
X013166Y007934D03*
X013166Y007964D03*
X013166Y007974D03*
X013156Y007984D03*
X013156Y007994D03*
X013156Y008004D03*
X013156Y008014D03*
X013146Y008034D03*
X013146Y008044D03*
X013146Y008054D03*
X013146Y008064D03*
X013076Y008244D03*
X013326Y008494D03*
X013576Y008744D03*
X013416Y008924D03*
X013416Y009164D03*
X013036Y009334D03*
X012966Y009154D03*
X012966Y009144D03*
X012966Y009134D03*
X012966Y009124D03*
X012966Y009114D03*
X012956Y009094D03*
X012956Y009084D03*
X012956Y009074D03*
X012956Y009064D03*
X012956Y009054D03*
X012956Y009044D03*
X012956Y009034D03*
X012956Y009024D03*
X012956Y009014D03*
X012956Y009004D03*
X012956Y008994D03*
X012966Y008974D03*
X012966Y008964D03*
X012966Y008954D03*
X012966Y008944D03*
X012966Y008934D03*
X013036Y008754D03*
X012786Y008504D03*
X012636Y008834D03*
X012626Y008854D03*
X012626Y008864D03*
X012626Y008874D03*
X012626Y008884D03*
X012616Y008904D03*
X012616Y008914D03*
X012616Y008924D03*
X012616Y008934D03*
X012616Y008944D03*
X012606Y008964D03*
X012606Y008974D03*
X012606Y008984D03*
X012606Y008994D03*
X012606Y009004D03*
X012606Y009014D03*
X012606Y009024D03*
X012606Y009034D03*
X012606Y009044D03*
X012606Y009054D03*
X012606Y009064D03*
X012606Y009074D03*
X012606Y009084D03*
X012606Y009094D03*
X012606Y009104D03*
X012606Y009114D03*
X012606Y009124D03*
X012616Y009144D03*
X012616Y009154D03*
X012616Y009164D03*
X012616Y009174D03*
X012616Y009184D03*
X012626Y009214D03*
X012626Y009224D03*
X012626Y009234D03*
X012636Y009254D03*
X012276Y009234D03*
X012276Y009224D03*
X012276Y009214D03*
X012276Y009204D03*
X012276Y009194D03*
X012276Y009184D03*
X012276Y009174D03*
X012266Y009144D03*
X012266Y009134D03*
X012266Y009124D03*
X012266Y009114D03*
X012266Y009104D03*
X012266Y009094D03*
X012266Y009084D03*
X012266Y009074D03*
X012266Y009064D03*
X012266Y009054D03*
X012266Y009044D03*
X012266Y009034D03*
X012266Y009024D03*
X012266Y009014D03*
X012266Y009004D03*
X012266Y008994D03*
X012266Y008984D03*
X012266Y008974D03*
X012266Y008964D03*
X012266Y008954D03*
X012266Y008944D03*
X012266Y008934D03*
X012276Y008874D03*
X012276Y008864D03*
X012276Y008854D03*
X012276Y008844D03*
X012786Y009584D03*
X013486Y008144D03*
X013486Y008134D03*
X013496Y008094D03*
X013496Y008084D03*
X013506Y008034D03*
X013506Y008024D03*
X013506Y008014D03*
X013506Y008004D03*
X013506Y007994D03*
X013506Y007984D03*
X013506Y007974D03*
X013506Y007964D03*
X013506Y007954D03*
X013506Y007944D03*
X013506Y007934D03*
X013506Y007924D03*
X013506Y007914D03*
X013506Y007904D03*
X013506Y007894D03*
X013506Y007884D03*
X013506Y007874D03*
X013506Y007864D03*
X013496Y007814D03*
X013496Y007804D03*
X013486Y007764D03*
X013486Y007754D03*
X013826Y007684D03*
X013836Y007734D03*
X013836Y007744D03*
X013846Y007764D03*
X013846Y007774D03*
X013846Y007784D03*
X013856Y007844D03*
X013856Y007854D03*
X013856Y007864D03*
X013856Y007874D03*
X013856Y007884D03*
X013856Y007894D03*
X013856Y007904D03*
X013856Y007914D03*
X013856Y007924D03*
X013856Y007934D03*
X013856Y007944D03*
X013856Y007954D03*
X013856Y007964D03*
X013856Y007974D03*
X013856Y007984D03*
X013856Y007994D03*
X013856Y008004D03*
X013856Y008014D03*
X013856Y008024D03*
X013856Y008034D03*
X013856Y008044D03*
X013856Y008054D03*
X013846Y008084D03*
X013846Y008094D03*
X013846Y008104D03*
X013846Y008114D03*
X013846Y008124D03*
X013846Y008134D03*
X013836Y008154D03*
X013836Y008164D03*
X013826Y008214D03*
X012596Y007044D03*
X012586Y007004D03*
X012586Y006994D03*
X012586Y006984D03*
X012576Y006944D03*
X012576Y006934D03*
X012576Y006924D03*
X012576Y006764D03*
X012576Y006754D03*
X012586Y006724D03*
X012586Y006714D03*
X012586Y006704D03*
X012586Y006694D03*
X012586Y006684D03*
X012596Y006654D03*
X012596Y006644D03*
X012936Y006724D03*
X012936Y006734D03*
X012926Y006764D03*
X012926Y006774D03*
X012926Y006784D03*
X012916Y006804D03*
X012916Y006814D03*
X012916Y006824D03*
X012916Y006834D03*
X012916Y006844D03*
X012916Y006854D03*
X012916Y006864D03*
X012916Y006874D03*
X012916Y006884D03*
X012926Y006914D03*
X012926Y006924D03*
X012936Y006954D03*
X012936Y006964D03*
X013376Y006964D03*
X013376Y006724D03*
X012496Y006044D03*
X012236Y006644D03*
X012236Y007034D03*
X012236Y007044D03*
X008126Y008244D03*
D26*
X008686Y007944D03*
X009366Y007634D03*
X010156Y008224D03*
X010466Y008194D03*
X010846Y008194D03*
X010846Y008184D03*
X010846Y008174D03*
X010846Y008164D03*
X010846Y008154D03*
X011286Y008224D03*
X012326Y008654D03*
X012326Y008664D03*
X012326Y008674D03*
X012316Y008684D03*
X012316Y008694D03*
X012316Y008704D03*
X012306Y008734D03*
X012286Y008804D03*
X012286Y008814D03*
X012336Y008644D03*
X012336Y008634D03*
X012346Y008624D03*
X012346Y008614D03*
X012346Y008604D03*
X012356Y008594D03*
X012356Y008584D03*
X012366Y008564D03*
X012676Y008714D03*
X012676Y008724D03*
X012686Y008704D03*
X012686Y008694D03*
X012696Y008684D03*
X012706Y008664D03*
X012666Y008744D03*
X012656Y008764D03*
X012786Y008514D03*
X013076Y008224D03*
X013106Y008154D03*
X013116Y008144D03*
X013116Y008134D03*
X013126Y008114D03*
X013446Y008244D03*
X013446Y008254D03*
X013446Y008264D03*
X013436Y008274D03*
X013426Y008294D03*
X013406Y008334D03*
X013456Y008234D03*
X013456Y008224D03*
X013466Y008204D03*
X013476Y008174D03*
X013816Y008254D03*
X013796Y008314D03*
X013786Y008344D03*
X013786Y008354D03*
X013776Y008364D03*
X013776Y008374D03*
X013766Y008394D03*
X013766Y008404D03*
X013756Y008414D03*
X013756Y008424D03*
X013746Y008434D03*
X013716Y008494D03*
X013576Y008734D03*
X013416Y008934D03*
X013416Y009154D03*
X013016Y009264D03*
X013006Y009244D03*
X012996Y009224D03*
X012986Y009204D03*
X012986Y008884D03*
X012996Y008864D03*
X013006Y008844D03*
X013326Y008484D03*
X012696Y007834D03*
X013076Y007674D03*
X013116Y007764D03*
X013126Y007784D03*
X013446Y007654D03*
X013446Y007644D03*
X013436Y007624D03*
X013426Y007604D03*
X013416Y007574D03*
X013456Y007664D03*
X013456Y007674D03*
X013466Y007694D03*
X013796Y007584D03*
X013796Y007574D03*
X013786Y007554D03*
X013786Y007544D03*
X013776Y007534D03*
X013776Y007524D03*
X013766Y007504D03*
X013766Y007494D03*
X013756Y007484D03*
X013756Y007474D03*
X013746Y007464D03*
X013716Y007404D03*
X013576Y007174D03*
X013376Y006954D03*
X013376Y006734D03*
X013006Y006564D03*
X012986Y006614D03*
X012966Y006654D03*
X012956Y006674D03*
X012626Y006564D03*
X012626Y006554D03*
X012636Y006534D03*
X012636Y006524D03*
X012646Y006514D03*
X012646Y006504D03*
X012656Y006494D03*
X012666Y006474D03*
X012676Y006454D03*
X012756Y006314D03*
X012496Y006054D03*
X012306Y006404D03*
X012286Y006454D03*
X012276Y006474D03*
X012276Y006484D03*
X012276Y006494D03*
X012266Y006514D03*
X012266Y006524D03*
X012266Y006534D03*
X012256Y006544D03*
X012256Y006554D03*
X012246Y006584D03*
X012246Y006594D03*
X012226Y006684D03*
X012226Y006694D03*
X012226Y006704D03*
X012226Y006714D03*
X012616Y007104D03*
X012626Y007134D03*
X012636Y007154D03*
X012636Y007164D03*
X012646Y007174D03*
X012646Y007184D03*
X012656Y007194D03*
X012656Y007204D03*
X012666Y007214D03*
X012666Y007224D03*
X012676Y007234D03*
X012756Y007374D03*
X013006Y007124D03*
X012986Y007074D03*
X012976Y007054D03*
X012966Y007034D03*
X012956Y007014D03*
X013326Y007424D03*
X012326Y007324D03*
X012316Y007304D03*
X012306Y007294D03*
X012306Y007284D03*
X012306Y007274D03*
X012296Y007254D03*
X012286Y007234D03*
X012276Y007204D03*
X012276Y007194D03*
X012266Y007164D03*
X012256Y007144D03*
X012256Y007134D03*
X012286Y009264D03*
X012286Y009274D03*
X012286Y009284D03*
X012296Y009314D03*
X012306Y009344D03*
X012306Y009354D03*
X012306Y009364D03*
X012316Y009374D03*
X012316Y009384D03*
X012316Y009394D03*
X012326Y009404D03*
X012326Y009414D03*
X012336Y009434D03*
X012336Y009444D03*
X012346Y009474D03*
X012356Y009494D03*
X012676Y009374D03*
X012676Y009364D03*
X012666Y009344D03*
X012666Y009334D03*
X012686Y009384D03*
X012686Y009394D03*
X012696Y009404D03*
X012706Y009424D03*
X012786Y009574D03*
D27*
X012791Y009564D03*
X012731Y009474D03*
X012731Y009464D03*
X012721Y009454D03*
X012721Y009444D03*
X012711Y009434D03*
X012701Y009414D03*
X012391Y009564D03*
X012381Y009544D03*
X012371Y009524D03*
X012361Y009514D03*
X012361Y009504D03*
X012351Y009484D03*
X012341Y009464D03*
X012341Y009454D03*
X012401Y009584D03*
X012541Y009824D03*
X013041Y009314D03*
X013041Y009304D03*
X013021Y009274D03*
X013011Y009254D03*
X013011Y008834D03*
X013011Y008824D03*
X013021Y008814D03*
X013041Y008784D03*
X013041Y008774D03*
X012731Y008624D03*
X012731Y008614D03*
X012741Y008604D03*
X012721Y008634D03*
X012721Y008644D03*
X012711Y008654D03*
X012701Y008674D03*
X012791Y008524D03*
X012541Y008264D03*
X012411Y008484D03*
X012401Y008494D03*
X012401Y008504D03*
X012391Y008514D03*
X012391Y008524D03*
X012381Y008534D03*
X012381Y008544D03*
X012371Y008554D03*
X012361Y008574D03*
X012701Y008054D03*
X013091Y008184D03*
X013101Y008164D03*
X013411Y008324D03*
X013421Y008314D03*
X013421Y008304D03*
X013431Y008284D03*
X013401Y008344D03*
X013391Y008364D03*
X013701Y008524D03*
X013711Y008504D03*
X013721Y008484D03*
X013731Y008474D03*
X013731Y008464D03*
X013741Y008454D03*
X013741Y008444D03*
X013571Y008724D03*
X013111Y007754D03*
X013101Y007744D03*
X013101Y007734D03*
X013091Y007714D03*
X013071Y007684D03*
X013391Y007534D03*
X013401Y007554D03*
X013411Y007564D03*
X013421Y007584D03*
X013421Y007594D03*
X013431Y007614D03*
X013441Y007634D03*
X013741Y007454D03*
X013741Y007444D03*
X013731Y007434D03*
X013731Y007424D03*
X013721Y007414D03*
X013711Y007394D03*
X013701Y007384D03*
X012991Y007084D03*
X012981Y007064D03*
X012971Y007044D03*
X012681Y007244D03*
X012691Y007264D03*
X012361Y007384D03*
X012361Y007394D03*
X012351Y007374D03*
X012341Y007364D03*
X012341Y007354D03*
X012331Y007344D03*
X012331Y007334D03*
X012321Y007314D03*
X012301Y007264D03*
X012291Y007244D03*
X012501Y007624D03*
X011911Y007654D03*
X011601Y008454D03*
X011601Y008464D03*
X011601Y008474D03*
X011601Y008484D03*
X011601Y008494D03*
X009571Y007384D03*
X008691Y007954D03*
X008961Y008154D03*
X008801Y008474D03*
X007441Y008404D03*
X012281Y006464D03*
X012291Y006444D03*
X012291Y006434D03*
X012301Y006424D03*
X012301Y006414D03*
X012311Y006394D03*
X012311Y006384D03*
X012321Y006374D03*
X012321Y006364D03*
X012331Y006354D03*
X012331Y006344D03*
X012361Y006294D03*
X012681Y006444D03*
X012691Y006434D03*
X012691Y006424D03*
X012701Y006414D03*
X012671Y006464D03*
X012661Y006484D03*
X012971Y006644D03*
X012981Y006634D03*
X012981Y006624D03*
X012991Y006604D03*
X013001Y006594D03*
X013001Y006584D03*
X013001Y006574D03*
X012501Y006064D03*
D28*
X012501Y006074D03*
X012421Y006194D03*
X012411Y006214D03*
X012401Y006224D03*
X012391Y006234D03*
X012391Y006244D03*
X012381Y006254D03*
X012721Y006384D03*
X012731Y006374D03*
X012741Y006354D03*
X012751Y006344D03*
X012751Y006334D03*
X013381Y006754D03*
X013371Y006934D03*
X013581Y007194D03*
X013611Y007244D03*
X013621Y007254D03*
X013631Y007274D03*
X013641Y007284D03*
X013651Y007294D03*
X013681Y007344D03*
X013371Y007504D03*
X013361Y007494D03*
X013351Y007484D03*
X013331Y007454D03*
X013331Y007444D03*
X012751Y007354D03*
X012751Y007344D03*
X012741Y007334D03*
X012731Y007314D03*
X012721Y007304D03*
X012711Y007294D03*
X012421Y007484D03*
X012421Y007494D03*
X012431Y007504D03*
X012441Y007514D03*
X012461Y007544D03*
X012501Y007604D03*
X012411Y007474D03*
X012401Y007464D03*
X012391Y007444D03*
X012701Y007854D03*
X012701Y008044D03*
X012541Y008284D03*
X012511Y008334D03*
X012501Y008344D03*
X012481Y008374D03*
X012471Y008384D03*
X012451Y008414D03*
X012441Y008434D03*
X012761Y008574D03*
X012771Y008564D03*
X012781Y008554D03*
X012781Y008544D03*
X013331Y008454D03*
X013351Y008414D03*
X013361Y008404D03*
X013371Y008394D03*
X013631Y008624D03*
X013641Y008614D03*
X013651Y008604D03*
X013671Y008574D03*
X013621Y008644D03*
X013611Y008654D03*
X013581Y008704D03*
X013411Y009134D03*
X012781Y009534D03*
X012781Y009544D03*
X012771Y009524D03*
X012761Y009514D03*
X012451Y009664D03*
X012451Y009674D03*
X012461Y009684D03*
X012441Y009654D03*
X012431Y009634D03*
X012541Y009804D03*
X011291Y008214D03*
X010161Y008214D03*
X009541Y008234D03*
X008951Y008144D03*
X008891Y007644D03*
X007281Y008474D03*
D29*
X008126Y008234D03*
X008716Y007974D03*
X008936Y008134D03*
X009556Y007874D03*
X008136Y007654D03*
X007286Y007644D03*
X012446Y007524D03*
X012456Y007534D03*
X012466Y007554D03*
X012476Y007564D03*
X012486Y007574D03*
X012496Y007594D03*
X012696Y007864D03*
X012536Y008294D03*
X012526Y008314D03*
X012516Y008324D03*
X012496Y008354D03*
X012486Y008364D03*
X013336Y008434D03*
X013336Y008444D03*
X013346Y008424D03*
X013626Y008634D03*
X013606Y008664D03*
X013596Y008674D03*
X013586Y008684D03*
X013586Y008694D03*
X013416Y008954D03*
X013416Y008964D03*
X013416Y009124D03*
X012536Y009794D03*
X012506Y009744D03*
X012496Y009734D03*
X012486Y009714D03*
X012476Y009704D03*
X012466Y009694D03*
X013346Y007474D03*
X013336Y007464D03*
X013626Y007264D03*
X013606Y007234D03*
X013596Y007224D03*
X013586Y007214D03*
X013586Y007204D03*
X013376Y006924D03*
X013376Y006764D03*
X012736Y006364D03*
X012446Y006164D03*
X012436Y006174D03*
X012426Y006184D03*
X012416Y006204D03*
X012456Y006144D03*
X012466Y006134D03*
X012496Y006084D03*
X012736Y007324D03*
D30*
X012491Y007584D03*
X012701Y008024D03*
X012701Y008034D03*
X012531Y008304D03*
X012491Y009724D03*
X012511Y009754D03*
X012521Y009764D03*
X012531Y009774D03*
X012531Y009784D03*
X009571Y007744D03*
X009391Y007644D03*
X009331Y008154D03*
X008921Y008124D03*
X008731Y007984D03*
X012451Y006154D03*
X012471Y006124D03*
X012481Y006114D03*
X012491Y006104D03*
X012491Y006094D03*
D31*
X012751Y006264D03*
X013001Y006514D03*
X013001Y007174D03*
X012751Y007424D03*
X012501Y007674D03*
X012691Y007804D03*
X012541Y008214D03*
X012781Y008464D03*
X013081Y008284D03*
X013331Y008534D03*
X013031Y008714D03*
X013411Y008904D03*
X013411Y009184D03*
X013031Y009374D03*
X012781Y009624D03*
X012541Y009874D03*
X010801Y008494D03*
X010801Y008384D03*
X010801Y008224D03*
X009731Y007614D03*
X009721Y007624D03*
X009711Y007634D03*
X009741Y007584D03*
X009571Y007374D03*
X009381Y007454D03*
X009371Y007464D03*
X009351Y007484D03*
X009341Y007494D03*
X009331Y007504D03*
X009331Y007514D03*
X009321Y007524D03*
X009321Y007534D03*
X009321Y007544D03*
X009051Y007724D03*
X009401Y007954D03*
X009391Y007974D03*
X009381Y008104D03*
X009391Y008134D03*
X008811Y008484D03*
X008651Y008394D03*
X007111Y008394D03*
X012001Y008254D03*
X012001Y008244D03*
X013331Y007374D03*
X013581Y007124D03*
D32*
X013576Y007184D03*
X013656Y007304D03*
X013666Y007314D03*
X013666Y007324D03*
X013676Y007334D03*
X013686Y007354D03*
X013696Y007364D03*
X013696Y007374D03*
X013386Y007524D03*
X013376Y007514D03*
X013396Y007544D03*
X013326Y007434D03*
X013076Y007694D03*
X013086Y007704D03*
X013096Y007724D03*
X012696Y007844D03*
X012506Y007614D03*
X012396Y007454D03*
X012386Y007434D03*
X012376Y007424D03*
X012376Y007414D03*
X012366Y007404D03*
X012686Y007254D03*
X012696Y007274D03*
X012706Y007284D03*
X012756Y007364D03*
X013006Y007114D03*
X013006Y007104D03*
X012996Y007094D03*
X013376Y006944D03*
X013376Y006744D03*
X012716Y006394D03*
X012706Y006404D03*
X012756Y006324D03*
X012376Y006274D03*
X012376Y006264D03*
X012366Y006284D03*
X012356Y006304D03*
X012346Y006314D03*
X012346Y006324D03*
X012336Y006334D03*
X013096Y008174D03*
X013086Y008194D03*
X013076Y008204D03*
X013076Y008214D03*
X013376Y008384D03*
X013386Y008374D03*
X013396Y008354D03*
X013326Y008464D03*
X013326Y008474D03*
X013576Y008714D03*
X013656Y008594D03*
X013666Y008584D03*
X013676Y008564D03*
X013686Y008554D03*
X013686Y008544D03*
X013696Y008534D03*
X013706Y008514D03*
X013416Y008944D03*
X013416Y009144D03*
X013036Y009294D03*
X013026Y009284D03*
X012746Y009484D03*
X012746Y009494D03*
X012756Y009504D03*
X012786Y009554D03*
X012546Y009814D03*
X012436Y009644D03*
X012426Y009624D03*
X012416Y009614D03*
X012416Y009604D03*
X012406Y009594D03*
X012396Y009574D03*
X012386Y009554D03*
X012376Y009534D03*
X013026Y008804D03*
X013036Y008794D03*
X012756Y008584D03*
X012746Y008594D03*
X012786Y008534D03*
X012546Y008274D03*
X012466Y008394D03*
X012456Y008404D03*
X012446Y008424D03*
X012436Y008444D03*
X012426Y008454D03*
X012426Y008464D03*
X012416Y008474D03*
X008706Y007964D03*
X007436Y007714D03*
D33*
X007121Y007714D03*
X007911Y007874D03*
X007921Y007834D03*
X007921Y007824D03*
X007931Y007804D03*
X007931Y007794D03*
X007941Y007784D03*
X007941Y007774D03*
X007951Y007764D03*
X007951Y007754D03*
X007961Y007744D03*
X007971Y007734D03*
X007981Y007724D03*
X007991Y007714D03*
X008281Y007724D03*
X008291Y007734D03*
X008301Y007744D03*
X008311Y007754D03*
X008311Y007764D03*
X008321Y007774D03*
X008331Y007794D03*
X008331Y007804D03*
X008341Y007824D03*
X008341Y007834D03*
X008351Y007874D03*
X008351Y008014D03*
X008341Y008054D03*
X008341Y008064D03*
X008331Y008084D03*
X008331Y008094D03*
X008321Y008104D03*
X008321Y008114D03*
X008311Y008124D03*
X008301Y008144D03*
X008291Y008154D03*
X008281Y008164D03*
X008271Y008174D03*
X007981Y008164D03*
X007971Y008154D03*
X007961Y008144D03*
X007951Y008134D03*
X007951Y008124D03*
X007941Y008114D03*
X007941Y008104D03*
X007931Y008094D03*
X007931Y008084D03*
X007921Y008064D03*
X007921Y008054D03*
X007911Y008014D03*
X008651Y007824D03*
X008651Y007814D03*
X008651Y007804D03*
X008661Y007794D03*
X008661Y007784D03*
X008671Y007764D03*
X008681Y007754D03*
X009021Y008254D03*
X009021Y008264D03*
X009021Y008274D03*
X009021Y008284D03*
X009011Y008324D03*
X008991Y008364D03*
X008981Y008374D03*
X008971Y008384D03*
X009441Y007914D03*
X009571Y007854D03*
X009681Y007934D03*
X009691Y007944D03*
X009701Y007954D03*
X009701Y007964D03*
X009711Y007974D03*
X009711Y007984D03*
X009711Y007994D03*
X009721Y008014D03*
X009721Y008024D03*
X009721Y008034D03*
X009721Y008044D03*
X009721Y008054D03*
X009721Y008064D03*
X009721Y008074D03*
X009721Y008084D03*
X009711Y008114D03*
X009701Y008144D03*
X009681Y008174D03*
X009671Y008184D03*
X010061Y008094D03*
X010061Y008084D03*
X010061Y008074D03*
X010431Y008224D03*
X010801Y008394D03*
X010801Y008404D03*
X010801Y008474D03*
X010801Y008484D03*
X011201Y008114D03*
X011191Y008094D03*
X011191Y008084D03*
X011191Y008074D03*
X011561Y008524D03*
X012011Y008234D03*
X012001Y007774D03*
X012001Y007764D03*
X012501Y007664D03*
X012751Y007414D03*
X013001Y007164D03*
X013331Y007384D03*
X013581Y007134D03*
X013001Y006524D03*
X012751Y006274D03*
X012701Y008084D03*
X012541Y008224D03*
X012781Y008474D03*
X013081Y008274D03*
X013331Y008524D03*
X013031Y008724D03*
X013031Y009364D03*
X012781Y009614D03*
X012541Y009864D03*
X009741Y007524D03*
X009741Y007514D03*
X009741Y007504D03*
X009731Y007494D03*
X009401Y007444D03*
X009321Y007584D03*
X009321Y007594D03*
D34*
X009031Y007714D03*
X008711Y007724D03*
X008651Y007864D03*
X008651Y007874D03*
X008651Y007884D03*
X008251Y007704D03*
X008011Y007704D03*
X007601Y007884D03*
X007601Y007894D03*
X007611Y007914D03*
X007611Y007924D03*
X007621Y007944D03*
X007621Y007954D03*
X007621Y007964D03*
X007621Y007974D03*
X007631Y007994D03*
X007631Y008004D03*
X007631Y008014D03*
X007631Y008024D03*
X007631Y008034D03*
X007631Y008044D03*
X007631Y008054D03*
X007631Y008064D03*
X007631Y008074D03*
X007631Y008084D03*
X007631Y008094D03*
X007631Y008104D03*
X007631Y008114D03*
X007631Y008124D03*
X007621Y008144D03*
X007621Y008154D03*
X007621Y008164D03*
X007621Y008174D03*
X007611Y008194D03*
X007611Y008204D03*
X007601Y008224D03*
X007601Y008234D03*
X007591Y008254D03*
X007581Y008274D03*
X007571Y008294D03*
X007561Y008304D03*
X007561Y008314D03*
X007551Y008324D03*
X007541Y008334D03*
X007531Y008344D03*
X007521Y008354D03*
X007131Y008404D03*
X007591Y007864D03*
X007581Y007844D03*
X007571Y007834D03*
X007571Y007824D03*
X007561Y007814D03*
X007551Y007804D03*
X007541Y007784D03*
X007991Y008174D03*
X008011Y008184D03*
X008251Y008184D03*
X009011Y008224D03*
X009661Y007914D03*
X009721Y007474D03*
X009711Y007464D03*
X009701Y007454D03*
X010801Y008414D03*
X010801Y008424D03*
X010801Y008434D03*
X010801Y008444D03*
X010801Y008454D03*
X010801Y008464D03*
X012021Y008224D03*
X011991Y007734D03*
X012501Y007654D03*
X012751Y007404D03*
X013001Y007154D03*
X013331Y007394D03*
X013581Y007144D03*
X013081Y007644D03*
X012541Y008234D03*
X013081Y008264D03*
X013031Y008734D03*
X013411Y008914D03*
X013031Y009354D03*
X012781Y009604D03*
X012541Y009854D03*
X013001Y006534D03*
X012751Y006284D03*
D35*
X012751Y006294D03*
X013001Y006544D03*
X012931Y006744D03*
X012931Y006754D03*
X012931Y006934D03*
X012931Y006944D03*
X013001Y007144D03*
X012751Y007394D03*
X012501Y007644D03*
X012701Y008074D03*
X012541Y008244D03*
X013151Y008024D03*
X013161Y007954D03*
X013161Y007944D03*
X013161Y007924D03*
X013151Y007874D03*
X013081Y007654D03*
X013331Y007404D03*
X013581Y007154D03*
X013841Y007754D03*
X013841Y008144D03*
X013031Y008744D03*
X013031Y009344D03*
X012541Y009844D03*
X011281Y008234D03*
X010831Y008204D03*
X010151Y008234D03*
X009691Y007444D03*
X008661Y007904D03*
X008941Y008404D03*
X007481Y008384D03*
X007491Y007744D03*
X012571Y006914D03*
X012571Y006904D03*
X012571Y006894D03*
X012571Y006884D03*
X012571Y006874D03*
X012571Y006864D03*
X012571Y006854D03*
X012571Y006844D03*
X012571Y006834D03*
X012571Y006824D03*
X012571Y006814D03*
X012571Y006804D03*
X012571Y006794D03*
X012571Y006784D03*
X012571Y006774D03*
D36*
X012581Y006744D03*
X012581Y006734D03*
X012591Y006674D03*
X012591Y006664D03*
X012601Y006634D03*
X012601Y006624D03*
X012601Y006614D03*
X012611Y006604D03*
X012611Y006594D03*
X012621Y006584D03*
X012621Y006574D03*
X012631Y006544D03*
X012751Y006304D03*
X013001Y006554D03*
X012961Y006664D03*
X012951Y006684D03*
X012951Y006694D03*
X012941Y006704D03*
X012941Y006714D03*
X012921Y006794D03*
X012921Y006894D03*
X012921Y006904D03*
X012941Y006974D03*
X012941Y006984D03*
X012951Y006994D03*
X012951Y007004D03*
X012961Y007024D03*
X013001Y007134D03*
X012751Y007384D03*
X012631Y007144D03*
X012621Y007124D03*
X012621Y007114D03*
X012611Y007094D03*
X012611Y007084D03*
X012601Y007074D03*
X012601Y007064D03*
X012601Y007054D03*
X012591Y007034D03*
X012591Y007024D03*
X012591Y007014D03*
X012581Y006974D03*
X012581Y006964D03*
X012581Y006954D03*
X012231Y006974D03*
X012231Y006984D03*
X012231Y006994D03*
X012231Y007004D03*
X012231Y007014D03*
X012231Y007024D03*
X012241Y007054D03*
X012241Y007064D03*
X012241Y007074D03*
X012241Y007084D03*
X012241Y007094D03*
X012251Y007104D03*
X012251Y007114D03*
X012251Y007124D03*
X012261Y007154D03*
X012271Y007174D03*
X012271Y007184D03*
X012281Y007214D03*
X012281Y007224D03*
X012221Y006964D03*
X012221Y006954D03*
X012221Y006944D03*
X012221Y006934D03*
X012221Y006924D03*
X012221Y006914D03*
X012221Y006904D03*
X012221Y006894D03*
X012221Y006884D03*
X012221Y006874D03*
X012221Y006864D03*
X012221Y006854D03*
X012221Y006844D03*
X012221Y006834D03*
X012221Y006824D03*
X012221Y006814D03*
X012221Y006804D03*
X012221Y006794D03*
X012221Y006784D03*
X012221Y006774D03*
X012221Y006764D03*
X012221Y006754D03*
X012221Y006744D03*
X012221Y006734D03*
X012221Y006724D03*
X012231Y006674D03*
X012231Y006664D03*
X012231Y006654D03*
X012241Y006634D03*
X012241Y006624D03*
X012241Y006614D03*
X012241Y006604D03*
X012251Y006574D03*
X012251Y006564D03*
X012271Y006504D03*
X013331Y007414D03*
X013461Y007684D03*
X013471Y007704D03*
X013471Y007714D03*
X013471Y007724D03*
X013481Y007734D03*
X013481Y007744D03*
X013491Y007774D03*
X013491Y007784D03*
X013491Y007794D03*
X013501Y007824D03*
X013501Y007834D03*
X013501Y007844D03*
X013501Y007854D03*
X013501Y008044D03*
X013501Y008054D03*
X013501Y008064D03*
X013501Y008074D03*
X013491Y008104D03*
X013491Y008114D03*
X013491Y008124D03*
X013481Y008154D03*
X013481Y008164D03*
X013471Y008184D03*
X013471Y008194D03*
X013461Y008214D03*
X013801Y008284D03*
X013801Y008294D03*
X013801Y008304D03*
X013791Y008324D03*
X013791Y008334D03*
X013771Y008384D03*
X013811Y008274D03*
X013811Y008264D03*
X013821Y008244D03*
X013821Y008234D03*
X013821Y008224D03*
X013831Y008204D03*
X013831Y008194D03*
X013831Y008184D03*
X013831Y008174D03*
X013851Y008074D03*
X013851Y008064D03*
X013851Y007834D03*
X013851Y007824D03*
X013851Y007814D03*
X013851Y007804D03*
X013851Y007794D03*
X013831Y007724D03*
X013831Y007714D03*
X013831Y007704D03*
X013831Y007694D03*
X013821Y007674D03*
X013821Y007664D03*
X013821Y007654D03*
X013811Y007644D03*
X013811Y007634D03*
X013811Y007624D03*
X013801Y007614D03*
X013801Y007604D03*
X013801Y007594D03*
X013791Y007564D03*
X013771Y007514D03*
X013581Y007164D03*
X013121Y007774D03*
X013131Y007794D03*
X013131Y007804D03*
X013141Y007814D03*
X013141Y007824D03*
X013141Y007834D03*
X013141Y008074D03*
X013141Y008084D03*
X013131Y008094D03*
X013131Y008104D03*
X013121Y008124D03*
X013071Y008234D03*
X012701Y008064D03*
X012541Y008254D03*
X012671Y008734D03*
X012661Y008754D03*
X012651Y008774D03*
X012651Y008784D03*
X012651Y008794D03*
X012641Y008804D03*
X012641Y008814D03*
X012641Y008824D03*
X012631Y008844D03*
X012621Y008894D03*
X012611Y008954D03*
X012611Y009134D03*
X012621Y009194D03*
X012621Y009204D03*
X012631Y009244D03*
X012641Y009264D03*
X012641Y009274D03*
X012641Y009284D03*
X012651Y009294D03*
X012651Y009304D03*
X012651Y009314D03*
X012661Y009324D03*
X012671Y009354D03*
X012331Y009424D03*
X012301Y009334D03*
X012301Y009324D03*
X012291Y009304D03*
X012291Y009294D03*
X012281Y009254D03*
X012281Y009244D03*
X012271Y009164D03*
X012271Y009154D03*
X012271Y008924D03*
X012271Y008914D03*
X012271Y008904D03*
X012271Y008894D03*
X012271Y008884D03*
X012281Y008834D03*
X012281Y008824D03*
X012291Y008794D03*
X012291Y008784D03*
X012291Y008774D03*
X012301Y008764D03*
X012301Y008754D03*
X012301Y008744D03*
X012311Y008724D03*
X012311Y008714D03*
X011591Y008504D03*
X011521Y008144D03*
X012501Y007634D03*
X013041Y008764D03*
X013001Y008854D03*
X012991Y008874D03*
X012981Y008894D03*
X012981Y008904D03*
X012971Y008914D03*
X012971Y008924D03*
X012961Y008984D03*
X012961Y009104D03*
X012971Y009164D03*
X012971Y009174D03*
X012981Y009184D03*
X012981Y009194D03*
X012991Y009214D03*
X013001Y009234D03*
X013041Y009324D03*
X012541Y009834D03*
X009601Y007754D03*
X008981Y008174D03*
X008971Y008164D03*
X008681Y007934D03*
X007461Y007724D03*
D37*
X011761Y007724D03*
X012751Y007484D03*
X012991Y006454D03*
D38*
X013376Y006774D03*
X013376Y006784D03*
X013376Y006794D03*
X013376Y006894D03*
X013376Y006904D03*
X013376Y006914D03*
X012696Y007874D03*
X011906Y007664D03*
X011176Y007694D03*
X011296Y008204D03*
X010166Y008204D03*
X010046Y007694D03*
X009336Y008164D03*
X008746Y007994D03*
X013416Y008974D03*
X013416Y008984D03*
X013416Y009114D03*
D39*
X013411Y009104D03*
X013411Y009094D03*
X013411Y008994D03*
X012701Y008014D03*
X012701Y008004D03*
X012701Y007994D03*
X012701Y007984D03*
X012701Y007914D03*
X012701Y007904D03*
X012701Y007894D03*
X012701Y007884D03*
X011561Y007694D03*
X011561Y007684D03*
X011561Y007674D03*
X011561Y007664D03*
X011561Y007654D03*
X011561Y007644D03*
X011181Y007644D03*
X011181Y007654D03*
X011181Y007664D03*
X011181Y007674D03*
X011181Y007684D03*
X010431Y007684D03*
X010431Y007674D03*
X010431Y007664D03*
X010431Y007654D03*
X010431Y007644D03*
X010431Y007694D03*
X010051Y007684D03*
X010051Y007674D03*
X010051Y007664D03*
X010051Y007654D03*
X010051Y007644D03*
X009571Y007394D03*
X008911Y008114D03*
X009341Y008174D03*
X013381Y006884D03*
X013381Y006814D03*
X013381Y006804D03*
D40*
X013376Y006824D03*
X013376Y006864D03*
X013376Y006874D03*
X011906Y007674D03*
X011906Y007684D03*
X010806Y007694D03*
X009556Y007884D03*
X009536Y008224D03*
X009346Y008184D03*
X008896Y008104D03*
X008756Y008004D03*
X008796Y008464D03*
X008126Y008224D03*
X008136Y007664D03*
X013416Y009004D03*
X013416Y009014D03*
X013416Y009024D03*
X013416Y009074D03*
X013416Y009084D03*
D41*
X013411Y009064D03*
X013411Y009054D03*
X012701Y007974D03*
X012701Y007964D03*
X012701Y007934D03*
X012701Y007924D03*
X011911Y007704D03*
X011911Y007694D03*
X011301Y008194D03*
X010801Y007684D03*
X010801Y007674D03*
X010801Y007664D03*
X010801Y007654D03*
X010801Y007644D03*
X010171Y008194D03*
X009551Y007734D03*
X008881Y008094D03*
X008771Y008014D03*
X013371Y006854D03*
X013381Y006834D03*
D42*
X013376Y006844D03*
X012696Y007944D03*
X012696Y007954D03*
X011916Y007714D03*
X013416Y009034D03*
X013416Y009044D03*
X009556Y007894D03*
X009426Y007654D03*
X008866Y008084D03*
X008796Y008034D03*
X008786Y008024D03*
X009356Y008194D03*
D43*
X012501Y007724D03*
X012541Y008164D03*
X012781Y008414D03*
X013331Y008584D03*
X013091Y007564D03*
X013581Y007074D03*
X012781Y009674D03*
X012541Y009924D03*
D44*
X012541Y009914D03*
X012781Y009664D03*
X013331Y008574D03*
X012781Y008424D03*
X012541Y008174D03*
X012501Y007714D03*
X013091Y007574D03*
X012991Y007224D03*
X013581Y007084D03*
X010801Y008354D03*
X010801Y008524D03*
D45*
X010771Y008244D03*
X009641Y007814D03*
X009631Y007834D03*
X008631Y008244D03*
X011971Y008364D03*
X011971Y008374D03*
X012541Y008184D03*
X012701Y008104D03*
X012501Y007704D03*
X013091Y007584D03*
X012991Y007214D03*
X013581Y007094D03*
X012781Y008434D03*
X013331Y008564D03*
X012781Y009654D03*
X012541Y009904D03*
D46*
X012541Y009894D03*
X012781Y009644D03*
X013411Y008894D03*
X013331Y008554D03*
X012781Y008444D03*
X012541Y008194D03*
X012501Y007694D03*
X013091Y007594D03*
X012991Y007204D03*
X013581Y007104D03*
X011981Y008324D03*
X011981Y008334D03*
X011531Y008544D03*
X010801Y008514D03*
X010801Y008364D03*
X010401Y008244D03*
X009651Y007794D03*
X009071Y007834D03*
X009071Y007844D03*
X009071Y007854D03*
X009071Y007864D03*
X009071Y007874D03*
X009071Y007884D03*
X008631Y008254D03*
X008631Y008264D03*
X008631Y008274D03*
X008631Y008284D03*
X008631Y008294D03*
X008631Y008304D03*
X007091Y008304D03*
X007091Y008294D03*
X007091Y008284D03*
X007091Y008314D03*
X007091Y008324D03*
X007091Y008334D03*
X007091Y007834D03*
X007091Y007824D03*
X007091Y007814D03*
X007091Y007804D03*
X007091Y007794D03*
D47*
X007101Y007734D03*
X007101Y008384D03*
X008641Y008374D03*
X009061Y007744D03*
X009061Y007734D03*
X009651Y007774D03*
X009541Y008254D03*
X010801Y008374D03*
X010801Y008504D03*
X011991Y008294D03*
X011991Y008284D03*
X012541Y008204D03*
X012701Y008094D03*
X013081Y008294D03*
X012781Y008454D03*
X013031Y008704D03*
X013331Y008544D03*
X013031Y009384D03*
X012781Y009634D03*
X012541Y009884D03*
X012501Y007684D03*
X013581Y007114D03*
D48*
X013336Y007314D03*
X012996Y007234D03*
X013026Y008654D03*
X013576Y008834D03*
X013026Y009434D03*
D49*
X009536Y007724D03*
X009566Y007404D03*
X008126Y008214D03*
X007276Y008464D03*
X007276Y007654D03*
D50*
X008131Y007684D03*
X008131Y008204D03*
X009521Y007714D03*
X009561Y007414D03*
D51*
X009561Y007424D03*
X009491Y007684D03*
X008791Y008434D03*
D52*
X008806Y008414D03*
X008896Y007684D03*
X009556Y007434D03*
D53*
X008901Y007654D03*
X008811Y008044D03*
X008821Y008054D03*
X008841Y008064D03*
X008851Y008074D03*
X008131Y007674D03*
D54*
X008881Y007704D03*
X009501Y007664D03*
X007281Y007684D03*
D55*
X008906Y007664D03*
X011946Y008204D03*
D56*
X011956Y008194D03*
X011956Y008184D03*
X011956Y008174D03*
X011956Y008164D03*
X011956Y008154D03*
X009506Y007694D03*
X007276Y007664D03*
D57*
X008906Y007674D03*
X009486Y007674D03*
X008796Y008424D03*
D58*
X007271Y008444D03*
X007271Y007674D03*
D59*
X007276Y008434D03*
X008886Y007694D03*
D60*
X009511Y007704D03*
X008791Y008444D03*
X008131Y008194D03*
X008131Y007694D03*
X007271Y008454D03*
D61*
X007286Y008424D03*
X007286Y007694D03*
X011386Y008184D03*
D62*
X011376Y008154D03*
X007296Y008414D03*
X007296Y007704D03*
D63*
X009556Y007904D03*
X011936Y008214D03*
D64*
X010286Y008154D03*
D65*
X011381Y008164D03*
X011381Y008174D03*
D66*
X010291Y008174D03*
X010291Y008164D03*
D67*
X010296Y008184D03*
D68*
X009456Y008204D03*
D69*
X009451Y008214D03*
D70*
X008791Y008454D03*
D71*
X012786Y009684D03*
D72*
X017509Y006629D03*
X017656Y006592D03*
X017571Y006377D03*
X017509Y006314D03*
X017446Y006252D03*
X017594Y006844D03*
X017579Y006927D03*
X017716Y006967D03*
X017579Y007117D03*
X002516Y006967D03*
X002379Y006927D03*
X002394Y006844D03*
X002379Y007117D03*
X002309Y006629D03*
X002456Y006592D03*
X002371Y006377D03*
X002309Y006314D03*
X002246Y006252D03*
D73*
X002246Y006254D03*
X002309Y006317D03*
X002371Y006379D03*
X002456Y006594D03*
X002309Y006627D03*
X002394Y006842D03*
X002379Y006929D03*
X002516Y006964D03*
X002379Y007114D03*
X002001Y006899D03*
X001719Y006824D03*
X001529Y006722D03*
X016729Y006722D03*
X016919Y006824D03*
X017201Y006899D03*
X017579Y006929D03*
X017594Y006842D03*
X017716Y006964D03*
X017579Y007114D03*
X017509Y006627D03*
X017656Y006594D03*
X017571Y006379D03*
X017509Y006317D03*
X017446Y006254D03*
D74*
X017446Y006257D03*
X017509Y006319D03*
X017571Y006382D03*
X017666Y006434D03*
X017666Y006509D03*
X017656Y006597D03*
X017509Y006624D03*
X017496Y006709D03*
X017594Y006839D03*
X017579Y006932D03*
X017716Y006962D03*
X017676Y007059D03*
X017579Y007112D03*
X017316Y006849D03*
X017316Y006847D03*
X017141Y006824D03*
X016859Y006824D03*
X016731Y006717D03*
X016734Y006712D03*
X016094Y006722D03*
X016094Y006724D03*
X016094Y006727D03*
X016094Y006729D03*
X016094Y006732D03*
X016094Y006822D03*
X016094Y006824D03*
X016094Y006827D03*
X016094Y006829D03*
X002516Y006962D03*
X002476Y007059D03*
X002379Y007112D03*
X002379Y006932D03*
X002394Y006839D03*
X002296Y006709D03*
X002309Y006624D03*
X002456Y006597D03*
X002466Y006509D03*
X002466Y006434D03*
X002371Y006382D03*
X002309Y006319D03*
X002246Y006257D03*
X001941Y006824D03*
X002116Y006847D03*
X002116Y006849D03*
X001659Y006824D03*
X001531Y006717D03*
X001534Y006712D03*
X000894Y006722D03*
X000894Y006724D03*
X000894Y006727D03*
X000894Y006729D03*
X000894Y006732D03*
X000894Y006822D03*
X000894Y006824D03*
X000894Y006827D03*
X000894Y006829D03*
D75*
X000896Y006847D03*
X000896Y006849D03*
X000896Y006852D03*
X000896Y006854D03*
X000896Y006707D03*
X000896Y006704D03*
X000896Y006702D03*
X000896Y006699D03*
X000896Y006697D03*
X001281Y006839D03*
X001281Y006842D03*
X001281Y006844D03*
X001281Y006847D03*
X001281Y006849D03*
X001281Y006852D03*
X001389Y006717D03*
X001389Y006714D03*
X001389Y006712D03*
X001389Y006709D03*
X001389Y006707D03*
X001389Y006704D03*
X001389Y006702D03*
X001389Y006699D03*
X001534Y006707D03*
X001819Y006819D03*
X002119Y006837D03*
X002119Y006839D03*
X002394Y006837D03*
X002379Y006934D03*
X002516Y006959D03*
X002379Y007109D03*
X002394Y006662D03*
X002456Y006599D03*
X002371Y006559D03*
X002309Y006622D03*
X002106Y006669D03*
X002371Y006384D03*
X002309Y006322D03*
X002246Y006259D03*
X016096Y006697D03*
X016096Y006699D03*
X016096Y006702D03*
X016096Y006704D03*
X016096Y006707D03*
X016096Y006847D03*
X016096Y006849D03*
X016096Y006852D03*
X016096Y006854D03*
X016481Y006852D03*
X016481Y006849D03*
X016481Y006847D03*
X016481Y006844D03*
X016481Y006842D03*
X016481Y006839D03*
X016589Y006717D03*
X016589Y006714D03*
X016589Y006712D03*
X016589Y006709D03*
X016589Y006707D03*
X016589Y006704D03*
X016589Y006702D03*
X016589Y006699D03*
X016734Y006707D03*
X017019Y006819D03*
X017319Y006837D03*
X017319Y006839D03*
X017306Y006669D03*
X017509Y006622D03*
X017571Y006559D03*
X017656Y006599D03*
X017594Y006662D03*
X017594Y006837D03*
X017579Y006934D03*
X017716Y006959D03*
X017579Y007109D03*
X017571Y006384D03*
X017509Y006322D03*
X017446Y006259D03*
D76*
X017446Y006262D03*
X017509Y006324D03*
X017571Y006387D03*
X017666Y006437D03*
X017666Y006507D03*
X017656Y006602D03*
X017594Y006664D03*
X017509Y006619D03*
X017571Y006557D03*
X017321Y006827D03*
X017321Y006829D03*
X017209Y006894D03*
X016926Y006819D03*
X016749Y006672D03*
X016746Y006674D03*
X016661Y006629D03*
X016484Y006857D03*
X016354Y006824D03*
X016356Y006669D03*
X016099Y006692D03*
X017716Y006957D03*
X002516Y006957D03*
X002394Y006664D03*
X002456Y006602D03*
X002466Y006507D03*
X002466Y006437D03*
X002371Y006387D03*
X002309Y006324D03*
X002246Y006262D03*
X002371Y006557D03*
X002309Y006619D03*
X002121Y006827D03*
X002121Y006829D03*
X002009Y006894D03*
X001726Y006819D03*
X001549Y006672D03*
X001546Y006674D03*
X001461Y006629D03*
X001156Y006669D03*
X001154Y006824D03*
X001284Y006857D03*
X000899Y006692D03*
D77*
X000944Y006669D03*
X001199Y006794D03*
X001289Y006704D03*
X001344Y006669D03*
X001451Y006654D03*
X001451Y006652D03*
X001451Y006649D03*
X001531Y006702D03*
X001556Y006662D03*
X001556Y006659D03*
X001559Y006654D03*
X001559Y006652D03*
X001559Y006649D03*
X001559Y006647D03*
X001559Y006644D03*
X001636Y006689D03*
X001636Y006692D03*
X001636Y006694D03*
X001636Y006697D03*
X001636Y006699D03*
X001636Y006702D03*
X001636Y006704D03*
X001636Y006707D03*
X001636Y006709D03*
X001636Y006712D03*
X001636Y006714D03*
X001636Y006717D03*
X001636Y006719D03*
X001636Y006722D03*
X001636Y006724D03*
X001636Y006727D03*
X001636Y006729D03*
X001636Y006732D03*
X001636Y006734D03*
X001636Y006737D03*
X001636Y006739D03*
X001636Y006742D03*
X001636Y006744D03*
X001636Y006747D03*
X001636Y006749D03*
X001636Y006752D03*
X001636Y006754D03*
X001636Y006757D03*
X001636Y006759D03*
X001636Y006762D03*
X001636Y006764D03*
X001636Y006767D03*
X001636Y006769D03*
X001636Y006772D03*
X001636Y006774D03*
X001636Y006777D03*
X001659Y006822D03*
X001729Y006792D03*
X001729Y006789D03*
X001729Y006787D03*
X001729Y006784D03*
X001729Y006782D03*
X001729Y006779D03*
X001729Y006777D03*
X001729Y006774D03*
X001729Y006772D03*
X001729Y006769D03*
X001729Y006767D03*
X001729Y006764D03*
X001729Y006762D03*
X001729Y006759D03*
X001729Y006757D03*
X001729Y006754D03*
X001729Y006752D03*
X001729Y006749D03*
X001729Y006747D03*
X001729Y006744D03*
X001729Y006742D03*
X001729Y006739D03*
X001729Y006737D03*
X001729Y006734D03*
X001729Y006732D03*
X001729Y006729D03*
X001729Y006727D03*
X001729Y006724D03*
X001729Y006722D03*
X001729Y006719D03*
X001729Y006717D03*
X001729Y006714D03*
X001729Y006712D03*
X001729Y006709D03*
X001729Y006707D03*
X001729Y006704D03*
X001729Y006702D03*
X001729Y006699D03*
X001729Y006697D03*
X001729Y006694D03*
X001729Y006692D03*
X001729Y006689D03*
X001824Y006689D03*
X001824Y006692D03*
X001824Y006694D03*
X001824Y006697D03*
X001824Y006699D03*
X001824Y006702D03*
X001824Y006704D03*
X001824Y006707D03*
X001824Y006709D03*
X001824Y006712D03*
X001824Y006714D03*
X001824Y006717D03*
X001824Y006719D03*
X001824Y006722D03*
X001824Y006724D03*
X001824Y006727D03*
X001824Y006729D03*
X001824Y006732D03*
X001824Y006734D03*
X001824Y006737D03*
X001824Y006739D03*
X001824Y006742D03*
X001824Y006744D03*
X001824Y006747D03*
X001824Y006749D03*
X001824Y006752D03*
X001824Y006754D03*
X001824Y006757D03*
X001824Y006759D03*
X001824Y006762D03*
X001824Y006764D03*
X001824Y006767D03*
X001824Y006769D03*
X001824Y006772D03*
X001824Y006774D03*
X001824Y006777D03*
X001824Y006779D03*
X001824Y006782D03*
X001824Y006784D03*
X001824Y006787D03*
X001824Y006789D03*
X001824Y006792D03*
X001824Y006794D03*
X001824Y006797D03*
X001919Y006777D03*
X001919Y006774D03*
X001919Y006772D03*
X001919Y006769D03*
X001919Y006767D03*
X001919Y006764D03*
X001919Y006762D03*
X001919Y006759D03*
X001919Y006757D03*
X001919Y006754D03*
X001919Y006752D03*
X001919Y006749D03*
X001919Y006747D03*
X001919Y006744D03*
X001919Y006742D03*
X001919Y006739D03*
X001919Y006737D03*
X001919Y006734D03*
X001919Y006732D03*
X001919Y006729D03*
X001919Y006727D03*
X001919Y006724D03*
X001919Y006722D03*
X001919Y006719D03*
X001919Y006717D03*
X001919Y006714D03*
X001919Y006712D03*
X001919Y006709D03*
X001919Y006707D03*
X001919Y006704D03*
X001919Y006702D03*
X001919Y006699D03*
X001919Y006697D03*
X001919Y006694D03*
X001919Y006692D03*
X001919Y006689D03*
X002011Y006689D03*
X002011Y006692D03*
X002011Y006694D03*
X002011Y006697D03*
X002011Y006699D03*
X002011Y006702D03*
X002011Y006704D03*
X002011Y006707D03*
X002011Y006709D03*
X002011Y006712D03*
X002011Y006714D03*
X002011Y006717D03*
X002011Y006719D03*
X002011Y006722D03*
X002011Y006724D03*
X002011Y006727D03*
X002011Y006729D03*
X002011Y006732D03*
X002011Y006734D03*
X002011Y006737D03*
X002011Y006739D03*
X002011Y006742D03*
X002011Y006744D03*
X002011Y006747D03*
X002011Y006749D03*
X002011Y006752D03*
X002011Y006754D03*
X002011Y006757D03*
X002011Y006759D03*
X002011Y006762D03*
X002011Y006764D03*
X002011Y006767D03*
X002011Y006769D03*
X002011Y006772D03*
X002011Y006774D03*
X002011Y006777D03*
X002011Y006779D03*
X002011Y006782D03*
X002011Y006784D03*
X002011Y006787D03*
X002011Y006789D03*
X002011Y006792D03*
X002011Y006809D03*
X002011Y006812D03*
X002011Y006814D03*
X002011Y006817D03*
X002011Y006819D03*
X002011Y006822D03*
X002011Y006824D03*
X002011Y006827D03*
X002011Y006829D03*
X002011Y006832D03*
X002011Y006834D03*
X002011Y006837D03*
X002011Y006839D03*
X002011Y006842D03*
X002011Y006844D03*
X002011Y006847D03*
X002011Y006849D03*
X002011Y006852D03*
X002011Y006854D03*
X002011Y006857D03*
X002011Y006859D03*
X002011Y006862D03*
X002011Y006864D03*
X002011Y006867D03*
X002011Y006869D03*
X002011Y006872D03*
X001941Y006822D03*
X002124Y006797D03*
X002124Y006794D03*
X002124Y006792D03*
X002124Y006789D03*
X002124Y006787D03*
X002124Y006784D03*
X002124Y006782D03*
X002124Y006779D03*
X002124Y006777D03*
X002124Y006774D03*
X002124Y006772D03*
X002124Y006769D03*
X002124Y006767D03*
X002124Y006764D03*
X002124Y006762D03*
X002124Y006759D03*
X002124Y006757D03*
X002124Y006754D03*
X002124Y006752D03*
X002124Y006749D03*
X002124Y006747D03*
X002124Y006744D03*
X002124Y006742D03*
X002124Y006739D03*
X002124Y006737D03*
X002124Y006734D03*
X002124Y006732D03*
X002124Y006729D03*
X002124Y006727D03*
X002124Y006724D03*
X002124Y006722D03*
X002124Y006719D03*
X002124Y006717D03*
X002124Y006714D03*
X002124Y006712D03*
X002124Y006709D03*
X002124Y006707D03*
X002394Y006667D03*
X002516Y006954D03*
X002246Y006264D03*
X001551Y006784D03*
X001551Y006787D03*
X001549Y006792D03*
X001549Y006794D03*
X001546Y006799D03*
X001544Y006802D03*
X001471Y006797D03*
X001469Y006792D03*
X001469Y006789D03*
X001466Y006784D03*
X001466Y006782D03*
X001466Y006779D03*
X001466Y006777D03*
X001466Y006774D03*
X001466Y006772D03*
X001466Y006769D03*
X001466Y006767D03*
X001466Y006764D03*
X001469Y006762D03*
X001469Y006759D03*
X001469Y006757D03*
X001471Y006752D03*
X001474Y006747D03*
X001476Y006744D03*
X001479Y006742D03*
X001376Y006834D03*
X001376Y006837D03*
X001376Y006839D03*
X001374Y006844D03*
X001374Y006847D03*
X001371Y006849D03*
X000944Y006882D03*
X016144Y006882D03*
X016399Y006794D03*
X016489Y006704D03*
X016544Y006669D03*
X016651Y006654D03*
X016651Y006652D03*
X016651Y006649D03*
X016731Y006702D03*
X016756Y006662D03*
X016756Y006659D03*
X016759Y006654D03*
X016759Y006652D03*
X016759Y006649D03*
X016759Y006647D03*
X016759Y006644D03*
X016836Y006689D03*
X016836Y006692D03*
X016836Y006694D03*
X016836Y006697D03*
X016836Y006699D03*
X016836Y006702D03*
X016836Y006704D03*
X016836Y006707D03*
X016836Y006709D03*
X016836Y006712D03*
X016836Y006714D03*
X016836Y006717D03*
X016836Y006719D03*
X016836Y006722D03*
X016836Y006724D03*
X016836Y006727D03*
X016836Y006729D03*
X016836Y006732D03*
X016836Y006734D03*
X016836Y006737D03*
X016836Y006739D03*
X016836Y006742D03*
X016836Y006744D03*
X016836Y006747D03*
X016836Y006749D03*
X016836Y006752D03*
X016836Y006754D03*
X016836Y006757D03*
X016836Y006759D03*
X016836Y006762D03*
X016836Y006764D03*
X016836Y006767D03*
X016836Y006769D03*
X016836Y006772D03*
X016836Y006774D03*
X016836Y006777D03*
X016859Y006822D03*
X016929Y006792D03*
X016929Y006789D03*
X016929Y006787D03*
X016929Y006784D03*
X016929Y006782D03*
X016929Y006779D03*
X016929Y006777D03*
X016929Y006774D03*
X016929Y006772D03*
X016929Y006769D03*
X016929Y006767D03*
X016929Y006764D03*
X016929Y006762D03*
X016929Y006759D03*
X016929Y006757D03*
X016929Y006754D03*
X016929Y006752D03*
X016929Y006749D03*
X016929Y006747D03*
X016929Y006744D03*
X016929Y006742D03*
X016929Y006739D03*
X016929Y006737D03*
X016929Y006734D03*
X016929Y006732D03*
X016929Y006729D03*
X016929Y006727D03*
X016929Y006724D03*
X016929Y006722D03*
X016929Y006719D03*
X016929Y006717D03*
X016929Y006714D03*
X016929Y006712D03*
X016929Y006709D03*
X016929Y006707D03*
X016929Y006704D03*
X016929Y006702D03*
X016929Y006699D03*
X016929Y006697D03*
X016929Y006694D03*
X016929Y006692D03*
X016929Y006689D03*
X017024Y006689D03*
X017024Y006692D03*
X017024Y006694D03*
X017024Y006697D03*
X017024Y006699D03*
X017024Y006702D03*
X017024Y006704D03*
X017024Y006707D03*
X017024Y006709D03*
X017024Y006712D03*
X017024Y006714D03*
X017024Y006717D03*
X017024Y006719D03*
X017024Y006722D03*
X017024Y006724D03*
X017024Y006727D03*
X017024Y006729D03*
X017024Y006732D03*
X017024Y006734D03*
X017024Y006737D03*
X017024Y006739D03*
X017024Y006742D03*
X017024Y006744D03*
X017024Y006747D03*
X017024Y006749D03*
X017024Y006752D03*
X017024Y006754D03*
X017024Y006757D03*
X017024Y006759D03*
X017024Y006762D03*
X017024Y006764D03*
X017024Y006767D03*
X017024Y006769D03*
X017024Y006772D03*
X017024Y006774D03*
X017024Y006777D03*
X017024Y006779D03*
X017024Y006782D03*
X017024Y006784D03*
X017024Y006787D03*
X017024Y006789D03*
X017024Y006792D03*
X017024Y006794D03*
X017024Y006797D03*
X017119Y006777D03*
X017119Y006774D03*
X017119Y006772D03*
X017119Y006769D03*
X017119Y006767D03*
X017119Y006764D03*
X017119Y006762D03*
X017119Y006759D03*
X017119Y006757D03*
X017119Y006754D03*
X017119Y006752D03*
X017119Y006749D03*
X017119Y006747D03*
X017119Y006744D03*
X017119Y006742D03*
X017119Y006739D03*
X017119Y006737D03*
X017119Y006734D03*
X017119Y006732D03*
X017119Y006729D03*
X017119Y006727D03*
X017119Y006724D03*
X017119Y006722D03*
X017119Y006719D03*
X017119Y006717D03*
X017119Y006714D03*
X017119Y006712D03*
X017119Y006709D03*
X017119Y006707D03*
X017119Y006704D03*
X017119Y006702D03*
X017119Y006699D03*
X017119Y006697D03*
X017119Y006694D03*
X017119Y006692D03*
X017119Y006689D03*
X017211Y006689D03*
X017211Y006692D03*
X017211Y006694D03*
X017211Y006697D03*
X017211Y006699D03*
X017211Y006702D03*
X017211Y006704D03*
X017211Y006707D03*
X017211Y006709D03*
X017211Y006712D03*
X017211Y006714D03*
X017211Y006717D03*
X017211Y006719D03*
X017211Y006722D03*
X017211Y006724D03*
X017211Y006727D03*
X017211Y006729D03*
X017211Y006732D03*
X017211Y006734D03*
X017211Y006737D03*
X017211Y006739D03*
X017211Y006742D03*
X017211Y006744D03*
X017211Y006747D03*
X017211Y006749D03*
X017211Y006752D03*
X017211Y006754D03*
X017211Y006757D03*
X017211Y006759D03*
X017211Y006762D03*
X017211Y006764D03*
X017211Y006767D03*
X017211Y006769D03*
X017211Y006772D03*
X017211Y006774D03*
X017211Y006777D03*
X017211Y006779D03*
X017211Y006782D03*
X017211Y006784D03*
X017211Y006787D03*
X017211Y006789D03*
X017211Y006792D03*
X017211Y006809D03*
X017211Y006812D03*
X017211Y006814D03*
X017211Y006817D03*
X017211Y006819D03*
X017211Y006822D03*
X017211Y006824D03*
X017211Y006827D03*
X017211Y006829D03*
X017211Y006832D03*
X017211Y006834D03*
X017211Y006837D03*
X017211Y006839D03*
X017211Y006842D03*
X017211Y006844D03*
X017211Y006847D03*
X017211Y006849D03*
X017211Y006852D03*
X017211Y006854D03*
X017211Y006857D03*
X017211Y006859D03*
X017211Y006862D03*
X017211Y006864D03*
X017211Y006867D03*
X017211Y006869D03*
X017211Y006872D03*
X017141Y006822D03*
X017324Y006797D03*
X017324Y006794D03*
X017324Y006792D03*
X017324Y006789D03*
X017324Y006787D03*
X017324Y006784D03*
X017324Y006782D03*
X017324Y006779D03*
X017324Y006777D03*
X017324Y006774D03*
X017324Y006772D03*
X017324Y006769D03*
X017324Y006767D03*
X017324Y006764D03*
X017324Y006762D03*
X017324Y006759D03*
X017324Y006757D03*
X017324Y006754D03*
X017324Y006752D03*
X017324Y006749D03*
X017324Y006747D03*
X017324Y006744D03*
X017324Y006742D03*
X017324Y006739D03*
X017324Y006737D03*
X017324Y006734D03*
X017324Y006732D03*
X017324Y006729D03*
X017324Y006727D03*
X017324Y006724D03*
X017324Y006722D03*
X017324Y006719D03*
X017324Y006717D03*
X017324Y006714D03*
X017324Y006712D03*
X017324Y006709D03*
X017324Y006707D03*
X017594Y006667D03*
X017716Y006954D03*
X017446Y006264D03*
X016751Y006784D03*
X016751Y006787D03*
X016749Y006792D03*
X016749Y006794D03*
X016746Y006799D03*
X016744Y006802D03*
X016671Y006797D03*
X016669Y006792D03*
X016669Y006789D03*
X016666Y006784D03*
X016666Y006782D03*
X016666Y006779D03*
X016666Y006777D03*
X016666Y006774D03*
X016666Y006772D03*
X016666Y006769D03*
X016666Y006767D03*
X016666Y006764D03*
X016669Y006762D03*
X016669Y006759D03*
X016669Y006757D03*
X016671Y006752D03*
X016674Y006747D03*
X016676Y006744D03*
X016679Y006742D03*
X016576Y006834D03*
X016576Y006837D03*
X016576Y006839D03*
X016574Y006844D03*
X016574Y006847D03*
X016571Y006849D03*
X016144Y006669D03*
D78*
X016219Y006724D03*
X016221Y006729D03*
X016224Y006737D03*
X016226Y006744D03*
X016229Y006757D03*
X016229Y006794D03*
X016226Y006807D03*
X016224Y006814D03*
X016221Y006822D03*
X016219Y006827D03*
X016216Y006832D03*
X016304Y006779D03*
X016301Y006772D03*
X016301Y006769D03*
X016301Y006767D03*
X016299Y006762D03*
X016299Y006759D03*
X016299Y006757D03*
X016299Y006754D03*
X016299Y006752D03*
X016299Y006749D03*
X016299Y006747D03*
X016299Y006744D03*
X016299Y006742D03*
X016299Y006739D03*
X016299Y006737D03*
X016299Y006734D03*
X016299Y006732D03*
X016301Y006727D03*
X016301Y006724D03*
X016301Y006722D03*
X016304Y006714D03*
X016391Y006689D03*
X016404Y006707D03*
X016406Y006714D03*
X016409Y006722D03*
X016409Y006724D03*
X016409Y006727D03*
X016411Y006732D03*
X016411Y006734D03*
X016411Y006737D03*
X016411Y006739D03*
X016411Y006742D03*
X016411Y006744D03*
X016411Y006747D03*
X016411Y006749D03*
X016411Y006752D03*
X016411Y006754D03*
X016411Y006757D03*
X016411Y006759D03*
X016411Y006762D03*
X016409Y006767D03*
X016409Y006769D03*
X016409Y006772D03*
X016406Y006779D03*
X016484Y006724D03*
X016484Y006722D03*
X016484Y006719D03*
X016494Y006697D03*
X016496Y006694D03*
X016576Y006819D03*
X016576Y006822D03*
X016561Y006859D03*
X016489Y006862D03*
X016736Y006809D03*
X016751Y006762D03*
X016741Y006742D03*
X016839Y006787D03*
X016839Y006789D03*
X016841Y006792D03*
X016926Y006794D03*
X017026Y006814D03*
X017121Y006787D03*
X017124Y006792D03*
X017209Y006794D03*
X017211Y006687D03*
X017119Y006687D03*
X017024Y006687D03*
X016929Y006687D03*
X016836Y006687D03*
X016754Y006632D03*
X016654Y006662D03*
X017321Y006697D03*
X017321Y006699D03*
X017496Y006714D03*
X017594Y006669D03*
X017666Y006504D03*
X017666Y006439D03*
X017446Y006267D03*
X017519Y006882D03*
X017654Y006889D03*
X017716Y006952D03*
X017676Y007054D03*
X002516Y006952D03*
X002454Y006889D03*
X002319Y006882D03*
X002296Y006714D03*
X002394Y006669D03*
X002466Y006504D03*
X002466Y006439D03*
X002246Y006267D03*
X002011Y006687D03*
X001919Y006687D03*
X001824Y006687D03*
X001729Y006687D03*
X001636Y006687D03*
X001554Y006632D03*
X001454Y006662D03*
X001541Y006742D03*
X001551Y006762D03*
X001536Y006809D03*
X001639Y006789D03*
X001639Y006787D03*
X001641Y006792D03*
X001726Y006794D03*
X001826Y006814D03*
X001921Y006787D03*
X001924Y006792D03*
X002009Y006794D03*
X002121Y006699D03*
X002121Y006697D03*
X002476Y007054D03*
X001376Y006822D03*
X001376Y006819D03*
X001361Y006859D03*
X001289Y006862D03*
X001206Y006779D03*
X001209Y006772D03*
X001209Y006769D03*
X001209Y006767D03*
X001211Y006762D03*
X001211Y006759D03*
X001211Y006757D03*
X001211Y006754D03*
X001211Y006752D03*
X001211Y006749D03*
X001211Y006747D03*
X001211Y006744D03*
X001211Y006742D03*
X001211Y006739D03*
X001211Y006737D03*
X001211Y006734D03*
X001211Y006732D03*
X001209Y006727D03*
X001209Y006724D03*
X001209Y006722D03*
X001206Y006714D03*
X001204Y006707D03*
X001191Y006689D03*
X001104Y006714D03*
X001101Y006722D03*
X001101Y006724D03*
X001101Y006727D03*
X001099Y006732D03*
X001099Y006734D03*
X001099Y006737D03*
X001099Y006739D03*
X001099Y006742D03*
X001099Y006744D03*
X001099Y006747D03*
X001099Y006749D03*
X001099Y006752D03*
X001099Y006754D03*
X001099Y006757D03*
X001099Y006759D03*
X001099Y006762D03*
X001101Y006767D03*
X001101Y006769D03*
X001101Y006772D03*
X001104Y006779D03*
X001029Y006794D03*
X001026Y006807D03*
X001024Y006814D03*
X001021Y006822D03*
X001019Y006827D03*
X001016Y006832D03*
X001029Y006757D03*
X001026Y006744D03*
X001024Y006737D03*
X001021Y006729D03*
X001019Y006724D03*
X001284Y006724D03*
X001284Y006722D03*
X001284Y006719D03*
X001294Y006697D03*
X001296Y006694D03*
D79*
X001286Y006734D03*
X001371Y006809D03*
X001374Y006812D03*
X001374Y006814D03*
X001456Y006664D03*
X001644Y006794D03*
X001734Y006814D03*
X001926Y006794D03*
X002016Y006889D03*
X002104Y006672D03*
X002391Y006824D03*
X002454Y006887D03*
X002516Y006949D03*
X002319Y006884D03*
X002319Y007159D03*
X002246Y006269D03*
X001009Y006709D03*
X001004Y006704D03*
X001001Y006702D03*
X000999Y006699D03*
X000999Y006852D03*
X000996Y006854D03*
X016196Y006854D03*
X016199Y006852D03*
X016209Y006709D03*
X016204Y006704D03*
X016201Y006702D03*
X016199Y006699D03*
X016486Y006734D03*
X016571Y006809D03*
X016574Y006812D03*
X016574Y006814D03*
X016656Y006664D03*
X016844Y006794D03*
X016934Y006814D03*
X017126Y006794D03*
X017216Y006889D03*
X017519Y006884D03*
X017591Y006824D03*
X017654Y006887D03*
X017716Y006949D03*
X017519Y007159D03*
X017304Y006672D03*
X017446Y006269D03*
D80*
X017446Y006272D03*
X017471Y006422D03*
X017471Y006424D03*
X017469Y006432D03*
X017469Y006434D03*
X017469Y006437D03*
X017469Y006439D03*
X017469Y006442D03*
X017466Y006449D03*
X017466Y006452D03*
X017466Y006492D03*
X017466Y006494D03*
X017466Y006497D03*
X017469Y006507D03*
X017469Y006509D03*
X017469Y006512D03*
X017471Y006522D03*
X017556Y006502D03*
X017556Y006499D03*
X017554Y006492D03*
X017554Y006489D03*
X017551Y006482D03*
X017551Y006479D03*
X017551Y006477D03*
X017551Y006474D03*
X017551Y006472D03*
X017551Y006469D03*
X017551Y006467D03*
X017551Y006464D03*
X017551Y006462D03*
X017554Y006457D03*
X017554Y006454D03*
X017554Y006452D03*
X017556Y006444D03*
X017556Y006442D03*
X017666Y006442D03*
X017666Y006502D03*
X017591Y006677D03*
X017609Y006722D03*
X017609Y006724D03*
X017609Y006727D03*
X017611Y006732D03*
X017611Y006734D03*
X017611Y006737D03*
X017611Y006739D03*
X017614Y006744D03*
X017614Y006752D03*
X017614Y006754D03*
X017611Y006757D03*
X017611Y006759D03*
X017611Y006762D03*
X017611Y006764D03*
X017609Y006769D03*
X017609Y006772D03*
X017609Y006774D03*
X017609Y006777D03*
X017591Y006822D03*
X017654Y006884D03*
X017716Y006947D03*
X017676Y006992D03*
X017676Y007052D03*
X017581Y007094D03*
X017564Y007049D03*
X017564Y007047D03*
X017564Y007044D03*
X017564Y007042D03*
X017564Y007039D03*
X017561Y007034D03*
X017561Y007032D03*
X017561Y007029D03*
X017561Y007027D03*
X017561Y007024D03*
X017561Y007022D03*
X017561Y007019D03*
X017561Y007017D03*
X017561Y007014D03*
X017561Y007012D03*
X017561Y007009D03*
X017564Y007004D03*
X017564Y007002D03*
X017564Y006999D03*
X017564Y006997D03*
X017564Y006994D03*
X017581Y006949D03*
X017519Y006887D03*
X017481Y006969D03*
X017479Y006974D03*
X017479Y006977D03*
X017479Y006979D03*
X017479Y006982D03*
X017476Y006987D03*
X017476Y006989D03*
X017476Y006992D03*
X017476Y006994D03*
X017476Y006997D03*
X017474Y007002D03*
X017474Y007004D03*
X017474Y007007D03*
X017474Y007009D03*
X017474Y007012D03*
X017474Y007014D03*
X017474Y007017D03*
X017474Y007019D03*
X017474Y007022D03*
X017474Y007024D03*
X017474Y007027D03*
X017474Y007029D03*
X017474Y007032D03*
X017474Y007034D03*
X017474Y007037D03*
X017474Y007039D03*
X017474Y007042D03*
X017476Y007047D03*
X017476Y007049D03*
X017476Y007052D03*
X017476Y007054D03*
X017476Y007057D03*
X017479Y007064D03*
X017479Y007067D03*
X017479Y007069D03*
X017481Y007074D03*
X017391Y007069D03*
X017391Y007067D03*
X017391Y007064D03*
X017391Y007062D03*
X017391Y007059D03*
X017391Y007057D03*
X017391Y007054D03*
X017389Y007047D03*
X017389Y007044D03*
X017389Y007042D03*
X017389Y007039D03*
X017389Y007037D03*
X017389Y007034D03*
X017389Y007032D03*
X017389Y007029D03*
X017389Y007027D03*
X017389Y007024D03*
X017389Y007022D03*
X017389Y007019D03*
X017389Y007017D03*
X017389Y007014D03*
X017389Y007012D03*
X017389Y007009D03*
X017389Y007007D03*
X017389Y007004D03*
X017389Y007002D03*
X017389Y006999D03*
X017389Y006997D03*
X017389Y006994D03*
X017391Y006979D03*
X017391Y006977D03*
X017391Y006974D03*
X017391Y006972D03*
X017496Y006717D03*
X017316Y006692D03*
X017381Y006522D03*
X017381Y006519D03*
X017381Y006422D03*
X017694Y006699D03*
X017694Y006702D03*
X017696Y006712D03*
X017696Y006714D03*
X017699Y006727D03*
X017699Y006729D03*
X017699Y006732D03*
X017699Y006734D03*
X017699Y006737D03*
X017699Y006739D03*
X017699Y006742D03*
X017699Y006744D03*
X017699Y006747D03*
X017699Y006749D03*
X017699Y006752D03*
X017699Y006754D03*
X017699Y006757D03*
X017699Y006759D03*
X017699Y006762D03*
X017699Y006764D03*
X017699Y006767D03*
X017699Y006769D03*
X017696Y006782D03*
X017696Y006784D03*
X017694Y006794D03*
X017694Y006797D03*
X017779Y006814D03*
X017781Y006802D03*
X017781Y006799D03*
X017784Y006794D03*
X017784Y006792D03*
X017784Y006789D03*
X017784Y006787D03*
X017784Y006784D03*
X017784Y006782D03*
X017786Y006774D03*
X017786Y006772D03*
X017786Y006769D03*
X017786Y006767D03*
X017786Y006764D03*
X017786Y006762D03*
X017786Y006759D03*
X017786Y006757D03*
X017786Y006754D03*
X017786Y006752D03*
X017786Y006749D03*
X017786Y006747D03*
X017786Y006744D03*
X017786Y006742D03*
X017786Y006739D03*
X017786Y006737D03*
X017786Y006734D03*
X017786Y006732D03*
X017786Y006729D03*
X017786Y006727D03*
X017786Y006724D03*
X017786Y006722D03*
X017784Y006707D03*
X017784Y006704D03*
X017784Y006702D03*
X017781Y006697D03*
X017781Y006694D03*
X017779Y006682D03*
X017519Y007157D03*
X017129Y006797D03*
X016936Y006812D03*
X016921Y006797D03*
X016846Y006797D03*
X016709Y006822D03*
X016711Y006727D03*
X016659Y006667D03*
X016506Y006689D03*
X016489Y006739D03*
X016491Y006742D03*
X016569Y006807D03*
X016354Y006822D03*
X016356Y006672D03*
X016191Y006694D03*
X016189Y006859D03*
X002586Y006774D03*
X002586Y006772D03*
X002586Y006769D03*
X002586Y006767D03*
X002586Y006764D03*
X002586Y006762D03*
X002586Y006759D03*
X002586Y006757D03*
X002586Y006754D03*
X002586Y006752D03*
X002586Y006749D03*
X002586Y006747D03*
X002586Y006744D03*
X002586Y006742D03*
X002586Y006739D03*
X002586Y006737D03*
X002586Y006734D03*
X002586Y006732D03*
X002586Y006729D03*
X002586Y006727D03*
X002586Y006724D03*
X002586Y006722D03*
X002584Y006707D03*
X002584Y006704D03*
X002584Y006702D03*
X002581Y006697D03*
X002581Y006694D03*
X002579Y006682D03*
X002494Y006699D03*
X002494Y006702D03*
X002496Y006712D03*
X002496Y006714D03*
X002499Y006727D03*
X002499Y006729D03*
X002499Y006732D03*
X002499Y006734D03*
X002499Y006737D03*
X002499Y006739D03*
X002499Y006742D03*
X002499Y006744D03*
X002499Y006747D03*
X002499Y006749D03*
X002499Y006752D03*
X002499Y006754D03*
X002499Y006757D03*
X002499Y006759D03*
X002499Y006762D03*
X002499Y006764D03*
X002499Y006767D03*
X002499Y006769D03*
X002496Y006782D03*
X002496Y006784D03*
X002494Y006794D03*
X002494Y006797D03*
X002579Y006814D03*
X002581Y006802D03*
X002581Y006799D03*
X002584Y006794D03*
X002584Y006792D03*
X002584Y006789D03*
X002584Y006787D03*
X002584Y006784D03*
X002584Y006782D03*
X002454Y006884D03*
X002391Y006822D03*
X002409Y006777D03*
X002409Y006774D03*
X002409Y006772D03*
X002409Y006769D03*
X002411Y006764D03*
X002411Y006762D03*
X002411Y006759D03*
X002411Y006757D03*
X002414Y006754D03*
X002414Y006752D03*
X002414Y006744D03*
X002411Y006739D03*
X002411Y006737D03*
X002411Y006734D03*
X002411Y006732D03*
X002409Y006727D03*
X002409Y006724D03*
X002409Y006722D03*
X002391Y006677D03*
X002296Y006717D03*
X002319Y006887D03*
X002381Y006949D03*
X002364Y006994D03*
X002364Y006997D03*
X002364Y006999D03*
X002364Y007002D03*
X002364Y007004D03*
X002361Y007009D03*
X002361Y007012D03*
X002361Y007014D03*
X002361Y007017D03*
X002361Y007019D03*
X002361Y007022D03*
X002361Y007024D03*
X002361Y007027D03*
X002361Y007029D03*
X002361Y007032D03*
X002361Y007034D03*
X002364Y007039D03*
X002364Y007042D03*
X002364Y007044D03*
X002364Y007047D03*
X002364Y007049D03*
X002381Y007094D03*
X002319Y007157D03*
X002281Y007074D03*
X002279Y007069D03*
X002279Y007067D03*
X002279Y007064D03*
X002276Y007057D03*
X002276Y007054D03*
X002276Y007052D03*
X002276Y007049D03*
X002276Y007047D03*
X002274Y007042D03*
X002274Y007039D03*
X002274Y007037D03*
X002274Y007034D03*
X002274Y007032D03*
X002274Y007029D03*
X002274Y007027D03*
X002274Y007024D03*
X002274Y007022D03*
X002274Y007019D03*
X002274Y007017D03*
X002274Y007014D03*
X002274Y007012D03*
X002274Y007009D03*
X002274Y007007D03*
X002274Y007004D03*
X002274Y007002D03*
X002276Y006997D03*
X002276Y006994D03*
X002276Y006992D03*
X002276Y006989D03*
X002276Y006987D03*
X002279Y006982D03*
X002279Y006979D03*
X002279Y006977D03*
X002279Y006974D03*
X002281Y006969D03*
X002191Y006972D03*
X002191Y006974D03*
X002191Y006977D03*
X002191Y006979D03*
X002189Y006994D03*
X002189Y006997D03*
X002189Y006999D03*
X002189Y007002D03*
X002189Y007004D03*
X002189Y007007D03*
X002189Y007009D03*
X002189Y007012D03*
X002189Y007014D03*
X002189Y007017D03*
X002189Y007019D03*
X002189Y007022D03*
X002189Y007024D03*
X002189Y007027D03*
X002189Y007029D03*
X002189Y007032D03*
X002189Y007034D03*
X002189Y007037D03*
X002189Y007039D03*
X002189Y007042D03*
X002189Y007044D03*
X002189Y007047D03*
X002191Y007054D03*
X002191Y007057D03*
X002191Y007059D03*
X002191Y007062D03*
X002191Y007064D03*
X002191Y007067D03*
X002191Y007069D03*
X002476Y007052D03*
X002476Y006992D03*
X002516Y006947D03*
X002116Y006692D03*
X002181Y006522D03*
X002181Y006519D03*
X002269Y006512D03*
X002269Y006509D03*
X002269Y006507D03*
X002266Y006497D03*
X002266Y006494D03*
X002266Y006492D03*
X002271Y006522D03*
X002266Y006452D03*
X002266Y006449D03*
X002269Y006442D03*
X002269Y006439D03*
X002269Y006437D03*
X002269Y006434D03*
X002269Y006432D03*
X002271Y006424D03*
X002271Y006422D03*
X002356Y006442D03*
X002356Y006444D03*
X002354Y006452D03*
X002354Y006454D03*
X002354Y006457D03*
X002351Y006462D03*
X002351Y006464D03*
X002351Y006467D03*
X002351Y006469D03*
X002351Y006472D03*
X002351Y006474D03*
X002351Y006477D03*
X002351Y006479D03*
X002351Y006482D03*
X002354Y006489D03*
X002354Y006492D03*
X002356Y006499D03*
X002356Y006502D03*
X002466Y006502D03*
X002466Y006442D03*
X002246Y006272D03*
X002181Y006422D03*
X001929Y006797D03*
X001736Y006812D03*
X001721Y006797D03*
X001646Y006797D03*
X001509Y006822D03*
X001511Y006727D03*
X001459Y006667D03*
X001306Y006689D03*
X001289Y006739D03*
X001291Y006742D03*
X001369Y006807D03*
X001154Y006822D03*
X001156Y006672D03*
X000991Y006694D03*
X000989Y006859D03*
D81*
X001294Y006747D03*
X001464Y006669D03*
X001661Y006817D03*
X001739Y006809D03*
X001834Y006809D03*
X001834Y006807D03*
X001834Y006804D03*
X001834Y006802D03*
X001834Y006799D03*
X001944Y006817D03*
X002204Y006924D03*
X002204Y006927D03*
X002204Y006929D03*
X002201Y006932D03*
X002201Y006934D03*
X002201Y006937D03*
X002199Y006944D03*
X002194Y006962D03*
X002194Y006964D03*
X002206Y006922D03*
X002206Y006919D03*
X002209Y006917D03*
X002209Y006914D03*
X002209Y006912D03*
X002211Y006909D03*
X002211Y006907D03*
X002214Y006902D03*
X002291Y006939D03*
X002291Y006942D03*
X002289Y006947D03*
X002286Y006952D03*
X002294Y006937D03*
X002294Y006934D03*
X002296Y006932D03*
X002299Y006927D03*
X002319Y006889D03*
X002374Y006972D03*
X002371Y006977D03*
X002369Y006982D03*
X002369Y007062D03*
X002371Y007067D03*
X002374Y007072D03*
X002376Y007077D03*
X002299Y007117D03*
X002296Y007112D03*
X002294Y007109D03*
X002294Y007107D03*
X002291Y007104D03*
X002291Y007102D03*
X002289Y007097D03*
X002289Y007094D03*
X002319Y007154D03*
X002211Y007134D03*
X002209Y007129D03*
X002206Y007122D03*
X002206Y007119D03*
X002204Y007114D03*
X002204Y007112D03*
X002201Y007109D03*
X002201Y007107D03*
X002201Y007104D03*
X002199Y007102D03*
X002199Y007099D03*
X002199Y007097D03*
X002196Y007089D03*
X002194Y007082D03*
X002194Y007079D03*
X002194Y007077D03*
X002476Y007049D03*
X002476Y006994D03*
X002516Y006944D03*
X002551Y006884D03*
X002559Y006869D03*
X002561Y006867D03*
X002561Y006864D03*
X002564Y006862D03*
X002564Y006859D03*
X002566Y006854D03*
X002566Y006852D03*
X002569Y006849D03*
X002569Y006847D03*
X002571Y006839D03*
X002576Y006824D03*
X002491Y006804D03*
X002489Y006812D03*
X002486Y006817D03*
X002486Y006819D03*
X002484Y006822D03*
X002484Y006824D03*
X002484Y006827D03*
X002481Y006829D03*
X002479Y006834D03*
X002474Y006844D03*
X002454Y006882D03*
X002391Y006817D03*
X002399Y006799D03*
X002401Y006797D03*
X002401Y006794D03*
X002404Y006789D03*
X002404Y006707D03*
X002401Y006702D03*
X002391Y006679D03*
X002454Y006617D03*
X002476Y006654D03*
X002479Y006662D03*
X002481Y006667D03*
X002484Y006672D03*
X002484Y006674D03*
X002486Y006677D03*
X002486Y006679D03*
X002489Y006684D03*
X002571Y006657D03*
X002571Y006654D03*
X002569Y006649D03*
X002569Y006647D03*
X002566Y006644D03*
X002566Y006642D03*
X002564Y006637D03*
X002564Y006634D03*
X002561Y006632D03*
X002561Y006629D03*
X002559Y006627D03*
X002551Y006612D03*
X002516Y006554D03*
X002466Y006499D03*
X002466Y006444D03*
X002374Y006402D03*
X002369Y006414D03*
X002364Y006424D03*
X002361Y006429D03*
X002361Y006514D03*
X002364Y006519D03*
X002366Y006524D03*
X002369Y006529D03*
X002374Y006542D03*
X002291Y006569D03*
X002289Y006567D03*
X002289Y006564D03*
X002286Y006562D03*
X002286Y006559D03*
X002284Y006557D03*
X002284Y006554D03*
X002281Y006552D03*
X002281Y006549D03*
X002279Y006544D03*
X002276Y006537D03*
X002311Y006604D03*
X002204Y006592D03*
X002201Y006587D03*
X002199Y006584D03*
X002199Y006582D03*
X002199Y006579D03*
X002196Y006574D03*
X002194Y006569D03*
X002191Y006562D03*
X002191Y006559D03*
X002189Y006552D03*
X002186Y006547D03*
X002186Y006544D03*
X002179Y006439D03*
X002179Y006437D03*
X002179Y006434D03*
X002179Y006432D03*
X002184Y006409D03*
X002184Y006407D03*
X002186Y006399D03*
X002186Y006397D03*
X002189Y006394D03*
X002189Y006392D03*
X002189Y006389D03*
X002191Y006384D03*
X002191Y006382D03*
X002191Y006379D03*
X002194Y006374D03*
X002199Y006362D03*
X002281Y006392D03*
X002281Y006394D03*
X002284Y006389D03*
X002284Y006387D03*
X002286Y006384D03*
X002289Y006379D03*
X002291Y006374D03*
X002279Y006399D03*
X002279Y006402D03*
X002311Y006339D03*
X002246Y006274D03*
X002296Y006719D03*
X016494Y006747D03*
X016664Y006669D03*
X016861Y006817D03*
X016939Y006809D03*
X017034Y006809D03*
X017034Y006807D03*
X017034Y006804D03*
X017034Y006802D03*
X017034Y006799D03*
X017144Y006817D03*
X017404Y006924D03*
X017404Y006927D03*
X017404Y006929D03*
X017401Y006932D03*
X017401Y006934D03*
X017401Y006937D03*
X017399Y006944D03*
X017394Y006962D03*
X017394Y006964D03*
X017406Y006922D03*
X017406Y006919D03*
X017409Y006917D03*
X017409Y006914D03*
X017409Y006912D03*
X017411Y006909D03*
X017411Y006907D03*
X017414Y006902D03*
X017491Y006939D03*
X017491Y006942D03*
X017489Y006947D03*
X017486Y006952D03*
X017494Y006937D03*
X017494Y006934D03*
X017496Y006932D03*
X017499Y006927D03*
X017519Y006889D03*
X017574Y006972D03*
X017571Y006977D03*
X017569Y006982D03*
X017569Y007062D03*
X017571Y007067D03*
X017574Y007072D03*
X017576Y007077D03*
X017499Y007117D03*
X017496Y007112D03*
X017494Y007109D03*
X017494Y007107D03*
X017491Y007104D03*
X017491Y007102D03*
X017489Y007097D03*
X017489Y007094D03*
X017519Y007154D03*
X017411Y007134D03*
X017409Y007129D03*
X017406Y007122D03*
X017406Y007119D03*
X017404Y007114D03*
X017404Y007112D03*
X017401Y007109D03*
X017401Y007107D03*
X017401Y007104D03*
X017399Y007102D03*
X017399Y007099D03*
X017399Y007097D03*
X017396Y007089D03*
X017394Y007082D03*
X017394Y007079D03*
X017394Y007077D03*
X017676Y007049D03*
X017676Y006994D03*
X017716Y006944D03*
X017751Y006884D03*
X017759Y006869D03*
X017761Y006867D03*
X017761Y006864D03*
X017764Y006862D03*
X017764Y006859D03*
X017766Y006854D03*
X017766Y006852D03*
X017769Y006849D03*
X017769Y006847D03*
X017771Y006839D03*
X017776Y006824D03*
X017691Y006804D03*
X017689Y006812D03*
X017686Y006817D03*
X017686Y006819D03*
X017684Y006822D03*
X017684Y006824D03*
X017684Y006827D03*
X017681Y006829D03*
X017679Y006834D03*
X017674Y006844D03*
X017654Y006882D03*
X017591Y006817D03*
X017599Y006799D03*
X017601Y006797D03*
X017601Y006794D03*
X017604Y006789D03*
X017604Y006707D03*
X017601Y006702D03*
X017591Y006679D03*
X017654Y006617D03*
X017676Y006654D03*
X017679Y006662D03*
X017681Y006667D03*
X017684Y006672D03*
X017684Y006674D03*
X017686Y006677D03*
X017686Y006679D03*
X017689Y006684D03*
X017771Y006657D03*
X017771Y006654D03*
X017769Y006649D03*
X017769Y006647D03*
X017766Y006644D03*
X017766Y006642D03*
X017764Y006637D03*
X017764Y006634D03*
X017761Y006632D03*
X017761Y006629D03*
X017759Y006627D03*
X017751Y006612D03*
X017716Y006554D03*
X017666Y006499D03*
X017666Y006444D03*
X017574Y006402D03*
X017569Y006414D03*
X017564Y006424D03*
X017561Y006429D03*
X017561Y006514D03*
X017564Y006519D03*
X017566Y006524D03*
X017569Y006529D03*
X017574Y006542D03*
X017491Y006569D03*
X017489Y006567D03*
X017489Y006564D03*
X017486Y006562D03*
X017486Y006559D03*
X017484Y006557D03*
X017484Y006554D03*
X017481Y006552D03*
X017481Y006549D03*
X017479Y006544D03*
X017476Y006537D03*
X017511Y006604D03*
X017404Y006592D03*
X017401Y006587D03*
X017399Y006584D03*
X017399Y006582D03*
X017399Y006579D03*
X017396Y006574D03*
X017394Y006569D03*
X017391Y006562D03*
X017391Y006559D03*
X017389Y006552D03*
X017386Y006547D03*
X017386Y006544D03*
X017379Y006439D03*
X017379Y006437D03*
X017379Y006434D03*
X017379Y006432D03*
X017384Y006409D03*
X017384Y006407D03*
X017386Y006399D03*
X017386Y006397D03*
X017389Y006394D03*
X017389Y006392D03*
X017389Y006389D03*
X017391Y006384D03*
X017391Y006382D03*
X017391Y006379D03*
X017394Y006374D03*
X017399Y006362D03*
X017481Y006392D03*
X017481Y006394D03*
X017484Y006389D03*
X017484Y006387D03*
X017486Y006384D03*
X017489Y006379D03*
X017491Y006374D03*
X017479Y006399D03*
X017479Y006402D03*
X017511Y006339D03*
X017446Y006274D03*
X017496Y006719D03*
D82*
X017498Y006774D03*
X017458Y006827D03*
X017425Y006882D03*
X017423Y006884D03*
X017423Y006887D03*
X017420Y006889D03*
X017420Y006892D03*
X017418Y006894D03*
X017418Y006897D03*
X017415Y006899D03*
X017413Y006904D03*
X017498Y006929D03*
X017500Y006924D03*
X017503Y006922D03*
X017503Y006919D03*
X017505Y006917D03*
X017505Y006914D03*
X017508Y006912D03*
X017520Y006892D03*
X017583Y006954D03*
X017583Y006957D03*
X017578Y006964D03*
X017575Y006967D03*
X017575Y006969D03*
X017575Y007074D03*
X017578Y007079D03*
X017583Y007087D03*
X017583Y007089D03*
X017505Y007127D03*
X017505Y007129D03*
X017503Y007124D03*
X017503Y007122D03*
X017500Y007119D03*
X017498Y007114D03*
X017520Y007152D03*
X017458Y007217D03*
X017423Y007157D03*
X017420Y007152D03*
X017418Y007147D03*
X017415Y007142D03*
X017413Y007139D03*
X017413Y007137D03*
X017410Y007132D03*
X017408Y007127D03*
X017408Y007124D03*
X017223Y006884D03*
X017223Y006882D03*
X017223Y006879D03*
X017223Y006877D03*
X017223Y006874D03*
X017300Y006674D03*
X017408Y006602D03*
X017408Y006599D03*
X017405Y006597D03*
X017405Y006594D03*
X017403Y006589D03*
X017398Y006577D03*
X017395Y006572D03*
X017410Y006604D03*
X017413Y006607D03*
X017413Y006609D03*
X017448Y006667D03*
X017495Y006577D03*
X017493Y006572D03*
X017570Y006532D03*
X017568Y006527D03*
X017565Y006522D03*
X017565Y006422D03*
X017568Y006419D03*
X017568Y006417D03*
X017570Y006412D03*
X017573Y006409D03*
X017573Y006407D03*
X017573Y006404D03*
X017498Y006364D03*
X017495Y006367D03*
X017495Y006369D03*
X017493Y006372D03*
X017490Y006377D03*
X017488Y006382D03*
X017405Y006349D03*
X017405Y006347D03*
X017403Y006352D03*
X017403Y006354D03*
X017400Y006357D03*
X017400Y006359D03*
X017398Y006364D03*
X017398Y006367D03*
X017395Y006369D03*
X017395Y006372D03*
X017393Y006377D03*
X017413Y006334D03*
X017448Y006277D03*
X017590Y006682D03*
X017595Y006689D03*
X017598Y006694D03*
X017598Y006697D03*
X017600Y006699D03*
X017678Y006659D03*
X017678Y006657D03*
X017675Y006652D03*
X017673Y006649D03*
X017670Y006644D03*
X017680Y006664D03*
X017683Y006669D03*
X017758Y006624D03*
X017758Y006622D03*
X017755Y006619D03*
X017755Y006617D03*
X017753Y006614D03*
X017750Y006609D03*
X017748Y006607D03*
X017680Y006832D03*
X017678Y006837D03*
X017678Y006839D03*
X017675Y006842D03*
X017673Y006847D03*
X017670Y006852D03*
X017748Y006892D03*
X017750Y006887D03*
X017753Y006882D03*
X017755Y006879D03*
X017755Y006877D03*
X017758Y006874D03*
X017758Y006872D03*
X017715Y006942D03*
X017595Y006807D03*
X017598Y006802D03*
X016715Y006607D03*
X016563Y006799D03*
X016495Y006749D03*
X016523Y006879D03*
X016183Y006862D03*
X002558Y006872D03*
X002558Y006874D03*
X002555Y006877D03*
X002555Y006879D03*
X002553Y006882D03*
X002550Y006887D03*
X002548Y006892D03*
X002515Y006942D03*
X002470Y006852D03*
X002473Y006847D03*
X002475Y006842D03*
X002478Y006839D03*
X002478Y006837D03*
X002480Y006832D03*
X002398Y006802D03*
X002395Y006807D03*
X002298Y006774D03*
X002258Y006827D03*
X002225Y006882D03*
X002223Y006884D03*
X002223Y006887D03*
X002220Y006889D03*
X002220Y006892D03*
X002218Y006894D03*
X002218Y006897D03*
X002215Y006899D03*
X002213Y006904D03*
X002298Y006929D03*
X002300Y006924D03*
X002303Y006922D03*
X002303Y006919D03*
X002305Y006917D03*
X002305Y006914D03*
X002308Y006912D03*
X002320Y006892D03*
X002383Y006954D03*
X002383Y006957D03*
X002378Y006964D03*
X002375Y006967D03*
X002375Y006969D03*
X002375Y007074D03*
X002378Y007079D03*
X002383Y007087D03*
X002383Y007089D03*
X002305Y007127D03*
X002305Y007129D03*
X002303Y007124D03*
X002303Y007122D03*
X002300Y007119D03*
X002298Y007114D03*
X002320Y007152D03*
X002258Y007217D03*
X002223Y007157D03*
X002220Y007152D03*
X002218Y007147D03*
X002215Y007142D03*
X002213Y007139D03*
X002213Y007137D03*
X002210Y007132D03*
X002208Y007127D03*
X002208Y007124D03*
X002023Y006884D03*
X002023Y006882D03*
X002023Y006879D03*
X002023Y006877D03*
X002023Y006874D03*
X002100Y006674D03*
X002208Y006602D03*
X002208Y006599D03*
X002205Y006597D03*
X002205Y006594D03*
X002203Y006589D03*
X002198Y006577D03*
X002195Y006572D03*
X002210Y006604D03*
X002213Y006607D03*
X002213Y006609D03*
X002248Y006667D03*
X002295Y006577D03*
X002293Y006572D03*
X002370Y006532D03*
X002368Y006527D03*
X002365Y006522D03*
X002365Y006422D03*
X002368Y006419D03*
X002368Y006417D03*
X002370Y006412D03*
X002373Y006409D03*
X002373Y006407D03*
X002373Y006404D03*
X002298Y006364D03*
X002295Y006367D03*
X002295Y006369D03*
X002293Y006372D03*
X002290Y006377D03*
X002288Y006382D03*
X002205Y006349D03*
X002205Y006347D03*
X002203Y006352D03*
X002203Y006354D03*
X002200Y006357D03*
X002200Y006359D03*
X002198Y006364D03*
X002198Y006367D03*
X002195Y006369D03*
X002195Y006372D03*
X002193Y006377D03*
X002213Y006334D03*
X002248Y006277D03*
X002390Y006682D03*
X002395Y006689D03*
X002398Y006694D03*
X002398Y006697D03*
X002400Y006699D03*
X002478Y006659D03*
X002478Y006657D03*
X002475Y006652D03*
X002473Y006649D03*
X002470Y006644D03*
X002480Y006664D03*
X002483Y006669D03*
X002558Y006624D03*
X002558Y006622D03*
X002555Y006619D03*
X002555Y006617D03*
X002553Y006614D03*
X002550Y006609D03*
X002548Y006607D03*
X001515Y006607D03*
X001363Y006799D03*
X001295Y006749D03*
X001323Y006879D03*
X000983Y006862D03*
D83*
X000943Y006879D03*
X001360Y006797D03*
X001345Y006672D03*
X001508Y006819D03*
X001663Y006814D03*
X001945Y006814D03*
X002233Y006869D03*
X002235Y006864D03*
X002240Y006857D03*
X002243Y006854D03*
X002248Y006847D03*
X002250Y006844D03*
X002258Y006832D03*
X002298Y006772D03*
X002298Y006724D03*
X002248Y006662D03*
X002238Y006647D03*
X002233Y006639D03*
X002230Y006637D03*
X002228Y006634D03*
X002228Y006632D03*
X002225Y006629D03*
X002223Y006627D03*
X002220Y006622D03*
X002300Y006584D03*
X002303Y006587D03*
X002305Y006589D03*
X002308Y006594D03*
X002310Y006597D03*
X002310Y006599D03*
X002455Y006622D03*
X002455Y006624D03*
X002460Y006632D03*
X002463Y006634D03*
X002465Y006637D03*
X002530Y006579D03*
X002533Y006582D03*
X002535Y006584D03*
X002528Y006574D03*
X002525Y006572D03*
X002518Y006559D03*
X002543Y006597D03*
X002465Y006494D03*
X002468Y006449D03*
X002310Y006347D03*
X002310Y006344D03*
X002308Y006349D03*
X002305Y006354D03*
X002303Y006357D03*
X002225Y006314D03*
X002223Y006317D03*
X002220Y006319D03*
X002220Y006322D03*
X002218Y006324D03*
X002228Y006309D03*
X002248Y006279D03*
X002465Y006859D03*
X002463Y006862D03*
X002460Y006864D03*
X002455Y006874D03*
X002525Y006924D03*
X002528Y006922D03*
X002530Y006917D03*
X002533Y006914D03*
X002535Y006912D03*
X002540Y006904D03*
X002518Y006937D03*
X002475Y007044D03*
X002318Y007144D03*
X002318Y007147D03*
X002315Y007142D03*
X002313Y007139D03*
X002235Y007177D03*
X002235Y007179D03*
X002238Y007182D03*
X002233Y007174D03*
X002230Y007169D03*
X002258Y007212D03*
X002313Y006904D03*
X002315Y006902D03*
X002318Y006899D03*
X002318Y006897D03*
X016143Y006879D03*
X016560Y006797D03*
X016545Y006672D03*
X016708Y006819D03*
X016863Y006814D03*
X017145Y006814D03*
X017433Y006869D03*
X017435Y006864D03*
X017440Y006857D03*
X017443Y006854D03*
X017448Y006847D03*
X017450Y006844D03*
X017458Y006832D03*
X017498Y006772D03*
X017498Y006724D03*
X017448Y006662D03*
X017438Y006647D03*
X017433Y006639D03*
X017430Y006637D03*
X017428Y006634D03*
X017428Y006632D03*
X017425Y006629D03*
X017423Y006627D03*
X017420Y006622D03*
X017500Y006584D03*
X017503Y006587D03*
X017505Y006589D03*
X017508Y006594D03*
X017510Y006597D03*
X017510Y006599D03*
X017655Y006622D03*
X017655Y006624D03*
X017660Y006632D03*
X017663Y006634D03*
X017665Y006637D03*
X017730Y006579D03*
X017733Y006582D03*
X017735Y006584D03*
X017728Y006574D03*
X017725Y006572D03*
X017718Y006559D03*
X017743Y006597D03*
X017665Y006494D03*
X017668Y006449D03*
X017510Y006347D03*
X017510Y006344D03*
X017508Y006349D03*
X017505Y006354D03*
X017503Y006357D03*
X017425Y006314D03*
X017423Y006317D03*
X017420Y006319D03*
X017420Y006322D03*
X017418Y006324D03*
X017428Y006309D03*
X017448Y006279D03*
X017665Y006859D03*
X017663Y006862D03*
X017660Y006864D03*
X017655Y006874D03*
X017725Y006924D03*
X017728Y006922D03*
X017730Y006917D03*
X017733Y006914D03*
X017735Y006912D03*
X017740Y006904D03*
X017718Y006937D03*
X017675Y007044D03*
X017518Y007144D03*
X017518Y007147D03*
X017515Y007142D03*
X017513Y007139D03*
X017435Y007177D03*
X017435Y007179D03*
X017438Y007182D03*
X017433Y007174D03*
X017430Y007169D03*
X017458Y007212D03*
X017513Y006904D03*
X017515Y006902D03*
X017518Y006899D03*
X017518Y006897D03*
D84*
X017446Y006849D03*
X017444Y006852D03*
X017451Y006842D03*
X017454Y006839D03*
X017456Y006834D03*
X017496Y006727D03*
X017446Y006659D03*
X017444Y006654D03*
X017441Y006652D03*
X017439Y006649D03*
X017436Y006644D03*
X017434Y006642D03*
X017506Y006592D03*
X017656Y006627D03*
X017659Y006629D03*
X017729Y006577D03*
X017724Y006569D03*
X017721Y006567D03*
X017719Y006564D03*
X017719Y006562D03*
X017666Y006492D03*
X017666Y006452D03*
X017506Y006352D03*
X017434Y006302D03*
X017431Y006304D03*
X017429Y006307D03*
X017426Y006312D03*
X017436Y006297D03*
X017439Y006294D03*
X017446Y006282D03*
X017659Y006867D03*
X017656Y006869D03*
X017656Y006872D03*
X017719Y006932D03*
X017719Y006934D03*
X017721Y006929D03*
X017724Y006927D03*
X017729Y006919D03*
X017676Y006999D03*
X017676Y007002D03*
X017676Y007042D03*
X017449Y007197D03*
X017446Y007194D03*
X017444Y007189D03*
X017441Y007187D03*
X017439Y007184D03*
X017456Y007209D03*
X016711Y006729D03*
X016556Y006794D03*
X016501Y006754D03*
X016354Y006819D03*
X016356Y006674D03*
X016144Y006672D03*
X002529Y006577D03*
X002524Y006569D03*
X002521Y006567D03*
X002519Y006564D03*
X002519Y006562D03*
X002466Y006492D03*
X002466Y006452D03*
X002456Y006627D03*
X002459Y006629D03*
X002306Y006592D03*
X002236Y006644D03*
X002234Y006642D03*
X002239Y006649D03*
X002241Y006652D03*
X002244Y006654D03*
X002246Y006659D03*
X002296Y006727D03*
X002256Y006834D03*
X002254Y006839D03*
X002251Y006842D03*
X002246Y006849D03*
X002244Y006852D03*
X002456Y006869D03*
X002456Y006872D03*
X002459Y006867D03*
X002529Y006919D03*
X002524Y006927D03*
X002521Y006929D03*
X002519Y006932D03*
X002519Y006934D03*
X002476Y006999D03*
X002476Y007002D03*
X002476Y007042D03*
X002249Y007197D03*
X002246Y007194D03*
X002244Y007189D03*
X002241Y007187D03*
X002239Y007184D03*
X002256Y007209D03*
X001511Y006729D03*
X001356Y006794D03*
X001301Y006754D03*
X001154Y006819D03*
X001156Y006674D03*
X000944Y006672D03*
X002226Y006312D03*
X002229Y006307D03*
X002231Y006304D03*
X002234Y006302D03*
X002236Y006297D03*
X002239Y006294D03*
X002246Y006282D03*
X002306Y006352D03*
D85*
X002235Y006299D03*
X002240Y006292D03*
X002243Y006289D03*
X002245Y006287D03*
X002245Y006284D03*
X002245Y006657D03*
X002298Y006767D03*
X002298Y006769D03*
X002255Y006837D03*
X002245Y007192D03*
X002250Y007199D03*
X002253Y007202D03*
X002255Y007204D03*
X002255Y007207D03*
X001515Y006697D03*
X001470Y006672D03*
X001455Y006799D03*
X001353Y006792D03*
X001305Y006757D03*
X016505Y006757D03*
X016553Y006792D03*
X016655Y006799D03*
X016715Y006697D03*
X016670Y006672D03*
X017445Y006657D03*
X017498Y006767D03*
X017498Y006769D03*
X017455Y006837D03*
X017445Y007192D03*
X017450Y007199D03*
X017453Y007202D03*
X017455Y007204D03*
X017455Y007207D03*
X017435Y006299D03*
X017440Y006292D03*
X017443Y006289D03*
X017445Y006287D03*
X017445Y006284D03*
D86*
X017510Y006327D03*
X017573Y006389D03*
X017718Y006542D03*
X017655Y006604D03*
X017573Y006554D03*
X017510Y006617D03*
X017448Y006679D03*
X017495Y006712D03*
X017458Y006814D03*
X017518Y006877D03*
X017593Y006832D03*
X017655Y006894D03*
X017580Y006939D03*
X017675Y006987D03*
X017675Y007057D03*
X017580Y007104D03*
X017518Y007167D03*
X017458Y007229D03*
X017023Y006884D03*
X017023Y006857D03*
X017023Y006817D03*
X017323Y006822D03*
X017323Y006824D03*
X016758Y006657D03*
X016755Y006664D03*
X016753Y006667D03*
X016750Y006669D03*
X016715Y006604D03*
X016668Y006624D03*
X016665Y006627D03*
X016660Y006632D03*
X016658Y006634D03*
X016655Y006637D03*
X016655Y006639D03*
X016653Y006642D03*
X016653Y006644D03*
X016653Y006647D03*
X016585Y006692D03*
X016673Y006749D03*
X016670Y006754D03*
X016668Y006787D03*
X016670Y006794D03*
X016525Y006882D03*
X016485Y006859D03*
X016100Y006859D03*
X002518Y006542D03*
X002455Y006604D03*
X002373Y006554D03*
X002310Y006617D03*
X002248Y006679D03*
X002295Y006712D03*
X002258Y006814D03*
X002318Y006877D03*
X002393Y006832D03*
X002455Y006894D03*
X002380Y006939D03*
X002475Y006987D03*
X002475Y007057D03*
X002380Y007104D03*
X002318Y007167D03*
X002258Y007229D03*
X002123Y006824D03*
X002123Y006822D03*
X001823Y006817D03*
X001823Y006857D03*
X001823Y006884D03*
X001555Y006664D03*
X001553Y006667D03*
X001550Y006669D03*
X001558Y006657D03*
X001515Y006604D03*
X001468Y006624D03*
X001465Y006627D03*
X001460Y006632D03*
X001458Y006634D03*
X001455Y006637D03*
X001455Y006639D03*
X001453Y006642D03*
X001453Y006644D03*
X001453Y006647D03*
X001385Y006692D03*
X001473Y006749D03*
X001470Y006754D03*
X001468Y006787D03*
X001470Y006794D03*
X001325Y006882D03*
X001285Y006859D03*
X000900Y006859D03*
X002310Y006327D03*
X002373Y006389D03*
D87*
X002301Y006359D03*
X002299Y006362D03*
X002311Y006342D03*
X002216Y006329D03*
X002216Y006327D03*
X002214Y006332D03*
X002211Y006337D03*
X002209Y006339D03*
X002209Y006342D03*
X002206Y006344D03*
X002371Y006534D03*
X002374Y006537D03*
X002374Y006539D03*
X002299Y006582D03*
X002296Y006579D03*
X002294Y006574D03*
X002311Y006602D03*
X002249Y006664D03*
X002221Y006624D03*
X002219Y006619D03*
X002216Y006617D03*
X002216Y006614D03*
X002214Y006612D03*
X002296Y006722D03*
X002391Y006684D03*
X002394Y006687D03*
X002396Y006692D03*
X002471Y006647D03*
X002469Y006642D03*
X002466Y006639D03*
X002454Y006619D03*
X002516Y006557D03*
X002536Y006587D03*
X002539Y006589D03*
X002539Y006592D03*
X002541Y006594D03*
X002544Y006599D03*
X002546Y006602D03*
X002546Y006604D03*
X002466Y006497D03*
X002466Y006447D03*
X002396Y006804D03*
X002394Y006809D03*
X002391Y006812D03*
X002391Y006814D03*
X002466Y006857D03*
X002469Y006854D03*
X002471Y006849D03*
X002454Y006877D03*
X002454Y006879D03*
X002516Y006939D03*
X002536Y006909D03*
X002539Y006907D03*
X002541Y006902D03*
X002544Y006899D03*
X002544Y006897D03*
X002546Y006894D03*
X002549Y006889D03*
X002476Y006997D03*
X002476Y007047D03*
X002381Y007084D03*
X002379Y007082D03*
X002309Y007132D03*
X002309Y007134D03*
X002311Y007137D03*
X002319Y007149D03*
X002259Y007214D03*
X002231Y007172D03*
X002229Y007167D03*
X002226Y007164D03*
X002226Y007162D03*
X002224Y007159D03*
X002221Y007154D03*
X002219Y007149D03*
X002216Y007144D03*
X002379Y006962D03*
X002381Y006959D03*
X002311Y006907D03*
X002309Y006909D03*
X002319Y006894D03*
X002239Y006859D03*
X002236Y006862D03*
X002234Y006867D03*
X002231Y006872D03*
X002229Y006874D03*
X002229Y006877D03*
X002226Y006879D03*
X002259Y006829D03*
X001299Y006752D03*
X000981Y006689D03*
X016181Y006689D03*
X016499Y006752D03*
X017414Y006612D03*
X017416Y006614D03*
X017416Y006617D03*
X017419Y006619D03*
X017421Y006624D03*
X017449Y006664D03*
X017496Y006722D03*
X017591Y006684D03*
X017594Y006687D03*
X017596Y006692D03*
X017671Y006647D03*
X017669Y006642D03*
X017666Y006639D03*
X017654Y006619D03*
X017716Y006557D03*
X017736Y006587D03*
X017739Y006589D03*
X017739Y006592D03*
X017741Y006594D03*
X017744Y006599D03*
X017746Y006602D03*
X017746Y006604D03*
X017666Y006497D03*
X017666Y006447D03*
X017574Y006537D03*
X017574Y006539D03*
X017571Y006534D03*
X017499Y006582D03*
X017496Y006579D03*
X017494Y006574D03*
X017511Y006602D03*
X017596Y006804D03*
X017594Y006809D03*
X017591Y006812D03*
X017591Y006814D03*
X017666Y006857D03*
X017669Y006854D03*
X017671Y006849D03*
X017654Y006877D03*
X017654Y006879D03*
X017716Y006939D03*
X017736Y006909D03*
X017739Y006907D03*
X017741Y006902D03*
X017744Y006899D03*
X017744Y006897D03*
X017746Y006894D03*
X017749Y006889D03*
X017676Y006997D03*
X017676Y007047D03*
X017581Y007084D03*
X017579Y007082D03*
X017509Y007132D03*
X017509Y007134D03*
X017511Y007137D03*
X017519Y007149D03*
X017459Y007214D03*
X017431Y007172D03*
X017429Y007167D03*
X017426Y007164D03*
X017426Y007162D03*
X017424Y007159D03*
X017421Y007154D03*
X017419Y007149D03*
X017416Y007144D03*
X017579Y006962D03*
X017581Y006959D03*
X017511Y006907D03*
X017509Y006909D03*
X017519Y006894D03*
X017439Y006859D03*
X017436Y006862D03*
X017434Y006867D03*
X017431Y006872D03*
X017429Y006874D03*
X017429Y006877D03*
X017426Y006879D03*
X017459Y006829D03*
X017499Y006362D03*
X017501Y006359D03*
X017511Y006342D03*
X017416Y006329D03*
X017416Y006327D03*
X017414Y006332D03*
X017411Y006337D03*
X017409Y006339D03*
X017409Y006342D03*
X017406Y006344D03*
D88*
X017510Y006329D03*
X017573Y006392D03*
X017718Y006544D03*
X017655Y006607D03*
X017573Y006552D03*
X017510Y006614D03*
X017448Y006677D03*
X017498Y006782D03*
X017458Y006817D03*
X017518Y006879D03*
X017580Y006942D03*
X017655Y006892D03*
X017593Y006829D03*
X017325Y006819D03*
X017323Y006704D03*
X017323Y006702D03*
X017120Y006779D03*
X017120Y006782D03*
X017120Y006784D03*
X017123Y006789D03*
X017023Y006859D03*
X017023Y006862D03*
X017023Y006879D03*
X017023Y006882D03*
X016930Y006817D03*
X016838Y006784D03*
X016838Y006782D03*
X016838Y006779D03*
X016753Y006779D03*
X016753Y006777D03*
X016753Y006774D03*
X016753Y006772D03*
X016753Y006769D03*
X016753Y006767D03*
X016753Y006764D03*
X016750Y006759D03*
X016750Y006757D03*
X016750Y006754D03*
X016748Y006752D03*
X016748Y006749D03*
X016745Y006747D03*
X016743Y006744D03*
X016715Y006724D03*
X016683Y006739D03*
X016753Y006782D03*
X016750Y006789D03*
X016748Y006797D03*
X016743Y006804D03*
X016740Y006807D03*
X016578Y006824D03*
X016578Y006827D03*
X016578Y006829D03*
X016578Y006832D03*
X016575Y006842D03*
X016570Y006852D03*
X016568Y006854D03*
X016565Y006857D03*
X016485Y006717D03*
X016485Y006714D03*
X016485Y006712D03*
X016488Y006709D03*
X016488Y006707D03*
X016490Y006702D03*
X016493Y006699D03*
X016408Y006717D03*
X016408Y006719D03*
X016405Y006712D03*
X016405Y006709D03*
X016403Y006704D03*
X016400Y006702D03*
X016400Y006699D03*
X016398Y006697D03*
X016395Y006694D03*
X016393Y006692D03*
X016410Y006729D03*
X016410Y006764D03*
X016408Y006774D03*
X016408Y006777D03*
X016405Y006782D03*
X016405Y006784D03*
X016403Y006787D03*
X016403Y006789D03*
X016400Y006792D03*
X016398Y006797D03*
X016395Y006799D03*
X016393Y006802D03*
X016390Y006804D03*
X016318Y006802D03*
X016315Y006799D03*
X016313Y006797D03*
X016310Y006794D03*
X016310Y006792D03*
X016308Y006789D03*
X016308Y006787D03*
X016305Y006784D03*
X016305Y006782D03*
X016303Y006777D03*
X016303Y006774D03*
X016300Y006764D03*
X016300Y006729D03*
X016303Y006719D03*
X016303Y006717D03*
X016305Y006712D03*
X016305Y006709D03*
X016308Y006707D03*
X016308Y006704D03*
X016310Y006702D03*
X016310Y006699D03*
X016313Y006697D03*
X016315Y006694D03*
X016318Y006692D03*
X016320Y006689D03*
X016103Y006689D03*
X016653Y006659D03*
X016653Y006657D03*
X016673Y006622D03*
X016755Y006634D03*
X016758Y006637D03*
X016758Y006639D03*
X016758Y006642D03*
X017213Y006892D03*
X017518Y007164D03*
X017458Y007227D03*
X017580Y007102D03*
X002518Y006544D03*
X002455Y006607D03*
X002373Y006552D03*
X002310Y006614D03*
X002248Y006677D03*
X002298Y006782D03*
X002258Y006817D03*
X002318Y006879D03*
X002380Y006942D03*
X002455Y006892D03*
X002393Y006829D03*
X002125Y006819D03*
X002123Y006704D03*
X002123Y006702D03*
X001920Y006779D03*
X001920Y006782D03*
X001920Y006784D03*
X001923Y006789D03*
X001823Y006859D03*
X001823Y006862D03*
X001823Y006879D03*
X001823Y006882D03*
X001730Y006817D03*
X001638Y006784D03*
X001638Y006782D03*
X001638Y006779D03*
X001553Y006779D03*
X001553Y006777D03*
X001553Y006774D03*
X001553Y006772D03*
X001553Y006769D03*
X001553Y006767D03*
X001553Y006764D03*
X001550Y006759D03*
X001550Y006757D03*
X001550Y006754D03*
X001548Y006752D03*
X001548Y006749D03*
X001545Y006747D03*
X001543Y006744D03*
X001515Y006724D03*
X001483Y006739D03*
X001553Y006782D03*
X001550Y006789D03*
X001548Y006797D03*
X001543Y006804D03*
X001540Y006807D03*
X001378Y006824D03*
X001378Y006827D03*
X001378Y006829D03*
X001378Y006832D03*
X001375Y006842D03*
X001370Y006852D03*
X001368Y006854D03*
X001365Y006857D03*
X001285Y006717D03*
X001285Y006714D03*
X001285Y006712D03*
X001288Y006709D03*
X001288Y006707D03*
X001290Y006702D03*
X001293Y006699D03*
X001208Y006717D03*
X001208Y006719D03*
X001205Y006712D03*
X001205Y006709D03*
X001203Y006704D03*
X001200Y006702D03*
X001200Y006699D03*
X001198Y006697D03*
X001195Y006694D03*
X001193Y006692D03*
X001210Y006729D03*
X001210Y006764D03*
X001208Y006774D03*
X001208Y006777D03*
X001205Y006782D03*
X001205Y006784D03*
X001203Y006787D03*
X001203Y006789D03*
X001200Y006792D03*
X001198Y006797D03*
X001195Y006799D03*
X001193Y006802D03*
X001190Y006804D03*
X001118Y006802D03*
X001115Y006799D03*
X001113Y006797D03*
X001110Y006794D03*
X001110Y006792D03*
X001108Y006789D03*
X001108Y006787D03*
X001105Y006784D03*
X001105Y006782D03*
X001103Y006777D03*
X001103Y006774D03*
X001100Y006764D03*
X001100Y006729D03*
X001103Y006719D03*
X001103Y006717D03*
X001105Y006712D03*
X001105Y006709D03*
X001108Y006707D03*
X001108Y006704D03*
X001110Y006702D03*
X001110Y006699D03*
X001113Y006697D03*
X001115Y006694D03*
X001118Y006692D03*
X001120Y006689D03*
X000903Y006689D03*
X001453Y006659D03*
X001453Y006657D03*
X001473Y006622D03*
X001555Y006634D03*
X001558Y006637D03*
X001558Y006639D03*
X001558Y006642D03*
X002013Y006892D03*
X002318Y007164D03*
X002258Y007227D03*
X002380Y007102D03*
X002373Y006392D03*
X002310Y006329D03*
D89*
X002310Y006332D03*
X002373Y006394D03*
X002373Y006549D03*
X002310Y006612D03*
X002248Y006674D03*
X002120Y006694D03*
X002128Y006817D03*
X002258Y006819D03*
X002393Y006827D03*
X002380Y006944D03*
X002475Y006989D03*
X002380Y007099D03*
X002318Y007162D03*
X002258Y007224D03*
X001823Y006877D03*
X001823Y006874D03*
X001823Y006872D03*
X001823Y006869D03*
X001823Y006867D03*
X001823Y006864D03*
X001538Y006739D03*
X001553Y006629D03*
X001550Y006627D03*
X001548Y006624D03*
X001380Y006689D03*
X001300Y006692D03*
X001285Y006727D03*
X001285Y006729D03*
X001285Y006732D03*
X001185Y006687D03*
X001125Y006687D03*
X001023Y006732D03*
X001023Y006734D03*
X001025Y006739D03*
X001025Y006742D03*
X001028Y006747D03*
X001028Y006749D03*
X001028Y006752D03*
X001028Y006754D03*
X001030Y006759D03*
X001030Y006762D03*
X001030Y006764D03*
X001030Y006767D03*
X001030Y006769D03*
X001030Y006772D03*
X001030Y006774D03*
X001030Y006777D03*
X001030Y006779D03*
X001030Y006782D03*
X001030Y006784D03*
X001030Y006787D03*
X001030Y006789D03*
X001030Y006792D03*
X001028Y006797D03*
X001028Y006799D03*
X001028Y006802D03*
X001028Y006804D03*
X001025Y006809D03*
X001025Y006812D03*
X001023Y006817D03*
X001023Y006819D03*
X001020Y006824D03*
X001018Y006829D03*
X001015Y006834D03*
X001013Y006837D03*
X001013Y006839D03*
X001010Y006842D03*
X001008Y006844D03*
X001005Y006847D03*
X001003Y006849D03*
X000905Y006862D03*
X001020Y006727D03*
X001018Y006722D03*
X001015Y006719D03*
X001015Y006717D03*
X001013Y006714D03*
X001010Y006712D03*
X001008Y006707D03*
X001120Y006804D03*
X001125Y006807D03*
X001185Y006807D03*
X001375Y006817D03*
X002393Y006672D03*
X002455Y006609D03*
X002518Y006547D03*
X016105Y006862D03*
X016203Y006849D03*
X016205Y006847D03*
X016208Y006844D03*
X016210Y006842D03*
X016213Y006839D03*
X016213Y006837D03*
X016215Y006834D03*
X016218Y006829D03*
X016220Y006824D03*
X016223Y006819D03*
X016223Y006817D03*
X016225Y006812D03*
X016225Y006809D03*
X016228Y006804D03*
X016228Y006802D03*
X016228Y006799D03*
X016228Y006797D03*
X016230Y006792D03*
X016230Y006789D03*
X016230Y006787D03*
X016230Y006784D03*
X016230Y006782D03*
X016230Y006779D03*
X016230Y006777D03*
X016230Y006774D03*
X016230Y006772D03*
X016230Y006769D03*
X016230Y006767D03*
X016230Y006764D03*
X016230Y006762D03*
X016230Y006759D03*
X016228Y006754D03*
X016228Y006752D03*
X016228Y006749D03*
X016228Y006747D03*
X016225Y006742D03*
X016225Y006739D03*
X016223Y006734D03*
X016223Y006732D03*
X016220Y006727D03*
X016218Y006722D03*
X016215Y006719D03*
X016215Y006717D03*
X016213Y006714D03*
X016210Y006712D03*
X016208Y006707D03*
X016325Y006687D03*
X016385Y006687D03*
X016485Y006727D03*
X016485Y006729D03*
X016485Y006732D03*
X016500Y006692D03*
X016580Y006689D03*
X016575Y006817D03*
X016738Y006739D03*
X016753Y006629D03*
X016750Y006627D03*
X016748Y006624D03*
X017023Y006864D03*
X017023Y006867D03*
X017023Y006869D03*
X017023Y006872D03*
X017023Y006874D03*
X017023Y006877D03*
X017328Y006817D03*
X017320Y006694D03*
X017448Y006674D03*
X017510Y006612D03*
X017573Y006549D03*
X017655Y006609D03*
X017718Y006547D03*
X017593Y006672D03*
X017593Y006827D03*
X017580Y006944D03*
X017675Y006989D03*
X017580Y007099D03*
X017518Y007162D03*
X017458Y007224D03*
X017458Y006819D03*
X017573Y006394D03*
X017510Y006332D03*
X016385Y006807D03*
X016325Y006807D03*
X016320Y006804D03*
D90*
X016193Y006857D03*
X016195Y006697D03*
X016488Y006737D03*
X016558Y006862D03*
X016745Y006622D03*
X016860Y006819D03*
X017030Y006812D03*
X017143Y006819D03*
X017458Y006822D03*
X017498Y006779D03*
X017610Y006767D03*
X017613Y006749D03*
X017613Y006747D03*
X017613Y006742D03*
X017610Y006729D03*
X017593Y006674D03*
X017655Y006612D03*
X017718Y006549D03*
X017573Y006547D03*
X017555Y006497D03*
X017555Y006494D03*
X017555Y006449D03*
X017555Y006447D03*
X017573Y006397D03*
X017510Y006334D03*
X017465Y006454D03*
X017465Y006457D03*
X017465Y006459D03*
X017465Y006462D03*
X017465Y006464D03*
X017465Y006467D03*
X017465Y006469D03*
X017465Y006472D03*
X017465Y006474D03*
X017465Y006477D03*
X017465Y006479D03*
X017465Y006482D03*
X017465Y006484D03*
X017465Y006487D03*
X017465Y006489D03*
X017510Y006609D03*
X017448Y006672D03*
X017580Y006947D03*
X017580Y007097D03*
X017458Y007222D03*
X017783Y006797D03*
X017783Y006699D03*
X002583Y006699D03*
X002583Y006797D03*
X002410Y006767D03*
X002413Y006749D03*
X002413Y006747D03*
X002413Y006742D03*
X002410Y006729D03*
X002393Y006674D03*
X002455Y006612D03*
X002518Y006549D03*
X002373Y006547D03*
X002355Y006497D03*
X002355Y006494D03*
X002355Y006449D03*
X002355Y006447D03*
X002373Y006397D03*
X002310Y006334D03*
X002265Y006454D03*
X002265Y006457D03*
X002265Y006459D03*
X002265Y006462D03*
X002265Y006464D03*
X002265Y006467D03*
X002265Y006469D03*
X002265Y006472D03*
X002265Y006474D03*
X002265Y006477D03*
X002265Y006479D03*
X002265Y006482D03*
X002265Y006484D03*
X002265Y006487D03*
X002265Y006489D03*
X002310Y006609D03*
X002248Y006672D03*
X002298Y006779D03*
X002258Y006822D03*
X002380Y006947D03*
X002380Y007097D03*
X002258Y007222D03*
X001943Y006819D03*
X001830Y006812D03*
X001660Y006819D03*
X001545Y006622D03*
X001288Y006737D03*
X001358Y006862D03*
X000993Y006857D03*
X000995Y006697D03*
D91*
X000988Y006692D03*
X001293Y006744D03*
X001365Y006802D03*
X001368Y006804D03*
X001523Y006699D03*
X002003Y006797D03*
X002020Y006887D03*
X002198Y006947D03*
X002198Y006949D03*
X002198Y006952D03*
X002195Y006954D03*
X002195Y006957D03*
X002195Y006959D03*
X002193Y006967D03*
X002193Y006969D03*
X002190Y006982D03*
X002190Y006984D03*
X002190Y006987D03*
X002190Y006989D03*
X002190Y006992D03*
X002200Y006942D03*
X002200Y006939D03*
X002283Y006962D03*
X002283Y006964D03*
X002283Y006967D03*
X002280Y006972D03*
X002278Y006984D03*
X002275Y006999D03*
X002285Y006959D03*
X002285Y006957D03*
X002285Y006954D03*
X002288Y006949D03*
X002290Y006944D03*
X002368Y006984D03*
X002368Y006987D03*
X002365Y006989D03*
X002365Y006992D03*
X002370Y006979D03*
X002373Y006974D03*
X002383Y006952D03*
X002363Y007007D03*
X002363Y007037D03*
X002365Y007052D03*
X002365Y007054D03*
X002368Y007057D03*
X002368Y007059D03*
X002370Y007064D03*
X002373Y007069D03*
X002383Y007092D03*
X002290Y007099D03*
X002288Y007092D03*
X002285Y007089D03*
X002285Y007087D03*
X002285Y007084D03*
X002283Y007082D03*
X002283Y007079D03*
X002283Y007077D03*
X002280Y007072D03*
X002278Y007062D03*
X002278Y007059D03*
X002275Y007044D03*
X002190Y007049D03*
X002190Y007052D03*
X002193Y007072D03*
X002193Y007074D03*
X002195Y007084D03*
X002195Y007087D03*
X002198Y007092D03*
X002198Y007094D03*
X002205Y007117D03*
X002258Y007219D03*
X002565Y006857D03*
X002570Y006844D03*
X002570Y006842D03*
X002573Y006837D03*
X002573Y006834D03*
X002573Y006832D03*
X002575Y006829D03*
X002575Y006827D03*
X002578Y006822D03*
X002578Y006819D03*
X002578Y006817D03*
X002580Y006812D03*
X002580Y006809D03*
X002580Y006807D03*
X002580Y006804D03*
X002585Y006779D03*
X002585Y006777D03*
X002585Y006719D03*
X002585Y006717D03*
X002585Y006714D03*
X002585Y006712D03*
X002585Y006709D03*
X002580Y006692D03*
X002580Y006689D03*
X002580Y006687D03*
X002580Y006684D03*
X002578Y006679D03*
X002578Y006677D03*
X002578Y006674D03*
X002575Y006672D03*
X002575Y006669D03*
X002575Y006667D03*
X002573Y006664D03*
X002573Y006662D03*
X002573Y006659D03*
X002570Y006652D03*
X002565Y006639D03*
X002488Y006682D03*
X002490Y006687D03*
X002490Y006689D03*
X002490Y006692D03*
X002493Y006694D03*
X002493Y006697D03*
X002495Y006704D03*
X002495Y006707D03*
X002495Y006709D03*
X002498Y006717D03*
X002498Y006719D03*
X002498Y006722D03*
X002498Y006724D03*
X002498Y006772D03*
X002498Y006774D03*
X002498Y006777D03*
X002498Y006779D03*
X002495Y006787D03*
X002495Y006789D03*
X002495Y006792D03*
X002493Y006799D03*
X002493Y006802D03*
X002490Y006807D03*
X002490Y006809D03*
X002488Y006814D03*
X002408Y006782D03*
X002408Y006779D03*
X002405Y006784D03*
X002405Y006787D03*
X002403Y006792D03*
X002390Y006819D03*
X002408Y006719D03*
X002408Y006717D03*
X002408Y006714D03*
X002405Y006712D03*
X002405Y006709D03*
X002403Y006704D03*
X002455Y006614D03*
X002518Y006552D03*
X002373Y006544D03*
X002363Y006517D03*
X002360Y006512D03*
X002360Y006509D03*
X002358Y006507D03*
X002358Y006504D03*
X002353Y006487D03*
X002353Y006484D03*
X002353Y006459D03*
X002358Y006439D03*
X002358Y006437D03*
X002360Y006434D03*
X002360Y006432D03*
X002363Y006427D03*
X002373Y006399D03*
X002310Y006337D03*
X002280Y006397D03*
X002278Y006404D03*
X002278Y006407D03*
X002275Y006409D03*
X002275Y006412D03*
X002273Y006414D03*
X002273Y006417D03*
X002273Y006419D03*
X002270Y006427D03*
X002270Y006429D03*
X002268Y006444D03*
X002268Y006447D03*
X002268Y006499D03*
X002268Y006502D03*
X002268Y006504D03*
X002270Y006514D03*
X002270Y006517D03*
X002270Y006519D03*
X002273Y006524D03*
X002273Y006527D03*
X002273Y006529D03*
X002275Y006532D03*
X002275Y006534D03*
X002278Y006539D03*
X002278Y006542D03*
X002280Y006547D03*
X002310Y006607D03*
X002248Y006669D03*
X002193Y006567D03*
X002193Y006564D03*
X002190Y006557D03*
X002190Y006554D03*
X002188Y006549D03*
X002185Y006542D03*
X002185Y006539D03*
X002185Y006537D03*
X002183Y006534D03*
X002183Y006532D03*
X002183Y006529D03*
X002183Y006527D03*
X002183Y006524D03*
X002180Y006517D03*
X002180Y006514D03*
X002180Y006512D03*
X002180Y006509D03*
X002180Y006507D03*
X002180Y006504D03*
X002178Y006502D03*
X002178Y006499D03*
X002178Y006497D03*
X002178Y006494D03*
X002178Y006492D03*
X002178Y006489D03*
X002178Y006487D03*
X002178Y006484D03*
X002178Y006482D03*
X002178Y006479D03*
X002178Y006477D03*
X002178Y006474D03*
X002178Y006472D03*
X002178Y006469D03*
X002178Y006467D03*
X002178Y006464D03*
X002178Y006462D03*
X002178Y006459D03*
X002178Y006457D03*
X002178Y006454D03*
X002178Y006452D03*
X002178Y006449D03*
X002178Y006447D03*
X002178Y006444D03*
X002178Y006442D03*
X002180Y006429D03*
X002180Y006427D03*
X002180Y006424D03*
X002183Y006419D03*
X002183Y006417D03*
X002183Y006414D03*
X002183Y006412D03*
X002185Y006404D03*
X002185Y006402D03*
X002190Y006387D03*
X002298Y006777D03*
X002258Y006824D03*
X016188Y006692D03*
X016493Y006744D03*
X016565Y006802D03*
X016568Y006804D03*
X016723Y006699D03*
X017203Y006797D03*
X017220Y006887D03*
X017398Y006947D03*
X017398Y006949D03*
X017398Y006952D03*
X017395Y006954D03*
X017395Y006957D03*
X017395Y006959D03*
X017393Y006967D03*
X017393Y006969D03*
X017390Y006982D03*
X017390Y006984D03*
X017390Y006987D03*
X017390Y006989D03*
X017390Y006992D03*
X017400Y006942D03*
X017400Y006939D03*
X017483Y006962D03*
X017483Y006964D03*
X017483Y006967D03*
X017480Y006972D03*
X017478Y006984D03*
X017475Y006999D03*
X017485Y006959D03*
X017485Y006957D03*
X017485Y006954D03*
X017488Y006949D03*
X017490Y006944D03*
X017568Y006984D03*
X017568Y006987D03*
X017565Y006989D03*
X017565Y006992D03*
X017570Y006979D03*
X017573Y006974D03*
X017583Y006952D03*
X017563Y007007D03*
X017563Y007037D03*
X017565Y007052D03*
X017565Y007054D03*
X017568Y007057D03*
X017568Y007059D03*
X017570Y007064D03*
X017573Y007069D03*
X017583Y007092D03*
X017490Y007099D03*
X017488Y007092D03*
X017485Y007089D03*
X017485Y007087D03*
X017485Y007084D03*
X017483Y007082D03*
X017483Y007079D03*
X017483Y007077D03*
X017480Y007072D03*
X017478Y007062D03*
X017478Y007059D03*
X017475Y007044D03*
X017390Y007049D03*
X017390Y007052D03*
X017393Y007072D03*
X017393Y007074D03*
X017395Y007084D03*
X017395Y007087D03*
X017398Y007092D03*
X017398Y007094D03*
X017405Y007117D03*
X017458Y007219D03*
X017765Y006857D03*
X017770Y006844D03*
X017770Y006842D03*
X017773Y006837D03*
X017773Y006834D03*
X017773Y006832D03*
X017775Y006829D03*
X017775Y006827D03*
X017778Y006822D03*
X017778Y006819D03*
X017778Y006817D03*
X017780Y006812D03*
X017780Y006809D03*
X017780Y006807D03*
X017780Y006804D03*
X017785Y006779D03*
X017785Y006777D03*
X017785Y006719D03*
X017785Y006717D03*
X017785Y006714D03*
X017785Y006712D03*
X017785Y006709D03*
X017780Y006692D03*
X017780Y006689D03*
X017780Y006687D03*
X017780Y006684D03*
X017778Y006679D03*
X017778Y006677D03*
X017778Y006674D03*
X017775Y006672D03*
X017775Y006669D03*
X017775Y006667D03*
X017773Y006664D03*
X017773Y006662D03*
X017773Y006659D03*
X017770Y006652D03*
X017765Y006639D03*
X017688Y006682D03*
X017690Y006687D03*
X017690Y006689D03*
X017690Y006692D03*
X017693Y006694D03*
X017693Y006697D03*
X017695Y006704D03*
X017695Y006707D03*
X017695Y006709D03*
X017698Y006717D03*
X017698Y006719D03*
X017698Y006722D03*
X017698Y006724D03*
X017698Y006772D03*
X017698Y006774D03*
X017698Y006777D03*
X017698Y006779D03*
X017695Y006787D03*
X017695Y006789D03*
X017695Y006792D03*
X017693Y006799D03*
X017693Y006802D03*
X017690Y006807D03*
X017690Y006809D03*
X017688Y006814D03*
X017608Y006782D03*
X017608Y006779D03*
X017605Y006784D03*
X017605Y006787D03*
X017603Y006792D03*
X017590Y006819D03*
X017608Y006719D03*
X017608Y006717D03*
X017608Y006714D03*
X017605Y006712D03*
X017605Y006709D03*
X017603Y006704D03*
X017655Y006614D03*
X017718Y006552D03*
X017573Y006544D03*
X017563Y006517D03*
X017560Y006512D03*
X017560Y006509D03*
X017558Y006507D03*
X017558Y006504D03*
X017553Y006487D03*
X017553Y006484D03*
X017553Y006459D03*
X017558Y006439D03*
X017558Y006437D03*
X017560Y006434D03*
X017560Y006432D03*
X017563Y006427D03*
X017573Y006399D03*
X017510Y006337D03*
X017480Y006397D03*
X017478Y006404D03*
X017478Y006407D03*
X017475Y006409D03*
X017475Y006412D03*
X017473Y006414D03*
X017473Y006417D03*
X017473Y006419D03*
X017470Y006427D03*
X017470Y006429D03*
X017468Y006444D03*
X017468Y006447D03*
X017468Y006499D03*
X017468Y006502D03*
X017468Y006504D03*
X017470Y006514D03*
X017470Y006517D03*
X017470Y006519D03*
X017473Y006524D03*
X017473Y006527D03*
X017473Y006529D03*
X017475Y006532D03*
X017475Y006534D03*
X017478Y006539D03*
X017478Y006542D03*
X017480Y006547D03*
X017510Y006607D03*
X017448Y006669D03*
X017393Y006567D03*
X017393Y006564D03*
X017390Y006557D03*
X017390Y006554D03*
X017388Y006549D03*
X017385Y006542D03*
X017385Y006539D03*
X017385Y006537D03*
X017383Y006534D03*
X017383Y006532D03*
X017383Y006529D03*
X017383Y006527D03*
X017383Y006524D03*
X017380Y006517D03*
X017380Y006514D03*
X017380Y006512D03*
X017380Y006509D03*
X017380Y006507D03*
X017380Y006504D03*
X017378Y006502D03*
X017378Y006499D03*
X017378Y006497D03*
X017378Y006494D03*
X017378Y006492D03*
X017378Y006489D03*
X017378Y006487D03*
X017378Y006484D03*
X017378Y006482D03*
X017378Y006479D03*
X017378Y006477D03*
X017378Y006474D03*
X017378Y006472D03*
X017378Y006469D03*
X017378Y006467D03*
X017378Y006464D03*
X017378Y006462D03*
X017378Y006459D03*
X017378Y006457D03*
X017378Y006454D03*
X017378Y006452D03*
X017378Y006449D03*
X017378Y006447D03*
X017378Y006444D03*
X017378Y006442D03*
X017380Y006429D03*
X017380Y006427D03*
X017380Y006424D03*
X017383Y006419D03*
X017383Y006417D03*
X017383Y006414D03*
X017383Y006412D03*
X017385Y006404D03*
X017385Y006402D03*
X017390Y006387D03*
X017498Y006777D03*
X017458Y006824D03*
D92*
X017510Y006632D03*
X017263Y006692D03*
X017570Y006374D03*
X002370Y006374D03*
X002310Y006632D03*
X002063Y006692D03*
D93*
X002099Y006677D03*
X001916Y006684D03*
X001946Y006812D03*
X001664Y006812D03*
X001634Y006684D03*
X001456Y006802D03*
X001309Y006759D03*
X002296Y006729D03*
X002466Y006489D03*
X002466Y006487D03*
X002466Y006484D03*
X002466Y006459D03*
X002466Y006457D03*
X002466Y006454D03*
X002476Y007004D03*
X002476Y007007D03*
X002476Y007039D03*
X016509Y006759D03*
X016656Y006802D03*
X016864Y006812D03*
X016834Y006684D03*
X017116Y006684D03*
X017146Y006812D03*
X017299Y006677D03*
X017496Y006729D03*
X017666Y006489D03*
X017666Y006487D03*
X017666Y006484D03*
X017666Y006459D03*
X017666Y006457D03*
X017666Y006454D03*
X017676Y007004D03*
X017676Y007007D03*
X017676Y007039D03*
D94*
X017675Y007037D03*
X017675Y007034D03*
X017675Y007009D03*
X017498Y006764D03*
X017498Y006762D03*
X017498Y006759D03*
X017498Y006757D03*
X017498Y006739D03*
X017498Y006737D03*
X017498Y006734D03*
X017498Y006732D03*
X017213Y006684D03*
X017213Y006682D03*
X017213Y006679D03*
X017213Y006677D03*
X017213Y006674D03*
X017213Y006672D03*
X017118Y006672D03*
X017118Y006674D03*
X017118Y006677D03*
X017118Y006679D03*
X017118Y006682D03*
X016930Y006682D03*
X016930Y006684D03*
X016930Y006679D03*
X016930Y006677D03*
X016930Y006674D03*
X016930Y006672D03*
X016835Y006672D03*
X016835Y006674D03*
X016835Y006677D03*
X016835Y006679D03*
X016835Y006682D03*
X016715Y006609D03*
X016658Y006804D03*
X016550Y006789D03*
X017668Y006482D03*
X017668Y006464D03*
X017668Y006462D03*
X002468Y006464D03*
X002468Y006462D03*
X002468Y006482D03*
X002298Y006732D03*
X002298Y006734D03*
X002298Y006737D03*
X002298Y006739D03*
X002298Y006757D03*
X002298Y006759D03*
X002298Y006762D03*
X002298Y006764D03*
X002013Y006684D03*
X002013Y006682D03*
X002013Y006679D03*
X002013Y006677D03*
X002013Y006674D03*
X002013Y006672D03*
X001918Y006672D03*
X001918Y006674D03*
X001918Y006677D03*
X001918Y006679D03*
X001918Y006682D03*
X001730Y006682D03*
X001730Y006684D03*
X001730Y006679D03*
X001730Y006677D03*
X001730Y006674D03*
X001730Y006672D03*
X001635Y006672D03*
X001635Y006674D03*
X001635Y006677D03*
X001635Y006679D03*
X001635Y006682D03*
X001515Y006609D03*
X001458Y006804D03*
X001350Y006789D03*
X002475Y007009D03*
X002475Y007034D03*
X002475Y007037D03*
D95*
X002476Y007032D03*
X002476Y007029D03*
X002476Y007017D03*
X002476Y007014D03*
X002476Y007012D03*
X002099Y006682D03*
X002099Y006679D03*
X001824Y006684D03*
X001511Y006732D03*
X001506Y006817D03*
X001459Y006807D03*
X001346Y006787D03*
X001311Y006762D03*
X001321Y006877D03*
X001154Y006817D03*
X001156Y006677D03*
X002466Y006479D03*
X002466Y006477D03*
X002466Y006467D03*
X016356Y006677D03*
X016354Y006817D03*
X016511Y006762D03*
X016546Y006787D03*
X016521Y006877D03*
X016659Y006807D03*
X016706Y006817D03*
X016711Y006732D03*
X017024Y006684D03*
X017299Y006682D03*
X017299Y006679D03*
X017666Y006479D03*
X017666Y006477D03*
X017666Y006467D03*
X017676Y007012D03*
X017676Y007014D03*
X017676Y007017D03*
X017676Y007029D03*
X017676Y007032D03*
D96*
X017675Y007027D03*
X017675Y007024D03*
X017498Y006754D03*
X017498Y006752D03*
X017498Y006744D03*
X017498Y006742D03*
X017300Y006687D03*
X017300Y006684D03*
X017148Y006809D03*
X017023Y006682D03*
X017023Y006679D03*
X017023Y006677D03*
X017023Y006674D03*
X017023Y006672D03*
X016865Y006809D03*
X016710Y006694D03*
X016543Y006784D03*
X016515Y006764D03*
X017665Y006474D03*
X017668Y006469D03*
X002468Y006469D03*
X002465Y006474D03*
X002298Y006742D03*
X002298Y006744D03*
X002298Y006752D03*
X002298Y006754D03*
X002100Y006687D03*
X002100Y006684D03*
X001948Y006809D03*
X001823Y006682D03*
X001823Y006679D03*
X001823Y006677D03*
X001823Y006674D03*
X001823Y006672D03*
X001665Y006809D03*
X001510Y006694D03*
X001343Y006784D03*
X001315Y006764D03*
X002475Y007024D03*
X002475Y007027D03*
D97*
X002476Y007022D03*
X002476Y007019D03*
X002296Y006749D03*
X002296Y006747D03*
X002101Y006689D03*
X002466Y006472D03*
X001511Y006734D03*
X001479Y006674D03*
X001461Y006809D03*
X001339Y006782D03*
X001321Y006769D03*
X001319Y006767D03*
X016519Y006767D03*
X016521Y006769D03*
X016539Y006782D03*
X016661Y006809D03*
X016711Y006734D03*
X016679Y006674D03*
X017301Y006689D03*
X017496Y006747D03*
X017496Y006749D03*
X017676Y007019D03*
X017676Y007022D03*
X017666Y006472D03*
D98*
X017718Y006529D03*
X017595Y006652D03*
X017448Y006692D03*
X017458Y006802D03*
X017518Y006864D03*
X017655Y006907D03*
X017518Y007179D03*
X017458Y007242D03*
X002518Y006529D03*
X002395Y006652D03*
X002248Y006692D03*
X002258Y006802D03*
X002318Y006864D03*
X002455Y006907D03*
X002318Y007179D03*
X002258Y007242D03*
D99*
X002258Y007239D03*
X002318Y007177D03*
X002455Y006904D03*
X002318Y006867D03*
X002258Y006804D03*
X002248Y006689D03*
X002395Y006654D03*
X002370Y006567D03*
X002518Y006532D03*
X001823Y006849D03*
X001823Y006892D03*
X017023Y006892D03*
X017023Y006849D03*
X017458Y006804D03*
X017518Y006867D03*
X017655Y006904D03*
X017595Y006654D03*
X017570Y006567D03*
X017718Y006532D03*
X017448Y006689D03*
X017518Y007177D03*
X017458Y007239D03*
D100*
X017458Y007237D03*
X017518Y007174D03*
X017518Y006869D03*
X017498Y006787D03*
X017458Y006807D03*
X017448Y006687D03*
X017595Y006657D03*
X017570Y006564D03*
X017718Y006534D03*
X017655Y006902D03*
X017315Y006854D03*
X017315Y006852D03*
X017015Y006822D03*
X016733Y006714D03*
X016730Y006719D03*
X016480Y006822D03*
X002518Y006534D03*
X002370Y006564D03*
X002395Y006657D03*
X002248Y006687D03*
X002298Y006787D03*
X002258Y006807D03*
X002318Y006869D03*
X002455Y006902D03*
X002318Y007174D03*
X002258Y007237D03*
X002115Y006854D03*
X002115Y006852D03*
X001815Y006822D03*
X001533Y006714D03*
X001530Y006719D03*
X001280Y006822D03*
D101*
X001280Y006824D03*
X001280Y006827D03*
X001280Y006829D03*
X001280Y006832D03*
X001280Y006834D03*
X001280Y006837D03*
X001390Y006732D03*
X001390Y006729D03*
X001390Y006727D03*
X001390Y006724D03*
X001390Y006722D03*
X001390Y006719D03*
X001535Y006709D03*
X001723Y006822D03*
X001823Y006852D03*
X001823Y006889D03*
X002005Y006897D03*
X002118Y006844D03*
X002118Y006842D03*
X002258Y006809D03*
X002318Y006872D03*
X002455Y006899D03*
X002475Y006984D03*
X002318Y007172D03*
X002258Y007234D03*
X002248Y006684D03*
X002395Y006659D03*
X002370Y006562D03*
X002518Y006537D03*
X000895Y006709D03*
X000895Y006712D03*
X000895Y006714D03*
X000895Y006717D03*
X000895Y006719D03*
X000895Y006832D03*
X000895Y006834D03*
X000895Y006837D03*
X000895Y006839D03*
X000895Y006842D03*
X000895Y006844D03*
X016095Y006844D03*
X016095Y006842D03*
X016095Y006839D03*
X016095Y006837D03*
X016095Y006834D03*
X016095Y006832D03*
X016095Y006719D03*
X016095Y006717D03*
X016095Y006714D03*
X016095Y006712D03*
X016095Y006709D03*
X016480Y006824D03*
X016480Y006827D03*
X016480Y006829D03*
X016480Y006832D03*
X016480Y006834D03*
X016480Y006837D03*
X016590Y006732D03*
X016590Y006729D03*
X016590Y006727D03*
X016590Y006724D03*
X016590Y006722D03*
X016590Y006719D03*
X016735Y006709D03*
X016923Y006822D03*
X017023Y006852D03*
X017023Y006889D03*
X017205Y006897D03*
X017318Y006844D03*
X017318Y006842D03*
X017458Y006809D03*
X017518Y006872D03*
X017655Y006899D03*
X017675Y006984D03*
X017518Y007172D03*
X017458Y007234D03*
X017448Y006684D03*
X017595Y006659D03*
X017570Y006562D03*
X017718Y006537D03*
D102*
X017718Y006539D03*
X017448Y006682D03*
X017498Y006784D03*
X017458Y006812D03*
X017518Y006874D03*
X017593Y006834D03*
X017655Y006897D03*
X017580Y006937D03*
X017580Y007107D03*
X017518Y007169D03*
X017458Y007232D03*
X017023Y006887D03*
X017023Y006854D03*
X017320Y006834D03*
X017320Y006832D03*
X016735Y006704D03*
X016708Y006824D03*
X016588Y006697D03*
X016588Y006694D03*
X016483Y006854D03*
X016098Y006857D03*
X016098Y006694D03*
X002518Y006539D03*
X002248Y006682D03*
X002298Y006784D03*
X002258Y006812D03*
X002318Y006874D03*
X002393Y006834D03*
X002455Y006897D03*
X002380Y006937D03*
X002380Y007107D03*
X002318Y007169D03*
X002258Y007232D03*
X002120Y006834D03*
X002120Y006832D03*
X001823Y006854D03*
X001823Y006887D03*
X001508Y006824D03*
X001535Y006704D03*
X001388Y006697D03*
X001388Y006694D03*
X001283Y006854D03*
X000898Y006857D03*
X000898Y006694D03*
D103*
X002371Y006569D03*
X002456Y006589D03*
X002379Y006924D03*
X002516Y006969D03*
X002379Y007119D03*
X017579Y007119D03*
X017579Y006924D03*
X017716Y006969D03*
X017656Y006589D03*
X017571Y006569D03*
D104*
X016714Y006612D03*
X016706Y006692D03*
X016354Y006814D03*
X016141Y006877D03*
X016141Y006674D03*
X001514Y006612D03*
X001506Y006692D03*
X001154Y006814D03*
X000941Y006877D03*
X000941Y006674D03*
D105*
X001155Y006682D03*
X001155Y006812D03*
X001503Y006689D03*
X001513Y006614D03*
X016355Y006682D03*
X016355Y006812D03*
X016703Y006689D03*
X016713Y006614D03*
D106*
X016713Y006617D03*
X016695Y006682D03*
X016520Y006869D03*
X001513Y006617D03*
X001495Y006682D03*
X001320Y006869D03*
D107*
X001324Y006864D03*
X001346Y006682D03*
X001511Y006619D03*
X016524Y006864D03*
X016546Y006682D03*
X016711Y006619D03*
D108*
X016548Y006674D03*
X016525Y006772D03*
X016528Y006774D03*
X016533Y006777D03*
X016535Y006779D03*
X016355Y006679D03*
X001348Y006674D03*
X001325Y006772D03*
X001328Y006774D03*
X001333Y006777D03*
X001335Y006779D03*
X001155Y006679D03*
D109*
X001343Y006687D03*
X001498Y006677D03*
X000943Y006682D03*
X016143Y006682D03*
X016543Y006687D03*
X016698Y006677D03*
D110*
X016549Y006677D03*
X017309Y006812D03*
X002109Y006812D03*
X001349Y006677D03*
D111*
X001499Y006684D03*
X000941Y006677D03*
X002111Y006799D03*
X002111Y006802D03*
X002111Y006804D03*
X002111Y006807D03*
X002111Y006809D03*
X016141Y006677D03*
X016699Y006684D03*
X017311Y006799D03*
X017311Y006802D03*
X017311Y006804D03*
X017311Y006807D03*
X017311Y006809D03*
D112*
X016694Y006679D03*
X016549Y006679D03*
X016521Y006867D03*
X001494Y006679D03*
X001349Y006679D03*
X001321Y006867D03*
D113*
X000940Y006872D03*
X000940Y006679D03*
X016140Y006679D03*
X016140Y006872D03*
D114*
X016141Y006869D03*
X016544Y006684D03*
X001344Y006684D03*
X000941Y006869D03*
D115*
X000940Y006874D03*
X001155Y006809D03*
X001155Y006684D03*
X001320Y006872D03*
X001500Y006687D03*
X016140Y006874D03*
X016355Y006809D03*
X016355Y006684D03*
X016520Y006872D03*
X016700Y006687D03*
D116*
X017169Y006807D03*
X016144Y006867D03*
X016144Y006684D03*
X001969Y006807D03*
X000944Y006867D03*
X000944Y006684D03*
D117*
X000946Y006687D03*
X000946Y006864D03*
X001966Y006799D03*
X016146Y006864D03*
X016146Y006687D03*
X017166Y006799D03*
D118*
X017306Y006814D03*
X016711Y006737D03*
X002106Y006814D03*
X001511Y006737D03*
D119*
X001694Y006799D03*
X016894Y006799D03*
D120*
X017168Y006802D03*
X017168Y006804D03*
X001968Y006804D03*
X001968Y006802D03*
D121*
X001695Y006802D03*
X001695Y006804D03*
X016895Y006804D03*
X016895Y006802D03*
D122*
X016896Y006807D03*
X001696Y006807D03*
D123*
X001486Y006812D03*
X016686Y006812D03*
D124*
X016685Y006814D03*
X001485Y006814D03*
D125*
X001320Y006874D03*
X016520Y006874D03*
D126*
X017519Y007182D03*
X002319Y007182D03*
M02*
