G75*
%MOIN*%
%OFA0B0*%
%FSLAX24Y24*%
%IPPOS*%
%LPD*%
%AMOC8*
5,1,8,0,0,1.08239X$1,22.5*
%
%ADD10C,0.0060*%
%ADD11C,0.0000*%
D10*
X000596Y000744D02*
X017396Y000744D01*
X017446Y000746D01*
X017496Y000751D01*
X017545Y000760D01*
X017593Y000772D01*
X017641Y000788D01*
X017687Y000807D01*
X017731Y000830D01*
X017774Y000855D01*
X017815Y000884D01*
X017854Y000915D01*
X017891Y000949D01*
X017925Y000986D01*
X017956Y001025D01*
X017985Y001066D01*
X018010Y001109D01*
X018033Y001153D01*
X018052Y001199D01*
X018068Y001247D01*
X018080Y001295D01*
X018089Y001344D01*
X018094Y001394D01*
X018096Y001444D01*
X018096Y012044D01*
X018094Y012094D01*
X018089Y012144D01*
X018080Y012193D01*
X018068Y012241D01*
X018052Y012289D01*
X018033Y012335D01*
X018010Y012379D01*
X017985Y012422D01*
X017956Y012463D01*
X017925Y012502D01*
X017891Y012539D01*
X017854Y012573D01*
X017815Y012604D01*
X017774Y012633D01*
X017731Y012658D01*
X017687Y012681D01*
X017641Y012700D01*
X017593Y012716D01*
X017545Y012728D01*
X017496Y012737D01*
X017446Y012742D01*
X017396Y012744D01*
X001296Y012744D01*
X001246Y012742D01*
X001196Y012737D01*
X001147Y012728D01*
X001099Y012716D01*
X001051Y012700D01*
X001005Y012681D01*
X000961Y012658D01*
X000918Y012633D01*
X000877Y012604D01*
X000838Y012573D01*
X000801Y012539D01*
X000767Y012502D01*
X000736Y012463D01*
X000707Y012422D01*
X000682Y012379D01*
X000659Y012335D01*
X000640Y012289D01*
X000624Y012241D01*
X000612Y012193D01*
X000603Y012144D01*
X000598Y012094D01*
X000596Y012044D01*
X000596Y000744D01*
D11*
X000952Y001494D02*
X000954Y001533D01*
X000960Y001572D01*
X000970Y001610D01*
X000983Y001647D01*
X001000Y001682D01*
X001020Y001716D01*
X001044Y001747D01*
X001071Y001776D01*
X001100Y001802D01*
X001132Y001825D01*
X001166Y001845D01*
X001202Y001861D01*
X001239Y001873D01*
X001278Y001882D01*
X001317Y001887D01*
X001356Y001888D01*
X001395Y001885D01*
X001434Y001878D01*
X001471Y001867D01*
X001508Y001853D01*
X001543Y001835D01*
X001576Y001814D01*
X001607Y001789D01*
X001635Y001762D01*
X001660Y001732D01*
X001682Y001699D01*
X001701Y001665D01*
X001716Y001629D01*
X001728Y001591D01*
X001736Y001553D01*
X001740Y001514D01*
X001740Y001474D01*
X001736Y001435D01*
X001728Y001397D01*
X001716Y001359D01*
X001701Y001323D01*
X001682Y001289D01*
X001660Y001256D01*
X001635Y001226D01*
X001607Y001199D01*
X001576Y001174D01*
X001543Y001153D01*
X001508Y001135D01*
X001471Y001121D01*
X001434Y001110D01*
X001395Y001103D01*
X001356Y001100D01*
X001317Y001101D01*
X001278Y001106D01*
X001239Y001115D01*
X001202Y001127D01*
X001166Y001143D01*
X001132Y001163D01*
X001100Y001186D01*
X001071Y001212D01*
X001044Y001241D01*
X001020Y001272D01*
X001000Y001306D01*
X000983Y001341D01*
X000970Y001378D01*
X000960Y001416D01*
X000954Y001455D01*
X000952Y001494D01*
X000952Y011994D02*
X000954Y012033D01*
X000960Y012072D01*
X000970Y012110D01*
X000983Y012147D01*
X001000Y012182D01*
X001020Y012216D01*
X001044Y012247D01*
X001071Y012276D01*
X001100Y012302D01*
X001132Y012325D01*
X001166Y012345D01*
X001202Y012361D01*
X001239Y012373D01*
X001278Y012382D01*
X001317Y012387D01*
X001356Y012388D01*
X001395Y012385D01*
X001434Y012378D01*
X001471Y012367D01*
X001508Y012353D01*
X001543Y012335D01*
X001576Y012314D01*
X001607Y012289D01*
X001635Y012262D01*
X001660Y012232D01*
X001682Y012199D01*
X001701Y012165D01*
X001716Y012129D01*
X001728Y012091D01*
X001736Y012053D01*
X001740Y012014D01*
X001740Y011974D01*
X001736Y011935D01*
X001728Y011897D01*
X001716Y011859D01*
X001701Y011823D01*
X001682Y011789D01*
X001660Y011756D01*
X001635Y011726D01*
X001607Y011699D01*
X001576Y011674D01*
X001543Y011653D01*
X001508Y011635D01*
X001471Y011621D01*
X001434Y011610D01*
X001395Y011603D01*
X001356Y011600D01*
X001317Y011601D01*
X001278Y011606D01*
X001239Y011615D01*
X001202Y011627D01*
X001166Y011643D01*
X001132Y011663D01*
X001100Y011686D01*
X001071Y011712D01*
X001044Y011741D01*
X001020Y011772D01*
X001000Y011806D01*
X000983Y011841D01*
X000970Y011878D01*
X000960Y011916D01*
X000954Y011955D01*
X000952Y011994D01*
X016952Y011994D02*
X016954Y012033D01*
X016960Y012072D01*
X016970Y012110D01*
X016983Y012147D01*
X017000Y012182D01*
X017020Y012216D01*
X017044Y012247D01*
X017071Y012276D01*
X017100Y012302D01*
X017132Y012325D01*
X017166Y012345D01*
X017202Y012361D01*
X017239Y012373D01*
X017278Y012382D01*
X017317Y012387D01*
X017356Y012388D01*
X017395Y012385D01*
X017434Y012378D01*
X017471Y012367D01*
X017508Y012353D01*
X017543Y012335D01*
X017576Y012314D01*
X017607Y012289D01*
X017635Y012262D01*
X017660Y012232D01*
X017682Y012199D01*
X017701Y012165D01*
X017716Y012129D01*
X017728Y012091D01*
X017736Y012053D01*
X017740Y012014D01*
X017740Y011974D01*
X017736Y011935D01*
X017728Y011897D01*
X017716Y011859D01*
X017701Y011823D01*
X017682Y011789D01*
X017660Y011756D01*
X017635Y011726D01*
X017607Y011699D01*
X017576Y011674D01*
X017543Y011653D01*
X017508Y011635D01*
X017471Y011621D01*
X017434Y011610D01*
X017395Y011603D01*
X017356Y011600D01*
X017317Y011601D01*
X017278Y011606D01*
X017239Y011615D01*
X017202Y011627D01*
X017166Y011643D01*
X017132Y011663D01*
X017100Y011686D01*
X017071Y011712D01*
X017044Y011741D01*
X017020Y011772D01*
X017000Y011806D01*
X016983Y011841D01*
X016970Y011878D01*
X016960Y011916D01*
X016954Y011955D01*
X016952Y011994D01*
X016952Y001494D02*
X016954Y001533D01*
X016960Y001572D01*
X016970Y001610D01*
X016983Y001647D01*
X017000Y001682D01*
X017020Y001716D01*
X017044Y001747D01*
X017071Y001776D01*
X017100Y001802D01*
X017132Y001825D01*
X017166Y001845D01*
X017202Y001861D01*
X017239Y001873D01*
X017278Y001882D01*
X017317Y001887D01*
X017356Y001888D01*
X017395Y001885D01*
X017434Y001878D01*
X017471Y001867D01*
X017508Y001853D01*
X017543Y001835D01*
X017576Y001814D01*
X017607Y001789D01*
X017635Y001762D01*
X017660Y001732D01*
X017682Y001699D01*
X017701Y001665D01*
X017716Y001629D01*
X017728Y001591D01*
X017736Y001553D01*
X017740Y001514D01*
X017740Y001474D01*
X017736Y001435D01*
X017728Y001397D01*
X017716Y001359D01*
X017701Y001323D01*
X017682Y001289D01*
X017660Y001256D01*
X017635Y001226D01*
X017607Y001199D01*
X017576Y001174D01*
X017543Y001153D01*
X017508Y001135D01*
X017471Y001121D01*
X017434Y001110D01*
X017395Y001103D01*
X017356Y001100D01*
X017317Y001101D01*
X017278Y001106D01*
X017239Y001115D01*
X017202Y001127D01*
X017166Y001143D01*
X017132Y001163D01*
X017100Y001186D01*
X017071Y001212D01*
X017044Y001241D01*
X017020Y001272D01*
X017000Y001306D01*
X016983Y001341D01*
X016970Y001378D01*
X016960Y001416D01*
X016954Y001455D01*
X016952Y001494D01*
M02*
