G75*
%MOIN*%
%OFA0B0*%
%FSLAX24Y24*%
%IPPOS*%
%LPD*%
%AMOC8*
5,1,8,0,0,1.08239X$1,22.5*
%
%ADD10C,0.0088*%
%ADD11R,0.0261X0.0261*%
%ADD12R,0.0177X0.0079*%
%ADD13R,0.0079X0.0177*%
%ADD14R,0.0800X0.0500*%
%ADD15C,0.0075*%
%ADD16R,0.0450X0.0400*%
%ADD17R,0.0500X0.0800*%
D10*
X002465Y001713D02*
X002727Y001713D01*
X002465Y001713D02*
X002465Y001975D01*
X002727Y001975D01*
X002727Y001713D01*
X002727Y001800D02*
X002465Y001800D01*
X002465Y001887D02*
X002727Y001887D01*
X002727Y001974D02*
X002465Y001974D01*
X003065Y001713D02*
X003327Y001713D01*
X003065Y001713D02*
X003065Y001975D01*
X003327Y001975D01*
X003327Y001713D01*
X003327Y001800D02*
X003065Y001800D01*
X003065Y001887D02*
X003327Y001887D01*
X003327Y001974D02*
X003065Y001974D01*
X005065Y002813D02*
X005065Y003075D01*
X005327Y003075D01*
X005327Y002813D01*
X005065Y002813D01*
X005065Y002900D02*
X005327Y002900D01*
X005327Y002987D02*
X005065Y002987D01*
X005065Y003074D02*
X005327Y003074D01*
X005065Y003413D02*
X005065Y003675D01*
X005327Y003675D01*
X005327Y003413D01*
X005065Y003413D01*
X005065Y003500D02*
X005327Y003500D01*
X005327Y003587D02*
X005065Y003587D01*
X005065Y003674D02*
X005327Y003674D01*
X005465Y004175D02*
X005727Y004175D01*
X005727Y003913D01*
X005465Y003913D01*
X005465Y004175D01*
X005465Y004000D02*
X005727Y004000D01*
X005727Y004087D02*
X005465Y004087D01*
X005465Y004174D02*
X005727Y004174D01*
X005127Y004175D02*
X004865Y004175D01*
X005127Y004175D02*
X005127Y003913D01*
X004865Y003913D01*
X004865Y004175D01*
X004865Y004000D02*
X005127Y004000D01*
X005127Y004087D02*
X004865Y004087D01*
X004865Y004174D02*
X005127Y004174D01*
X006727Y003775D02*
X006727Y003513D01*
X006465Y003513D01*
X006465Y003775D01*
X006727Y003775D01*
X006727Y003600D02*
X006465Y003600D01*
X006465Y003687D02*
X006727Y003687D01*
X006727Y003774D02*
X006465Y003774D01*
X006727Y003175D02*
X006727Y002913D01*
X006465Y002913D01*
X006465Y003175D01*
X006727Y003175D01*
X006727Y003000D02*
X006465Y003000D01*
X006465Y003087D02*
X006727Y003087D01*
X006727Y003174D02*
X006465Y003174D01*
X007427Y003175D02*
X007427Y002913D01*
X007165Y002913D01*
X007165Y003175D01*
X007427Y003175D01*
X007427Y003000D02*
X007165Y003000D01*
X007165Y003087D02*
X007427Y003087D01*
X007427Y003174D02*
X007165Y003174D01*
X007427Y003513D02*
X007427Y003775D01*
X007427Y003513D02*
X007165Y003513D01*
X007165Y003775D01*
X007427Y003775D01*
X007427Y003600D02*
X007165Y003600D01*
X007165Y003687D02*
X007427Y003687D01*
X007427Y003774D02*
X007165Y003774D01*
X008127Y003775D02*
X008127Y003513D01*
X007865Y003513D01*
X007865Y003775D01*
X008127Y003775D01*
X008127Y003600D02*
X007865Y003600D01*
X007865Y003687D02*
X008127Y003687D01*
X008127Y003774D02*
X007865Y003774D01*
X008127Y003175D02*
X008127Y002913D01*
X007865Y002913D01*
X007865Y003175D01*
X008127Y003175D01*
X008127Y003000D02*
X007865Y003000D01*
X007865Y003087D02*
X008127Y003087D01*
X008127Y003174D02*
X007865Y003174D01*
X010327Y003275D02*
X010327Y003013D01*
X010065Y003013D01*
X010065Y003275D01*
X010327Y003275D01*
X010327Y003100D02*
X010065Y003100D01*
X010065Y003187D02*
X010327Y003187D01*
X010327Y003274D02*
X010065Y003274D01*
X010327Y003613D02*
X010327Y003875D01*
X010327Y003613D02*
X010065Y003613D01*
X010065Y003875D01*
X010327Y003875D01*
X010327Y003700D02*
X010065Y003700D01*
X010065Y003787D02*
X010327Y003787D01*
X010327Y003874D02*
X010065Y003874D01*
X010927Y003875D02*
X010927Y003613D01*
X010665Y003613D01*
X010665Y003875D01*
X010927Y003875D01*
X010927Y003700D02*
X010665Y003700D01*
X010665Y003787D02*
X010927Y003787D01*
X010927Y003874D02*
X010665Y003874D01*
X011527Y003875D02*
X011527Y003613D01*
X011265Y003613D01*
X011265Y003875D01*
X011527Y003875D01*
X011527Y003700D02*
X011265Y003700D01*
X011265Y003787D02*
X011527Y003787D01*
X011527Y003874D02*
X011265Y003874D01*
X011527Y003275D02*
X011527Y003013D01*
X011265Y003013D01*
X011265Y003275D01*
X011527Y003275D01*
X011527Y003100D02*
X011265Y003100D01*
X011265Y003187D02*
X011527Y003187D01*
X011527Y003274D02*
X011265Y003274D01*
X010927Y003275D02*
X010927Y003013D01*
X010665Y003013D01*
X010665Y003275D01*
X010927Y003275D01*
X010927Y003100D02*
X010665Y003100D01*
X010665Y003187D02*
X010927Y003187D01*
X010927Y003274D02*
X010665Y003274D01*
X013365Y003213D02*
X013627Y003213D01*
X013365Y003213D02*
X013365Y003475D01*
X013627Y003475D01*
X013627Y003213D01*
X013627Y003300D02*
X013365Y003300D01*
X013365Y003387D02*
X013627Y003387D01*
X013627Y003474D02*
X013365Y003474D01*
X013965Y003213D02*
X014227Y003213D01*
X013965Y003213D02*
X013965Y003475D01*
X014227Y003475D01*
X014227Y003213D01*
X014227Y003300D02*
X013965Y003300D01*
X013965Y003387D02*
X014227Y003387D01*
X014227Y003474D02*
X013965Y003474D01*
X015765Y001875D02*
X016027Y001875D01*
X016027Y001613D01*
X015765Y001613D01*
X015765Y001875D01*
X015765Y001700D02*
X016027Y001700D01*
X016027Y001787D02*
X015765Y001787D01*
X015765Y001874D02*
X016027Y001874D01*
X016365Y001875D02*
X016627Y001875D01*
X016627Y001613D01*
X016365Y001613D01*
X016365Y001875D01*
X016365Y001700D02*
X016627Y001700D01*
X016627Y001787D02*
X016365Y001787D01*
X016365Y001874D02*
X016627Y001874D01*
X013527Y005213D02*
X013265Y005213D01*
X013265Y005475D01*
X013527Y005475D01*
X013527Y005213D01*
X013527Y005300D02*
X013265Y005300D01*
X013265Y005387D02*
X013527Y005387D01*
X013527Y005474D02*
X013265Y005474D01*
X012927Y005213D02*
X012665Y005213D01*
X012665Y005475D01*
X012927Y005475D01*
X012927Y005213D01*
X012927Y005300D02*
X012665Y005300D01*
X012665Y005387D02*
X012927Y005387D01*
X012927Y005474D02*
X012665Y005474D01*
X013465Y007313D02*
X013727Y007313D01*
X013465Y007313D02*
X013465Y007575D01*
X013727Y007575D01*
X013727Y007313D01*
X013727Y007400D02*
X013465Y007400D01*
X013465Y007487D02*
X013727Y007487D01*
X013727Y007574D02*
X013465Y007574D01*
X014065Y007313D02*
X014327Y007313D01*
X014065Y007313D02*
X014065Y007575D01*
X014327Y007575D01*
X014327Y007313D01*
X014327Y007400D02*
X014065Y007400D01*
X014065Y007487D02*
X014327Y007487D01*
X014327Y007574D02*
X014065Y007574D01*
X013727Y009313D02*
X013465Y009313D01*
X013465Y009575D01*
X013727Y009575D01*
X013727Y009313D01*
X013727Y009400D02*
X013465Y009400D01*
X013465Y009487D02*
X013727Y009487D01*
X013727Y009574D02*
X013465Y009574D01*
X013127Y009313D02*
X012865Y009313D01*
X012865Y009575D01*
X013127Y009575D01*
X013127Y009313D01*
X013127Y009400D02*
X012865Y009400D01*
X012865Y009487D02*
X013127Y009487D01*
X013127Y009574D02*
X012865Y009574D01*
X012327Y009613D02*
X012327Y009875D01*
X012327Y009613D02*
X012065Y009613D01*
X012065Y009875D01*
X012327Y009875D01*
X012327Y009700D02*
X012065Y009700D01*
X012065Y009787D02*
X012327Y009787D01*
X012327Y009874D02*
X012065Y009874D01*
X012327Y010213D02*
X012327Y010475D01*
X012327Y010213D02*
X012065Y010213D01*
X012065Y010475D01*
X012327Y010475D01*
X012327Y010300D02*
X012065Y010300D01*
X012065Y010387D02*
X012327Y010387D01*
X012327Y010474D02*
X012065Y010474D01*
X009827Y010475D02*
X009827Y010213D01*
X009565Y010213D01*
X009565Y010475D01*
X009827Y010475D01*
X009827Y010300D02*
X009565Y010300D01*
X009565Y010387D02*
X009827Y010387D01*
X009827Y010474D02*
X009565Y010474D01*
X009227Y010475D02*
X009227Y010213D01*
X008965Y010213D01*
X008965Y010475D01*
X009227Y010475D01*
X009227Y010300D02*
X008965Y010300D01*
X008965Y010387D02*
X009227Y010387D01*
X009227Y010474D02*
X008965Y010474D01*
X008365Y010475D02*
X008365Y010213D01*
X008365Y010475D02*
X008627Y010475D01*
X008627Y010213D01*
X008365Y010213D01*
X008365Y010300D02*
X008627Y010300D01*
X008627Y010387D02*
X008365Y010387D01*
X008365Y010474D02*
X008627Y010474D01*
X008365Y009875D02*
X008365Y009613D01*
X008365Y009875D02*
X008627Y009875D01*
X008627Y009613D01*
X008365Y009613D01*
X008365Y009700D02*
X008627Y009700D01*
X008627Y009787D02*
X008365Y009787D01*
X008365Y009874D02*
X008627Y009874D01*
X009227Y009875D02*
X009227Y009613D01*
X008965Y009613D01*
X008965Y009875D01*
X009227Y009875D01*
X009227Y009700D02*
X008965Y009700D01*
X008965Y009787D02*
X009227Y009787D01*
X009227Y009874D02*
X008965Y009874D01*
X009827Y009875D02*
X009827Y009613D01*
X009565Y009613D01*
X009565Y009875D01*
X009827Y009875D01*
X009827Y009700D02*
X009565Y009700D01*
X009565Y009787D02*
X009827Y009787D01*
X009827Y009874D02*
X009565Y009874D01*
X007365Y009875D02*
X007365Y009613D01*
X007365Y009875D02*
X007627Y009875D01*
X007627Y009613D01*
X007365Y009613D01*
X007365Y009700D02*
X007627Y009700D01*
X007627Y009787D02*
X007365Y009787D01*
X007365Y009874D02*
X007627Y009874D01*
X007365Y010213D02*
X007365Y010475D01*
X007627Y010475D01*
X007627Y010213D01*
X007365Y010213D01*
X007365Y010300D02*
X007627Y010300D01*
X007627Y010387D02*
X007365Y010387D01*
X007365Y010474D02*
X007627Y010474D01*
X005227Y010175D02*
X004965Y010175D01*
X005227Y010175D02*
X005227Y009913D01*
X004965Y009913D01*
X004965Y010175D01*
X004965Y010000D02*
X005227Y010000D01*
X005227Y010087D02*
X004965Y010087D01*
X004965Y010174D02*
X005227Y010174D01*
X004627Y010175D02*
X004365Y010175D01*
X004627Y010175D02*
X004627Y009913D01*
X004365Y009913D01*
X004365Y010175D01*
X004365Y010000D02*
X004627Y010000D01*
X004627Y010087D02*
X004365Y010087D01*
X004365Y010174D02*
X004627Y010174D01*
X003327Y011513D02*
X003065Y011513D01*
X003065Y011775D01*
X003327Y011775D01*
X003327Y011513D01*
X003327Y011600D02*
X003065Y011600D01*
X003065Y011687D02*
X003327Y011687D01*
X003327Y011774D02*
X003065Y011774D01*
X002727Y011513D02*
X002465Y011513D01*
X002465Y011775D01*
X002727Y011775D01*
X002727Y011513D01*
X002727Y011600D02*
X002465Y011600D01*
X002465Y011687D02*
X002727Y011687D01*
X002727Y011774D02*
X002465Y011774D01*
X005465Y007913D02*
X005727Y007913D01*
X005465Y007913D02*
X005465Y008175D01*
X005727Y008175D01*
X005727Y007913D01*
X005727Y008000D02*
X005465Y008000D01*
X005465Y008087D02*
X005727Y008087D01*
X005727Y008174D02*
X005465Y008174D01*
X006065Y007913D02*
X006327Y007913D01*
X006065Y007913D02*
X006065Y008175D01*
X006327Y008175D01*
X006327Y007913D01*
X006327Y008000D02*
X006065Y008000D01*
X006065Y008087D02*
X006327Y008087D01*
X006327Y008174D02*
X006065Y008174D01*
X005227Y006175D02*
X004965Y006175D01*
X005227Y006175D02*
X005227Y005913D01*
X004965Y005913D01*
X004965Y006175D01*
X004965Y006000D02*
X005227Y006000D01*
X005227Y006087D02*
X004965Y006087D01*
X004965Y006174D02*
X005227Y006174D01*
X004627Y006175D02*
X004365Y006175D01*
X004627Y006175D02*
X004627Y005913D01*
X004365Y005913D01*
X004365Y006175D01*
X004365Y006000D02*
X004627Y006000D01*
X004627Y006087D02*
X004365Y006087D01*
X004365Y006174D02*
X004627Y006174D01*
X015865Y011775D02*
X016127Y011775D01*
X016127Y011513D01*
X015865Y011513D01*
X015865Y011775D01*
X015865Y011600D02*
X016127Y011600D01*
X016127Y011687D02*
X015865Y011687D01*
X015865Y011774D02*
X016127Y011774D01*
X016465Y011775D02*
X016727Y011775D01*
X016727Y011513D01*
X016465Y011513D01*
X016465Y011775D01*
X016465Y011600D02*
X016727Y011600D01*
X016727Y011687D02*
X016465Y011687D01*
X016465Y011774D02*
X016727Y011774D01*
D11*
X009757Y007305D03*
X009236Y007305D03*
X009236Y006784D03*
X009757Y006784D03*
D12*
X010195Y006729D03*
X010195Y006572D03*
X010195Y006887D03*
X010195Y007044D03*
X010195Y007202D03*
X010195Y007359D03*
X010195Y007517D03*
X008798Y007517D03*
X008798Y007359D03*
X008798Y007202D03*
X008798Y007044D03*
X008798Y006887D03*
X008798Y006729D03*
X008798Y006572D03*
D13*
X009024Y006346D03*
X009181Y006346D03*
X009339Y006346D03*
X009496Y006346D03*
X009654Y006346D03*
X009811Y006346D03*
X009969Y006346D03*
X009969Y007743D03*
X009811Y007743D03*
X009654Y007743D03*
X009496Y007743D03*
X009339Y007743D03*
X009181Y007743D03*
X009024Y007743D03*
D14*
X006096Y007394D03*
X006096Y006094D03*
D15*
X002709Y001006D02*
X002483Y001006D01*
X002483Y001282D01*
X002709Y001282D01*
X002709Y001006D01*
X002709Y001080D02*
X002483Y001080D01*
X002483Y001154D02*
X002709Y001154D01*
X002709Y001228D02*
X002483Y001228D01*
X003083Y001006D02*
X003309Y001006D01*
X003083Y001006D02*
X003083Y001282D01*
X003309Y001282D01*
X003309Y001006D01*
X003309Y001080D02*
X003083Y001080D01*
X003083Y001154D02*
X003309Y001154D01*
X003309Y001228D02*
X003083Y001228D01*
X015783Y001282D02*
X016009Y001282D01*
X016009Y001006D01*
X015783Y001006D01*
X015783Y001282D01*
X015783Y001080D02*
X016009Y001080D01*
X016009Y001154D02*
X015783Y001154D01*
X015783Y001228D02*
X016009Y001228D01*
X016383Y001282D02*
X016609Y001282D01*
X016609Y001006D01*
X016383Y001006D01*
X016383Y001282D01*
X016383Y001080D02*
X016609Y001080D01*
X016609Y001154D02*
X016383Y001154D01*
X016383Y001228D02*
X016609Y001228D01*
X016483Y012482D02*
X016709Y012482D01*
X016709Y012206D01*
X016483Y012206D01*
X016483Y012482D01*
X016483Y012280D02*
X016709Y012280D01*
X016709Y012354D02*
X016483Y012354D01*
X016483Y012428D02*
X016709Y012428D01*
X016109Y012482D02*
X015883Y012482D01*
X016109Y012482D02*
X016109Y012206D01*
X015883Y012206D01*
X015883Y012482D01*
X015883Y012280D02*
X016109Y012280D01*
X016109Y012354D02*
X015883Y012354D01*
X015883Y012428D02*
X016109Y012428D01*
X003309Y012206D02*
X003083Y012206D01*
X003083Y012482D01*
X003309Y012482D01*
X003309Y012206D01*
X003309Y012280D02*
X003083Y012280D01*
X003083Y012354D02*
X003309Y012354D01*
X003309Y012428D02*
X003083Y012428D01*
X002709Y012206D02*
X002483Y012206D01*
X002483Y012482D01*
X002709Y012482D01*
X002709Y012206D01*
X002709Y012280D02*
X002483Y012280D01*
X002483Y012354D02*
X002709Y012354D01*
X002709Y012428D02*
X002483Y012428D01*
D16*
X005296Y009394D03*
X005896Y009394D03*
X005896Y008694D03*
X005296Y008694D03*
X004496Y009044D03*
X006696Y009044D03*
X005896Y005394D03*
X005296Y005394D03*
X004496Y005044D03*
X005296Y004694D03*
X005896Y004694D03*
X006696Y005044D03*
X011996Y004344D03*
X012796Y003994D03*
X013396Y003994D03*
X013396Y004694D03*
X012796Y004694D03*
X014196Y004344D03*
X013396Y008094D03*
X012796Y008094D03*
X011996Y008444D03*
X012796Y008794D03*
X013396Y008794D03*
X014196Y008444D03*
D17*
X013546Y006244D03*
X012246Y006244D03*
M02*
