%
M48
M72
T01C0.0140
T02C0.0315
T03C0.0400
T04C0.0787
%
T01
X2296Y2844
X3496Y2844
X3696Y1744
X4196Y1144
X6096Y3044
X7496Y4444
X8096Y4744
X8796Y5044
X9296Y4944
X9696Y4544
X8696Y3644
X9696Y2944
X8696Y2744
X10696Y1744
X11696Y2644
X11396Y4344
X11896Y5344
X11096Y5544
X10596Y5844
X9996Y5744
X8996Y5644
X8496Y5544
X8496Y6244
X7696Y6644
X7696Y7144
X7696Y7644
X8196Y8144
X8696Y7944
X7996Y8944
X7496Y9044
X6796Y8544
X7996Y9744
X6696Y10044
X4796Y9544
X4196Y12344
X8696Y10844
X10696Y10744
X11596Y11844
X12796Y10344
X14096Y9444
X12296Y7944
X11596Y7444
X11054Y6887
X12296Y6887
X12996Y6444
X12996Y7444
X11196Y8444
X11496Y8944
X10296Y7944
X7196Y5644
X7296Y5044
X6696Y6644
X4796Y5544
X4396Y4544
X3296Y6944
X13896Y5244
X13896Y3844
X16096Y3444
X15396Y1144
X15146Y6994
X16096Y7644
X15496Y12344
T02
X15196Y10025
X15196Y9238
X15196Y8451
X15196Y7663
X15196Y5825
X15196Y5038
X15196Y4251
X15196Y3463
X3496Y3463
X3496Y4251
X3496Y5038
X3496Y5825
X3496Y7663
X3496Y8451
X3496Y9238
X3496Y10025
T03
X4196Y11244
X5196Y11244
X6196Y11244
X7196Y11244
X8196Y11244
X9196Y11244
X10196Y11244
X11196Y11244
X12196Y11244
X13196Y11244
X14196Y11244
X15196Y11244
X15196Y2244
X14196Y2244
X13196Y2244
X12196Y2244
X11196Y2244
X10196Y2244
X9196Y2244
X8196Y2244
X7196Y2244
X6196Y2244
X5196Y2244
X4196Y2244
T04
X1346Y1494
X1346Y11994
X17346Y11994
X17346Y1494
M30
