G75*
%MOIN*%
%OFA0B0*%
%FSLAX24Y24*%
%IPPOS*%
%LPD*%
%AMOC8*
5,1,8,0,0,1.08239X$1,22.5*
%
%ADD10R,0.0720X0.0720*%
%ADD11OC8,0.0720*%
%ADD12R,0.0635X0.0635*%
%ADD13C,0.0635*%
%ADD14C,0.0867*%
D10*
X015196Y011244D03*
D11*
X014196Y011244D03*
X013196Y011244D03*
X012196Y011244D03*
X011196Y011244D03*
X010196Y011244D03*
X009196Y011244D03*
X008196Y011244D03*
X007196Y011244D03*
X006196Y011244D03*
X005196Y011244D03*
X004196Y011244D03*
X004196Y002244D03*
X005196Y002244D03*
X006196Y002244D03*
X007196Y002244D03*
X008196Y002244D03*
X009196Y002244D03*
X010196Y002244D03*
X011196Y002244D03*
X012196Y002244D03*
X013196Y002244D03*
X014196Y002244D03*
X015196Y002244D03*
D12*
X015196Y005825D03*
X015196Y010025D03*
X003496Y007663D03*
X003496Y003463D03*
D13*
X003496Y004251D03*
X003496Y005038D03*
X003496Y005825D03*
X003496Y008451D03*
X003496Y009238D03*
X003496Y010025D03*
X015196Y009238D03*
X015196Y008451D03*
X015196Y007663D03*
X015196Y005038D03*
X015196Y004251D03*
X015196Y003463D03*
D14*
X001346Y001494D03*
X001346Y011994D03*
X017346Y011994D03*
X017346Y001494D03*
M02*
